<svg width="464" height="7" viewBox="0 0 464 7" fill="none" xmlns="http://www.w3.org/2000/svg">
<path d="M191.071 0H198.293V7H191.071V0Z" fill="white"/>
<path d="M2 0H177V7H2V0Z" fill="url(#paint0_linear_2669_1755)"/>
<path d="M204.085 0H211.307V7H204.085V0Z" fill="white"/>
<path d="M456.947 0H464V7H456.947V0Z" fill="white"/>
<path opacity="0.7" d="M447.656 0H454.709V7H447.656V0Z" fill="white"/>
<path d="M438.365 0H445.418V7H438.365V0Z" fill="white"/>
<path opacity="0.7" d="M429.057 0H436.109V7H429.057V0Z" fill="white"/>
<path d="M419.766 0H426.818V7H419.766V0Z" fill="white"/>
<path d="M385.912 0H392.965V7H385.912V0Z" fill="white"/>
<path opacity="0.7" d="M376.604 0H383.656V7H376.604V0Z" fill="white"/>
<path d="M367.312 0H374.365V7H367.312V0Z" fill="white"/>
<path d="M242.133 0H249.186V7H242.133V0Z" fill="white"/>
<path opacity="0.7" d="M232.842 0H239.895V7H232.842V0Z" fill="white"/>
<path d="M223.551 0H230.604V7H223.551V0Z" fill="white"/>
<path opacity="0.7" d="M358.022 0H365.074V7H358.022V0Z" fill="white"/>
<path d="M348.731 0H355.783V7H348.731V0Z" fill="white"/>
<path d="M331.221 0H338.273V7H331.221V0Z" fill="white"/>
<path opacity="0.7" d="M321.93 0H328.982V7H321.93V0Z" fill="white"/>
<path d="M301.732 0H308.785V7H301.732V0Z" fill="white"/>
<path opacity="0.7" d="M292.441 0H299.494V7H292.441V0Z" fill="white"/>
<defs>
<linearGradient id="paint0_linear_2669_1755" x1="177" y1="4.00002" x2="21" y2="4" gradientUnits="userSpaceOnUse">
<stop stop-color="#154359"/>
<stop offset="0.0001" stop-color="white"/>
<stop offset="1" stop-color="white" stop-opacity="0"/>
</linearGradient>
</defs>
</svg>
