<svg width="431" height="87" viewBox="0 0 431 87" fill="none" xmlns="http://www.w3.org/2000/svg">
<g clip-path="url(#clip0_2720_4590)">
<path d="M0 66.7381H10.4087C11.3067 68.9423 12.4904 70.7791 13.9599 72.2486C17.6335 75.9222 22.3685 77.759 28.1647 77.759C33.3895 77.759 37.2264 76.9019 39.6755 75.1875C42.2062 73.4731 43.4716 71.2689 43.4716 68.5749C43.4716 67.1054 42.941 65.8401 41.8797 64.7788C40.9 63.7175 39.2673 62.7787 36.9815 61.9623C34.6956 61.146 32.6547 60.5337 30.8587 60.1255C29.1443 59.6357 26.6136 59.0642 23.2665 58.4111C9.79641 55.6355 3.06138 49.6352 3.06138 40.4102C3.06138 35.5936 5.1023 31.5526 9.18414 28.2872C13.266 24.94 18.9806 23.2665 26.3279 23.2665C35.4712 23.2665 42.696 26.3279 48.0024 32.4506C50.125 35.2263 51.6761 38.2877 52.6557 41.6348H42.247C41.5123 40.002 40.451 38.4917 39.0632 37.1039C35.961 34.0017 31.7159 32.4506 26.3279 32.4506C22.0011 32.4506 18.654 33.267 16.2865 34.8997C14.0007 36.5325 12.8578 38.3693 12.8578 40.4102C12.8578 41.8797 13.3476 43.145 14.3273 44.2063C15.3885 45.2676 17.0621 46.2064 19.3479 47.0228C21.6337 47.8392 23.6339 48.4923 25.3482 48.9821C27.1442 49.3903 29.7158 49.9209 33.0629 50.574C46.533 53.3496 53.268 59.35 53.268 68.5749C53.268 73.7997 51.0638 78.1672 46.6554 81.6776C42.247 85.188 36.0835 86.9432 28.1647 86.9432C18.205 86.9432 10.5311 83.5961 5.14312 76.9019C2.85729 73.9629 1.14292 70.575 0 66.7381Z" fill="#154359"/>
<path d="M55.0761 33.6752V24.491H63.0357V11.021H72.8321V24.491H92.425V33.6752H72.8321V76.5345H93.0372V85.7186H63.0357V33.6752H55.0761Z" fill="#154359"/>
<path d="M104.087 77.8815C98.3723 71.7587 95.515 64.1665 95.515 55.1048C95.515 46.0432 98.3723 38.4917 104.087 32.4506C109.801 26.3279 116.741 23.2665 124.904 23.2665C130.047 23.2665 134.374 24.2461 137.885 26.2054C141.477 28.1647 144.089 30.2873 145.722 32.5731L146.824 34.4099H146.946V24.491H156.743V85.7186H146.946V75.9222H146.824L145.722 77.6366C144.252 79.8408 141.721 81.9633 138.129 84.0043C134.537 85.9635 130.129 86.9432 124.904 86.9432C116.741 86.9432 109.801 83.9226 104.087 77.8815ZM111.189 38.8183C107.271 43.0634 105.311 48.4923 105.311 55.1048C105.311 61.7174 107.271 67.1463 111.189 71.3914C115.19 75.6365 120.169 77.759 126.129 77.759C132.088 77.759 137.027 75.6365 140.946 71.3914C144.946 67.1463 146.946 61.7174 146.946 55.1048C146.946 48.4923 144.946 43.0634 140.946 38.8183C137.027 34.5732 132.088 32.4506 126.129 32.4506C120.169 32.4506 115.19 34.5732 111.189 38.8183Z" fill="#154359"/>
<path d="M164.578 85.7186V24.491H174.374V34.2875H174.497C175.639 32.2465 177.027 30.5322 178.66 29.1443C182.66 25.634 187.558 24.491 193.355 24.491H199.779V33.6752H193.355C187.803 33.6752 183.232 35.4712 179.64 39.0632C176.129 42.5736 174.374 47.1044 174.374 52.6557V85.7186H164.578Z" fill="#154359"/>
<path d="M204.873 33.6752V24.491H212.497V11.021H222.293V24.491H241.886V33.6752H222.293V76.5345H242.498V85.7186H212.497V33.6752H204.873Z" fill="#154359"/>
<path d="M252.07 77.8815C246.111 71.8404 243.131 64.2482 243.131 55.1048C243.131 45.9615 246.111 38.3693 252.07 32.3282C258.03 26.287 265.459 23.2665 274.357 23.2665C283.255 23.2665 290.684 26.2462 296.644 32.2057C302.603 38.1652 305.583 45.5941 305.583 54.4926V58.1662H252.927C253.58 63.8808 255.907 68.5749 259.907 72.2486C263.908 75.9222 268.724 77.759 274.357 77.759C280.398 77.759 285.582 75.9222 289.909 72.2486C291.868 70.6158 293.419 68.779 294.562 66.7381H304.359C302.889 70.575 300.807 73.9629 298.113 76.9019C291.746 83.5961 283.827 86.9432 274.357 86.9432C265.459 86.9432 258.03 83.9226 252.07 77.8815ZM253.172 49.5944H295.174C294.44 44.7778 292.195 40.7368 288.439 37.4713C284.684 34.1242 279.99 32.4506 274.357 32.4506C268.724 32.4506 263.989 34.1242 260.152 37.4713C256.315 40.7368 253.989 44.7778 253.172 49.5944Z" fill="#154359"/>
<path d="M318.054 77.8815C312.177 71.8404 309.238 64.2482 309.238 55.1048C309.238 45.9615 312.177 38.3693 318.054 32.3282C323.932 26.287 331.198 23.2665 339.851 23.2665C349.893 23.2665 357.852 26.8585 363.73 34.0425C366.261 37.2264 368.098 40.7776 369.241 44.6961H359.444C358.546 42.492 357.199 40.451 355.403 38.5734C351.485 34.4915 346.301 32.4506 339.851 32.4506C333.892 32.4506 328.912 34.5732 324.912 38.8183C320.993 43.0634 319.034 48.4923 319.034 55.1048C319.034 61.7174 321.075 67.1463 325.157 71.3914C329.239 75.6365 334.137 77.759 339.851 77.759C346.546 77.759 351.893 75.514 355.893 71.024C357.689 69.1464 359.077 66.9014 360.057 64.289H369.853C368.792 68.4525 366.914 72.2486 364.22 75.6773C358.016 83.1879 349.893 86.9432 339.851 86.9432C331.198 86.9432 323.932 83.9226 318.054 77.8815Z" fill="#154359"/>
<path d="M376.028 85.7186V0H385.825V33.6752H385.947C387.172 31.7159 388.764 30.0015 390.723 28.5321C395.213 25.0217 400.519 23.2665 406.642 23.2665C414.071 23.2665 419.99 25.634 424.398 30.3689C428.888 35.0222 431.133 41.4307 431.133 49.5944V85.7186H421.337V50.2066C421.337 44.3288 419.867 39.9204 416.928 36.9815C413.989 33.9609 409.948 32.4506 404.805 32.4506C399.172 32.4506 394.601 34.3283 391.09 38.0836C387.58 41.7572 385.825 46.6146 385.825 52.6557V85.7186H376.028Z" fill="#154359"/>
</g>
<defs>
<clipPath id="clip0_2720_4590">
<rect width="431" height="87" fill="white"/>
</clipPath>
</defs>
</svg>
