<svg width="431" height="91" viewBox="0 0 431 91" fill="none" xmlns="http://www.w3.org/2000/svg">
<g clip-path="url(#clip0_2720_4599)">
<path d="M356.85 68.1042H367.165C368.054 70.3614 369.228 72.2423 370.684 73.7471C374.324 77.5091 379.016 79.3901 384.76 79.3901C389.938 79.3901 393.74 78.5123 396.167 76.7567C398.675 75.0011 399.929 72.7439 399.929 69.9852C399.929 68.4804 399.403 67.1846 398.351 66.0978C397.381 65.011 395.763 64.0496 393.497 63.2136C391.232 62.3776 389.21 61.7506 387.43 61.3326C385.731 60.831 383.223 60.2458 379.906 59.577C366.558 56.7346 359.884 50.5901 359.884 41.1433C359.884 36.2109 361.906 32.0728 365.951 28.7288C369.996 25.3012 375.659 23.5874 382.94 23.5874C392.001 23.5874 399.16 26.7224 404.419 32.9924C406.522 35.8347 408.059 38.9697 409.03 42.3973H398.716C397.987 40.7253 396.936 39.1787 395.56 37.7575C392.486 34.5807 388.279 32.9924 382.94 32.9924C378.652 32.9924 375.335 33.8283 372.989 35.5003C370.724 37.1723 369.592 39.0533 369.592 41.1433C369.592 42.6481 370.077 43.9439 371.048 45.0307C372.099 46.1175 373.758 47.0789 376.023 47.9149C378.288 48.7509 380.27 49.4197 381.969 49.9213C383.749 50.3393 386.297 50.8827 389.614 51.5515C402.963 54.3938 409.637 60.5384 409.637 69.9852C409.637 75.3355 407.453 79.8081 403.084 83.4029C398.716 86.9977 392.608 88.7951 384.76 88.7951C374.891 88.7951 367.286 85.3675 361.947 78.5123C359.681 75.5027 357.982 72.0333 356.85 68.1042Z" fill="#154359"/>
<path d="M297.231 79.7334C291.435 73.6106 288.537 66.0183 288.537 56.9566C288.537 47.8949 291.435 40.3435 297.231 34.3023C303.027 28.1795 310.066 25.1181 318.346 25.1181C323.562 25.1181 327.992 26.0978 331.636 28.0571C335.279 30.0164 337.887 32.0981 339.461 34.3023L340.579 36.1392H340.703V1.85156H350.639V87.5705H340.703V77.7741H340.579L339.461 79.4885C337.97 81.6927 335.403 83.8152 331.76 85.8562C328.117 87.8155 323.645 88.7951 318.346 88.7951C310.066 88.7951 303.027 85.7745 297.231 79.7334ZM304.435 40.67C300.46 44.9151 298.473 50.344 298.473 56.9566C298.473 63.5692 300.46 68.9981 304.435 73.2432C308.492 77.4884 313.543 79.6109 319.588 79.6109C325.633 79.6109 330.642 77.4884 334.617 73.2432C338.674 68.9981 340.703 63.5692 340.703 56.9566C340.703 50.344 338.674 44.9151 334.617 40.67C330.642 36.4249 325.633 34.3023 319.588 34.3023C313.543 34.3023 308.492 36.4249 304.435 40.67Z" fill="#154359"/>
<path d="M251.275 88.7949V27.3073H261.38V37.1453H261.507C262.685 35.0957 264.117 33.374 265.801 31.9803C269.927 28.455 274.98 26.6924 280.958 26.6924H288.537V36.5304H280.958C275.232 36.5304 270.517 38.334 266.812 41.9413C263.191 45.4666 261.38 50.0167 261.38 55.5916V88.7949H251.275Z" fill="#154359"/>
<path d="M188.117 79.9575C182.611 73.9861 179.857 66.5815 179.857 57.7438C179.857 48.9061 182.611 41.5413 188.117 35.6495C193.623 29.6781 200.31 26.6924 208.176 26.6924C213.132 26.6924 217.301 27.6478 220.684 29.5587C224.145 31.4695 226.662 33.5396 228.235 35.769L229.297 37.5604H229.415V27.8867H238.855V87.6009H229.415V78.0466H229.297L228.235 79.7186C226.819 81.8683 224.381 83.9384 220.92 85.9289C217.458 87.8398 213.211 88.7952 208.176 88.7952C200.31 88.7952 193.623 85.8493 188.117 79.9575ZM194.961 41.8598C191.185 46 189.297 51.2947 189.297 57.7438C189.297 64.1929 191.185 69.4876 194.961 73.6278C198.815 77.768 203.614 79.8381 209.356 79.8381C215.099 79.8381 219.858 77.768 223.633 73.6278C227.488 69.4876 229.415 64.1929 229.415 57.7438C229.415 51.2947 227.488 46 223.633 41.8598C219.858 37.7196 215.099 35.6495 209.356 35.6495C203.614 35.6495 198.815 37.7196 194.961 41.8598Z" fill="#154359"/>
<path d="M89.8088 26.6924H100.145L111.089 79.4795H114.129L124.465 26.6924H142.097L152.432 79.4795H155.472L166.416 26.6924H176.752L163.376 88.7949H144.529L134.193 36.0078H132.369L122.033 88.7949H103.185L89.8088 26.6924Z" fill="#154359"/>
<path d="M30.1904 79.5155C24.3942 73.2455 21.4961 65.4708 21.4961 56.1912C21.4961 46.9117 24.3942 39.1787 30.1904 32.9924C35.9867 26.7224 43.025 23.5874 51.3053 23.5874C56.5219 23.5874 60.9105 24.5906 64.471 26.597C68.1144 28.6034 70.7641 30.777 72.4202 33.1178L73.538 34.9987H73.6622V24.8414H83.5986V87.5411H73.6622V77.5091H73.538L72.4202 79.2647C70.9297 81.5219 68.3628 83.6955 64.7194 85.7855C61.0761 87.7919 56.6047 88.7951 51.3053 88.7951C43.025 88.7951 35.9867 85.7019 30.1904 79.5155ZM37.3943 39.5131C33.4198 43.8603 31.4325 49.4197 31.4325 56.1912C31.4325 62.9628 33.4198 68.5222 37.3943 72.8693C41.4517 77.2165 46.5027 79.3901 52.5474 79.3901C58.592 79.3901 63.6016 77.2165 67.5762 72.8693C71.6335 68.5222 73.6622 62.9628 73.6622 56.1912C73.6622 49.4197 71.6335 43.8603 67.5762 39.5131C63.6016 35.1659 58.592 32.9924 52.5474 32.9924C46.5027 32.9924 41.4517 35.1659 37.3943 39.5131Z" fill="#154359"/>
</g>
<text x="30" y="65" font-family="Arial" font-size="45" fill="#154359" font-weight="bold">GENERAL STELLAR</text>
<defs>
<clipPath id="clip0_2720_4599">
<rect width="431" height="91" fill="white"/>
</clipPath>
</defs>
</svg>
