<svg width="547" height="668" viewBox="0 0 547 668" fill="none" xmlns="http://www.w3.org/2000/svg">
<mask id="mask0_2882_161" style="mask-type:alpha" maskUnits="userSpaceOnUse" x="0" y="0" width="547" height="668">
<rect width="547" height="668" rx="15" fill="#141420"/>
<rect width="547" height="668" rx="15" fill="url(#paint0_linear_2882_161)"/>
</mask>
<g mask="url(#mask0_2882_161)">
<path d="M545.667 370.169C542.201 354.254 531.358 341.07 519.48 329.667C494.797 305.97 447.944 276.941 398.446 244.986C354.79 216.805 310.644 189.202 268.864 158.601C206.846 113.175 195.134 91.1795 194.28 88.845C250.178 92.3423 355.54 157.417 429.248 132.306C441.599 128.097 452.643 121.184 461.75 112.339C475.597 99.2976 482.954 80.8571 482.124 62.5257C480.365 23.6827 445.727 -16.3201 426.687 -37.6946C403.074 -64.2047 365.601 -102.345 363.462 -106H275.001C275.179 -105.482 275.231 -104.874 275.559 -104.456C279.606 -99.287 387.315 15.5586 403.376 40.4668C413.855 56.718 422.728 76.3242 388.882 71.8822C384.813 71.3493 380.672 71.1524 376.677 70.3167C369.664 68.8512 362.706 67.1161 355.787 65.2933C324.262 56.4758 294.395 43.2798 263.633 32.479C236.868 22.8318 201.037 11.931 172.361 16.4216C117.652 24.9908 92.309 76.5483 120.92 129.057C129.601 144.987 141.846 158.913 154.609 172.133C161.694 179.778 169.629 186.661 177.408 193.68C287.719 293.228 409.114 339.084 431.224 354.645C281.725 336.819 110.372 225.447 84.6176 223.17C54.7347 220.523 42.4837 233.08 37.5151 252.323C31.151 294.772 85.5133 365.409 103.892 384.797C116.568 398.172 130.464 410.417 144.276 422.753C152.847 430.196 161.743 437.309 170.612 444.437C177.998 450.372 212.231 481.468 220.186 487.63C302.993 551.796 345.836 594.381 361.764 611.101C373.087 622.989 389.171 638.467 399.67 651H460.153C436.251 624.154 411.123 598.283 385.192 573.132C252.816 444.737 148.781 362.184 121.825 322.899C123.188 323.117 266.94 403.974 376.271 428.428C398.242 433.342 420.459 437.518 442.982 439.428C465.874 441.721 492.982 441.194 513.688 430.971C522.291 426.723 553.816 407.58 545.667 370.169Z" fill="white" fill-opacity="0.05"/>
</g>
<defs>
<linearGradient id="paint0_linear_2882_161" x1="547" y1="-13" x2="273.5" y2="668" gradientUnits="userSpaceOnUse">
<stop stop-color="#25597F"/>
<stop offset="1" stop-color="#25597F" stop-opacity="0"/>
</linearGradient>
</defs>
</svg>
