<svg width="167" height="50" viewBox="0 0 167 50" fill="none" xmlns="http://www.w3.org/2000/svg">
<path d="M32.605 32.013C32.3828 30.9937 31.6878 30.1493 30.9265 29.4189C29.3443 27.9011 26.3411 26.0418 23.1683 23.9951C20.37 22.1901 17.5403 20.4221 14.8622 18.4622C10.8869 15.5527 10.1362 14.1439 10.0815 13.9944C13.6644 14.2184 20.4181 18.3863 25.1426 16.778C25.9344 16.5084 26.6423 16.0656 27.226 15.4991C28.1136 14.6638 28.5852 13.4827 28.5319 12.3086C28.4192 9.82075 26.199 7.2586 24.9785 5.88957C23.465 4.19162 21.0629 1.74874 20.9258 1.51465H15.2556C15.267 1.54781 15.2704 1.58679 15.2914 1.61356C15.5508 1.94462 22.4548 9.30041 23.4843 10.8958C24.156 11.9366 24.7247 13.1924 22.5553 12.9079C22.2944 12.8738 22.029 12.8612 21.7729 12.8076C21.3234 12.7138 20.8774 12.6026 20.4339 12.4859C18.4132 11.9211 16.4987 11.0759 14.5269 10.3841C12.8113 9.76625 10.5146 9.06807 8.67651 9.35568C5.16969 9.90453 3.54525 13.2068 5.37916 16.5699C5.93562 17.5902 6.72049 18.4822 7.53863 19.3289C7.99274 19.8186 8.50136 20.2594 8.99998 20.709C16.0708 27.085 23.8521 30.022 25.2693 31.0187C15.6866 29.877 4.70309 22.7436 3.05224 22.5978C1.13678 22.4283 0.351496 23.2325 0.0330159 24.465C-0.374914 27.1839 3.10965 31.7081 4.28768 32.95C5.10021 33.8066 5.99095 34.5909 6.87629 35.381C7.42568 35.8577 7.99586 36.3133 8.56439 36.7698C9.03784 37.1499 11.2321 39.1417 11.742 39.5363C17.0499 43.6461 19.7961 46.3736 20.817 47.4446C21.5428 48.206 22.5738 49.1974 23.2467 50.0001H27.1236C25.5916 48.2806 23.9808 46.6236 22.3188 45.0127C13.8336 36.789 7.16503 31.5016 5.4372 28.9854C5.52457 28.9994 14.7389 34.1782 21.7469 35.7444C23.1552 36.0592 24.5793 36.3267 26.023 36.449C27.4904 36.5958 29.228 36.5621 30.5551 35.9074C31.1066 35.6353 33.1273 34.4092 32.605 32.013Z" fill="white"/>
<path d="M35.0107 20.3343H38.1821C38.4558 21.0059 38.8164 21.5655 39.2641 22.0132C40.3835 23.1326 41.8261 23.6922 43.5922 23.6922C45.1841 23.6922 46.3532 23.431 47.0994 22.9087C47.8705 22.3863 48.256 21.7148 48.256 20.8939C48.256 20.4462 48.0943 20.0607 47.771 19.7373C47.4725 19.4139 46.975 19.1279 46.2785 18.8792C45.5821 18.6304 44.9602 18.4439 44.413 18.3195C43.8907 18.1703 43.1196 17.9961 42.0998 17.7971C37.9956 16.9514 35.9435 15.1232 35.9435 12.3125C35.9435 10.8449 36.5653 9.61369 37.809 8.61874C39.0527 7.59892 40.7939 7.08901 43.0325 7.08901C45.8184 7.08901 48.0197 8.02177 49.6365 9.8873C50.2832 10.733 50.7558 11.6658 51.0543 12.6856H47.8829C47.659 12.1881 47.3357 11.728 46.9128 11.3051C45.9676 10.3599 44.6742 9.8873 43.0325 9.8873C41.7142 9.8873 40.6944 10.136 39.973 10.6335C39.2766 11.131 38.9284 11.6906 38.9284 12.3125C38.9284 12.7602 39.0776 13.1458 39.3761 13.4691C39.6994 13.7925 40.2093 14.0785 40.9058 14.3273C41.6023 14.576 42.2117 14.775 42.734 14.9242C43.2813 15.0486 44.0648 15.2103 45.0846 15.4093C49.1888 16.255 51.2408 18.0832 51.2408 20.8939C51.2408 22.4858 50.5692 23.8166 49.2261 24.8862C47.8829 25.9557 46.0049 26.4905 43.5922 26.4905C40.5576 26.4905 38.2195 25.4707 36.5778 23.431C35.8813 22.5356 35.359 21.5033 35.0107 20.3343Z" fill="white"/>
<path d="M51.7918 10.2604V7.46212H54.2169V3.35795H57.2018V7.46212H63.1715V10.2604H57.2018V23.3191H63.358V26.1174H54.2169V10.2604H51.7918Z" fill="white"/>
<path d="M66.7247 23.7295C64.9836 21.864 64.113 19.5507 64.113 16.7898C64.113 14.0288 64.9836 11.728 66.7247 9.8873C68.4659 8.02177 70.5802 7.08901 73.0675 7.08901C74.6346 7.08901 75.9529 7.38749 77.0224 7.98446C78.1169 8.58143 78.9128 9.22815 79.4103 9.92461L79.7461 10.4843H79.7834V7.46212H82.7683V26.1174H79.7834V23.1326H79.7461L79.4103 23.6549C78.9626 24.3265 78.1915 24.9732 77.0971 25.5951C76.0026 26.192 74.6594 26.4905 73.0675 26.4905C70.5802 26.4905 68.4659 25.5702 66.7247 23.7295ZM68.8887 11.8275C67.6948 13.1209 67.0978 14.775 67.0978 16.7898C67.0978 18.8045 67.6948 20.4586 68.8887 21.7521C70.1076 23.0455 71.6248 23.6922 73.4406 23.6922C75.2564 23.6922 76.7613 23.0455 77.9552 21.7521C79.174 20.4586 79.7834 18.8045 79.7834 16.7898C79.7834 14.775 79.174 13.1209 77.9552 11.8275C76.7613 10.534 75.2564 9.8873 73.4406 9.8873C71.6248 9.8873 70.1076 10.534 68.8887 11.8275Z" fill="white"/>
<path d="M86.1393 26.1174V7.46212H89.1242V10.447H89.1615C89.5097 9.82512 89.9326 9.30277 90.4301 8.87992C91.6489 7.81035 93.1413 7.46212 94.9073 7.46212H97.146V10.2604H94.9073C93.2159 10.2604 91.823 10.8076 90.7285 11.9021C89.659 12.9716 89.1242 14.3521 89.1242 16.0435V26.1174H86.1393Z" fill="white"/>
<path d="M96.7685 10.2604V7.46212H99.1937V3.35795H102.179V7.46212H108.148V10.2604H102.179V23.3191H108.335V26.1174H99.1937V10.2604H96.7685Z" fill="white"/>
<path d="M111.813 23.7295C109.998 21.8889 109.09 19.5756 109.09 16.7898C109.09 14.0039 109.998 11.6906 111.813 9.84999C113.629 8.00934 115.893 7.08901 118.604 7.08901C121.315 7.08901 123.579 7.9969 125.394 9.81268C127.21 11.6285 128.118 13.892 128.118 16.6032V17.7225H112.075C112.274 19.4637 112.982 20.8939 114.201 22.0132C115.42 23.1326 116.888 23.6922 118.604 23.6922C120.445 23.6922 122.024 23.1326 123.342 22.0132C123.939 21.5158 124.412 20.9561 124.76 20.3343H127.745C127.297 21.5033 126.663 22.5356 125.842 23.431C123.902 25.4707 121.489 26.4905 118.604 26.4905C115.893 26.4905 113.629 25.5702 111.813 23.7295ZM112.149 15.1108H124.947C124.723 13.6432 124.039 12.412 122.895 11.417C121.75 10.3972 120.32 9.8873 118.604 9.8873C116.888 9.8873 115.445 10.3972 114.276 11.417C113.107 12.412 112.398 13.6432 112.149 15.1108Z" fill="white"/>
<path d="M131.918 23.7295C130.127 21.8889 129.232 19.5756 129.232 16.7898C129.232 14.0039 130.127 11.6906 131.918 9.84999C133.709 8.00934 135.923 7.08901 138.559 7.08901C141.619 7.08901 144.044 8.18345 145.835 10.3723C146.606 11.3424 147.166 12.4244 147.514 13.6184H144.529C144.255 12.9468 143.845 12.3249 143.298 11.7528C142.104 10.5091 140.524 9.8873 138.559 9.8873C136.743 9.8873 135.226 10.534 134.007 11.8275C132.813 13.1209 132.216 14.775 132.216 16.7898C132.216 18.8045 132.838 20.4586 134.082 21.7521C135.326 23.0455 136.818 23.6922 138.559 23.6922C140.599 23.6922 142.228 23.0082 143.447 21.6401C143.994 21.068 144.417 20.384 144.715 19.5881H147.7C147.377 20.8566 146.805 22.0132 145.984 23.0579C144.094 25.3463 141.619 26.4905 138.559 26.4905C135.923 26.4905 133.709 25.5702 131.918 23.7295Z" fill="white"/>
<path d="M149.582 26.1174V0H152.567V10.2604H152.604C152.977 9.66344 153.462 9.14109 154.059 8.69337C155.427 7.62379 157.044 7.08901 158.91 7.08901C161.173 7.08901 162.976 7.81035 164.32 9.25302C165.688 10.6708 166.372 12.6234 166.372 15.1108V26.1174H163.387V15.2973C163.387 13.5064 162.939 12.1632 162.044 11.2678C161.148 10.3475 159.917 9.8873 158.35 9.8873C156.634 9.8873 155.241 10.4594 154.171 11.6036C153.102 12.7229 152.567 14.2029 152.567 16.0435V26.1174H149.582Z" fill="white"/>
<path d="M107.692 38.8753H109.935C110.129 39.3503 110.384 39.7461 110.701 40.0628C111.492 40.8545 112.513 41.2503 113.762 41.2503C114.888 41.2503 115.714 41.0656 116.242 40.6961C116.788 40.3267 117.06 39.8517 117.06 39.2711C117.06 38.9544 116.946 38.6818 116.717 38.4531C116.506 38.2243 116.154 38.022 115.662 37.8461C115.169 37.6702 114.729 37.5382 114.342 37.4503C113.973 37.3447 113.427 37.2216 112.706 37.0808C109.803 36.4827 108.352 35.1896 108.352 33.2016C108.352 32.1636 108.792 31.2928 109.671 30.589C110.551 29.8677 111.782 29.5071 113.366 29.5071C115.336 29.5071 116.893 30.1668 118.037 31.4863C118.494 32.0844 118.828 32.7442 119.04 33.4655H116.796C116.638 33.1136 116.409 32.7882 116.11 32.4891C115.442 31.8205 114.527 31.4863 113.366 31.4863C112.433 31.4863 111.712 31.6622 111.202 32.0141C110.709 32.3659 110.463 32.7618 110.463 33.2016C110.463 33.5183 110.569 33.7909 110.78 34.0197C111.008 34.2484 111.369 34.4507 111.862 34.6266C112.354 34.8025 112.785 34.9433 113.155 35.0488C113.542 35.1368 114.096 35.2512 114.817 35.3919C117.72 35.9901 119.171 37.2831 119.171 39.2711C119.171 40.3971 118.696 41.3383 117.746 42.0948C116.796 42.8513 115.468 43.2295 113.762 43.2295C111.615 43.2295 109.962 42.5082 108.8 41.0656C108.308 40.4322 107.938 39.7021 107.692 38.8753Z" fill="white"/>
<path d="M94.8841 41.2768C93.6526 39.9573 93.0369 38.3212 93.0369 36.3683C93.0369 34.4155 93.6526 32.7882 94.8841 31.4863C96.1156 30.1669 97.611 29.5071 99.3703 29.5071C100.479 29.5071 101.42 29.7182 102.194 30.1405C102.968 30.5627 103.522 31.0113 103.856 31.4863L104.094 31.8822H104.12V24.4932H106.232V42.9657H104.12V40.8545H104.094L103.856 41.224C103.54 41.699 102.994 42.1564 102.22 42.5962C101.446 43.0185 100.496 43.2296 99.3703 43.2296C97.611 43.2296 96.1156 42.5786 94.8841 41.2768ZM96.4147 32.8586C95.5702 33.7734 95.148 34.9433 95.148 36.3683C95.148 37.7934 95.5702 38.9633 96.4147 39.8781C97.2767 40.793 98.3499 41.2504 99.6342 41.2504C100.918 41.2504 101.983 40.793 102.827 39.8781C103.689 38.9633 104.12 37.7934 104.12 36.3683C104.12 34.9433 103.689 33.7734 102.827 32.8586C101.983 31.9437 100.918 31.4863 99.6342 31.4863C98.3499 31.4863 97.2767 31.9437 96.4147 32.8586Z" fill="white"/>
<path d="M85.1234 42.9658V29.7711H87.2346V31.8822H87.2609C87.5072 31.4424 87.8063 31.073 88.1582 30.7739C89.0202 30.0174 90.0758 29.6392 91.3249 29.6392H92.9083V31.7503H91.3249C90.1286 31.7503 89.1434 32.1373 88.3693 32.9114C87.6128 33.6679 87.2346 34.6443 87.2346 35.8406V42.9658H85.1234Z" fill="white"/>
<path d="M71.3912 41.2767C70.1597 39.9572 69.5439 38.3211 69.5439 36.3683C69.5439 34.4155 70.1597 32.7881 71.3912 31.4863C72.6227 30.1668 74.1181 29.5071 75.8774 29.5071C76.9857 29.5071 77.9181 29.7182 78.6746 30.1404C79.4487 30.5627 80.0117 31.0201 80.3636 31.5127L80.6011 31.9085H80.6275V29.771H82.7386V42.9656H80.6275V40.8545H80.6011L80.3636 41.2239C80.0469 41.6989 79.5015 42.1564 78.7274 42.5962C77.9533 43.0184 77.0033 43.2295 75.8774 43.2295C74.1181 43.2295 72.6227 42.5786 71.3912 41.2767ZM72.9218 32.8585C72.0773 33.7733 71.6551 34.9433 71.6551 36.3683C71.6551 37.7933 72.0773 38.9632 72.9218 39.8781C73.7838 40.7929 74.857 41.2503 76.1413 41.2503C77.4255 41.2503 78.4899 40.7929 79.3344 39.8781C80.1964 38.9632 80.6275 37.7933 80.6275 36.3683C80.6275 34.9433 80.1964 33.7733 79.3344 32.8585C78.4899 31.9437 77.4255 31.4863 76.1413 31.4863C74.857 31.4863 73.7838 31.9437 72.9218 32.8585Z" fill="white"/>
<path d="M50.1381 29.771H52.3812L54.7562 40.9864H55.4159L57.659 29.771H61.4855L63.7285 40.9864H64.3883L66.7633 29.771H69.0064L66.1036 42.9656H62.0132L59.7702 31.7502H59.3743L57.1312 42.9656H53.0409L50.1381 29.771Z" fill="white"/>
<path d="M37.4615 41.2767C36.23 39.9572 35.6143 38.3211 35.6143 36.3683C35.6143 34.4155 36.23 32.7881 37.4615 31.4863C38.693 30.1668 40.1884 29.5071 41.9477 29.5071C43.056 29.5071 43.9885 29.7182 44.745 30.1404C45.519 30.5627 46.082 31.0201 46.4339 31.5127L46.6714 31.9085H46.6978V29.771H48.8089V42.9656H46.6978V40.8545H46.6714L46.4339 41.2239C46.1172 41.6989 45.5718 42.1564 44.7977 42.5962C44.0236 43.0184 43.0736 43.2295 41.9477 43.2295C40.1884 43.2295 38.693 42.5786 37.4615 41.2767ZM38.9921 32.8585C38.1476 33.7733 37.7254 34.9433 37.7254 36.3683C37.7254 37.7933 38.1476 38.9632 38.9921 39.8781C39.8541 40.7929 40.9273 41.2503 42.2116 41.2503C43.4959 41.2503 44.5602 40.7929 45.4047 39.8781C46.2667 38.9632 46.6978 37.7933 46.6978 36.3683C46.6978 34.9433 46.2667 33.7733 45.4047 32.8585C44.5602 31.9437 43.4959 31.4863 42.2116 31.4863C40.9273 31.4863 39.8541 31.9437 38.9921 32.8585Z" fill="white"/>
</svg>
