<svg width="23" height="24" viewBox="0 0 23 24" fill="none" xmlns="http://www.w3.org/2000/svg">
<g clip-path="url(#clip0_2669_2446)">
<path d="M11.4996 0.5C7.09866 0.5 3.51826 4.08092 3.51826 8.48202C3.51826 12.7185 10.7599 22.6163 11.0683 23.0354L11.356 23.4271C11.3897 23.4731 11.4433 23.5 11.4996 23.5C11.5569 23.5 11.6101 23.4731 11.6441 23.4271L11.9317 23.0354C12.2403 22.6163 19.4817 12.7185 19.4817 8.48202C19.4817 4.08092 15.9008 0.5 11.4996 0.5ZM11.4996 5.62288C13.0765 5.62288 14.3588 6.90519 14.3588 8.48202C14.3588 10.058 13.0765 11.3412 11.4996 11.3412C9.92369 11.3412 8.6405 10.058 8.6405 8.48202C8.6405 6.90519 9.92363 5.62288 11.4996 5.62288Z" fill="#154359"/>
</g>
<defs>
<clipPath id="clip0_2669_2446">
<rect width="23" height="23" fill="white" transform="translate(0 0.5)"/>
</clipPath>
</defs>
</svg>
