<svg width="46" height="16" viewBox="0 0 46 16" fill="none" xmlns="http://www.w3.org/2000/svg">
<path d="M18.8687 7.47168L19.0033 7.60576C18.9596 7.56004 18.9149 7.51483 18.8687 7.47168Z" fill="white"/>
<path d="M8.22509 6.45001V7.49441C7.36614 6.68324 6.20564 6.1875 4.92339 6.1875C2.25973 6.1875 0.121094 8.32613 0.121094 10.9898C0.121094 13.6534 2.25973 15.7921 4.92339 15.7921C6.20564 15.7921 7.36614 15.2963 8.22509 14.4852V15.5671H9.72567V6.45001H8.22509ZM4.92339 14.2915C3.08528 14.2915 1.6222 12.8284 1.6222 10.9898C1.6222 9.15117 3.08528 7.68809 4.92339 7.68809C6.76149 7.68809 8.22509 9.18919 8.22509 10.9898C8.22509 12.7904 6.762 14.2915 4.92339 14.2915Z" fill="white"/>
<path d="M33.2241 15.6418H31.7795V0.897461H33.2241V15.6418Z" fill="white"/>
<path d="M45.4078 10.9521C45.4078 13.6157 43.2697 15.7544 40.6055 15.7544C39.3238 15.7544 38.1627 15.2586 37.3043 14.4474C36.3786 13.5741 35.8032 12.3335 35.8032 10.9521V6.93782H34.3062V5.43672H35.8032V0.897461H37.3043V5.43672H40.5951V6.93782H37.3043V10.9521C37.3043 12.7902 38.7674 14.2538 40.6055 14.2538C42.4436 14.2538 43.9072 12.7907 43.9072 10.9521H45.4078Z" fill="white"/>
<path d="M19.0585 7.65997L19.057 7.6615C19.0401 7.64315 19.0228 7.62429 19.0045 7.60645L19.0585 7.65997Z" fill="white"/>
<path d="M30.6679 11.5964C30.6967 11.3857 30.7111 11.171 30.7111 10.9527C30.7111 8.30032 28.5606 6.15039 25.9088 6.15039C23.257 6.15039 21.1065 8.30032 21.1065 10.9527C21.1065 13.605 23.2564 15.755 25.9088 15.755C28.0151 15.755 29.8049 14.3982 30.4522 12.5113H28.8196C28.2632 13.5485 27.1684 14.2539 25.9088 14.2539C24.3055 14.2539 22.9693 13.1113 22.6703 11.5964H30.6679ZM22.6703 10.309C22.9693 8.7935 24.3055 7.65098 25.9088 7.65098C27.5121 7.65098 28.8483 8.7935 29.1473 10.309H22.6703Z" fill="white"/>
<path d="M20.0031 15.6418H18.5585V0.897461H20.0031V15.6418Z" fill="white"/>
<path fill-rule="evenodd" clip-rule="evenodd" d="M15.2154 14.3536C17.0612 14.3536 18.5575 12.8572 18.5575 11.0114C18.5575 9.16558 17.0612 7.66925 15.2154 7.66925C13.3696 7.66925 11.8732 9.16558 11.8732 11.0114C11.8732 12.8572 13.3696 14.3536 15.2154 14.3536ZM15.2154 15.7953C17.8574 15.7953 19.9992 13.6535 19.9992 11.0114C19.9992 8.36935 17.8574 6.22754 15.2154 6.22754C12.5733 6.22754 10.4315 8.36935 10.4315 11.0114C10.4315 13.6535 12.5733 15.7953 15.2154 15.7953Z" fill="white"/>
</svg>
