<svg width="256" height="256" viewBox="0 0 256 256" fill="none" xmlns="http://www.w3.org/2000/svg">
<rect width="256" height="256" rx="30" fill="#0B6376"/>
<path d="M83.0352 139.926C80.4147 138.497 77.7113 141.746 79.5461 144.103C87.6954 154.558 98.5824 162.511 107.947 171.888C127.5 189.705 147.02 207.283 165.441 226.277C167.173 228.062 165.87 231.048 163.387 230.999C162.25 230.975 161.103 230.951 159.951 230.965C159.463 230.956 158.858 230.673 158.521 230.316C150.392 221.686 142.169 213.138 133.117 205.459C120.981 195.257 108.469 185.5 96.6987 174.864C80.6978 161.418 62.5448 146.357 59.0703 124.539C59.0557 124.456 59.0459 124.373 59.0362 124.29C58.3676 116.811 67.1074 113.869 73.4073 117.294C80.7758 120.928 88.1346 124.597 95.5129 128.212C117.765 139.058 140.915 148.938 165.582 152.646C166.622 152.802 168.559 152.86 169.15 151.499C169.701 150.221 169.711 148.991 168.569 147.962C143.355 125.231 104.936 116.772 83.572 88.694C83.5232 88.6305 83.4793 88.5671 83.4354 88.4988C71.4993 70.4765 85.8021 53.8348 105.951 58.738C124.216 62.0898 140.847 76.9019 159.507 73.6818C168.662 72.1011 162.171 61.9044 158.531 58.1525C149.791 48.2485 141.232 38.4031 132.356 28.6454C130.731 26.8695 131.999 24.0057 134.415 24.0008C138.255 23.991 142.096 24.074 145.946 24.0593C146.468 24.0593 147.137 24.3423 147.493 24.718C157.77 36.5394 170.638 46.7751 177.079 61.3774C182.354 72.3206 175.718 83.7273 164.304 86.6254C143.516 91.4749 122.923 77.4824 102.442 74.2283C100.09 73.8526 98.353 76.4042 99.612 78.4289C109.059 93.6216 142.862 111.561 155.803 121.28C165.338 127.646 174.913 133.965 184.375 140.439C188.127 143.01 191.49 146.103 194.169 149.835C200.639 158.242 195.227 168.551 185.927 170.97C181.501 172.283 176.967 172.444 172.419 172.093C148.81 170.307 126.451 161.608 105.238 151.558C97.4014 147.777 90.6965 144.225 83.1084 139.966C83.0889 139.951 83.0645 139.941 83.0401 139.931L83.0352 139.926Z" fill="white"/>
</svg>
