<svg width="689" height="274" viewBox="0 0 689 274" fill="none" xmlns="http://www.w3.org/2000/svg">
<path d="M1.66305 138.322L127.355 25.3493C127.722 25.0193 128.198 24.8367 128.692 24.8367H186.629C187.16 24.8367 187.669 24.6257 188.044 24.2502L210.685 1.58649C211.06 1.21099 211.569 1 212.1 1H681C684.866 1 688 4.134 688 8V108.338C688 108.842 687.809 109.328 687.466 109.698L558.692 248.523C558.313 248.931 557.782 249.163 557.225 249.163H496.497C495.92 249.163 495.371 249.412 494.991 249.847L475.35 272.316C474.97 272.751 474.421 273 473.844 273H8C4.13401 273 1 269.866 1 266V139.81C1 139.242 1.24103 138.702 1.66305 138.322Z" fill="#488492" fill-opacity="0.2" stroke="white" stroke-width="0.6"/>
</svg>
