<svg width="299" height="186" viewBox="0 0 299 186" fill="none" xmlns="http://www.w3.org/2000/svg">
<path opacity="0.7" d="M50.8597 17.0713V20.1429L55.9163 23.2146H80.1341V17.0713H50.8597Z" fill="white"/>
<path d="M59.6751 21.0485V19.3842C59.6751 18.6377 59.9812 18.2583 60.5811 18.2583C61.1811 18.2583 61.4994 18.6377 61.4994 19.3842V21.0485C61.4994 21.4034 61.4259 21.6848 61.2913 21.8806C61.1566 22.0764 60.9117 22.1743 60.5811 22.1743C59.9812 22.1743 59.6751 21.795 59.6751 21.0485ZM61.0219 21.6848C61.1076 21.538 61.1443 21.3299 61.1443 21.0852V19.3719C61.1443 19.1149 61.1076 18.9069 61.0219 18.7723C60.9362 18.6254 60.7893 18.552 60.5811 18.552C60.373 18.552 60.2261 18.6254 60.1526 18.7723C60.0669 18.9191 60.0302 19.1149 60.0302 19.3719V21.0852C60.0302 21.6359 60.2138 21.9174 60.5934 21.9174C60.8015 21.9174 60.9484 21.8439 61.0341 21.6971L61.0219 21.6848Z" fill="black"/>
<path d="M63.0421 21.6113H63.4094V22.1375H63.0421V21.6113Z" fill="black"/>
<path d="M64.8419 21.0974C64.8419 20.8894 64.8664 20.718 64.9154 20.5957C64.9644 20.461 65.0378 20.3631 65.1113 20.302C65.1847 20.2285 65.2827 20.1796 65.3929 20.1184C65.2337 20.0572 65.099 19.9471 65.0133 19.8002C64.9276 19.6534 64.8787 19.4576 64.8787 19.225C64.8787 18.9313 64.9521 18.6988 65.0868 18.5275C65.2215 18.3562 65.4419 18.2705 65.7479 18.2705C66.054 18.2705 66.2622 18.3562 66.3969 18.5275C66.5315 18.6988 66.605 18.9436 66.605 19.2373C66.605 19.6901 66.4336 19.9838 66.0908 20.1306C66.201 20.1796 66.2867 20.2408 66.3724 20.3142C66.4458 20.3876 66.5193 20.4855 66.5683 20.6079C66.6172 20.7425 66.654 20.9016 66.654 21.1096C66.654 21.8194 66.3601 22.1866 65.7602 22.1866C65.1603 22.1866 64.8542 21.8317 64.8542 21.1096L64.8419 21.0974ZM66.1642 21.697C66.2499 21.5624 66.2989 21.3666 66.2989 21.0974C66.2989 20.5712 66.1152 20.302 65.7357 20.2775C65.5398 20.2897 65.3929 20.3754 65.2949 20.51C65.2092 20.6568 65.1603 20.8527 65.1603 21.0974C65.1603 21.3666 65.2092 21.5747 65.3072 21.697C65.4051 21.8317 65.5398 21.8929 65.7357 21.8929C65.9316 21.8929 66.0663 21.8317 66.152 21.697H66.1642ZM66.2622 19.2128C66.2622 18.9925 66.2254 18.8212 66.1397 18.7111C66.054 18.6009 65.9316 18.5397 65.7479 18.5397C65.3929 18.5397 65.2215 18.76 65.2215 19.2128C65.2215 19.6901 65.3929 19.9471 65.7479 19.9593C66.0908 19.9471 66.2622 19.6901 66.2622 19.2128Z" fill="black"/>
<path d="M68.1844 21.0485V19.3842C68.1844 18.6377 68.4905 18.2583 69.0904 18.2583C69.6903 18.2583 70.0087 18.6377 70.0087 19.3842V21.0485C70.0087 21.4034 69.9352 21.6848 69.8005 21.8806C69.6536 22.0764 69.421 22.1743 69.0904 22.1743C68.4905 22.1743 68.1844 21.795 68.1844 21.0485ZM69.5312 21.6848C69.6169 21.538 69.6536 21.3299 69.6536 21.0852V19.3719C69.6536 19.1149 69.6169 18.9069 69.5312 18.7723C69.4455 18.6254 69.2986 18.552 69.0904 18.552C68.8823 18.552 68.7354 18.6254 68.6619 18.7723C68.5762 18.9191 68.5395 19.1149 68.5395 19.3719V21.0852C68.5395 21.6359 68.7231 21.9174 69.1027 21.9174C69.3108 21.9174 69.4577 21.8439 69.5434 21.6971L69.5312 21.6848Z" fill="black"/>
<path d="M73.3634 19.4822V18.9437C73.3634 18.7112 73.4124 18.5276 73.4981 18.4052C73.5838 18.2829 73.7429 18.2217 73.9388 18.2217C74.1347 18.2217 74.2816 18.2829 74.3796 18.4052C74.4653 18.5276 74.5143 18.6989 74.5143 18.9315V19.4822C74.5143 19.9717 74.3184 20.2164 73.9388 20.2164C73.5593 20.2164 73.3511 19.9717 73.3511 19.4822H73.3634ZM74.147 19.8248C74.1837 19.7391 74.2082 19.629 74.2082 19.4944V18.9315C74.2082 18.7846 74.1837 18.6867 74.147 18.601C74.1102 18.5276 74.0368 18.4909 73.9388 18.4909C73.8409 18.4909 73.7674 18.5276 73.7307 18.601C73.694 18.6745 73.6695 18.7846 73.6695 18.9315V19.4944C73.6695 19.6412 73.694 19.7514 73.7307 19.8248C73.7674 19.8982 73.8409 19.9472 73.9388 19.9472C74.0368 19.9472 74.1102 19.9105 74.147 19.8248ZM75.3591 18.2584H75.6652L74.4531 22.1255H74.1347L75.3468 18.2584H75.3591ZM75.2856 21.4157V20.8895C75.2856 20.657 75.3346 20.4734 75.4203 20.351C75.506 20.2287 75.6529 20.1675 75.8611 20.1675C76.0692 20.1675 76.2161 20.2287 76.3018 20.351C76.3875 20.4734 76.4365 20.6447 76.4365 20.8772V21.4279C76.4365 21.9174 76.2406 22.1622 75.8488 22.1622C75.457 22.1622 75.2734 21.9174 75.2734 21.4279L75.2856 21.4157ZM76.0692 21.7706C76.1059 21.6849 76.1304 21.5748 76.1304 21.4279V20.865C76.1304 20.7182 76.1059 20.608 76.0692 20.5346C76.0325 20.4612 75.959 20.4245 75.8611 20.4245C75.7631 20.4245 75.6897 20.4612 75.6529 20.5346C75.6162 20.608 75.5917 20.7182 75.5917 20.865V21.4279C75.5917 21.5748 75.6162 21.6849 75.6529 21.7706C75.6897 21.8563 75.7631 21.893 75.8611 21.893C75.959 21.893 76.0325 21.8563 76.0692 21.7706Z" fill="black"/>
<path d="M80.1463 24.7935H55.7939V26.0172H80.1463V24.7935Z" fill="white"/>
<path opacity="0.7" d="M151.343 166.628V169.7L156.411 172.771H180.617V166.628H151.343Z" fill="white"/>
<path d="M160.158 170.593V168.929C160.158 168.182 160.464 167.803 161.064 167.803C161.664 167.803 161.982 168.182 161.982 168.929V170.593C161.982 170.948 161.909 171.229 161.774 171.425C161.627 171.621 161.395 171.719 161.064 171.719C160.464 171.719 160.158 171.339 160.158 170.593ZM161.505 171.229C161.591 171.082 161.627 170.874 161.627 170.63V168.916C161.627 168.659 161.591 168.451 161.505 168.317C161.419 168.17 161.272 168.096 161.064 168.096C160.856 168.096 160.709 168.17 160.636 168.317C160.55 168.464 160.513 168.659 160.513 168.916V170.63C160.513 171.18 160.697 171.462 161.076 171.462C161.284 171.462 161.431 171.388 161.517 171.242L161.505 171.229Z" fill="black"/>
<path d="M163.525 171.156H163.892V171.67H163.525V171.156Z" fill="black"/>
<path d="M165.325 170.654C165.325 170.446 165.349 170.275 165.398 170.152C165.447 170.018 165.521 169.92 165.594 169.859C165.668 169.785 165.766 169.724 165.876 169.675C165.717 169.614 165.582 169.504 165.496 169.357C165.411 169.21 165.362 169.014 165.362 168.782C165.362 168.488 165.435 168.255 165.57 168.084C165.704 167.913 165.925 167.827 166.231 167.827C166.537 167.827 166.745 167.913 166.88 168.084C167.014 168.255 167.088 168.5 167.088 168.794C167.088 169.247 166.916 169.54 166.574 169.687C166.684 169.736 166.77 169.797 166.855 169.871C166.929 169.944 167.002 170.042 167.051 170.165C167.1 170.299 167.137 170.458 167.137 170.666C167.137 171.376 166.843 171.743 166.243 171.743C165.643 171.743 165.337 171.388 165.337 170.666L165.325 170.654ZM166.647 171.254C166.733 171.119 166.782 170.923 166.782 170.654C166.782 170.128 166.598 169.859 166.219 169.834C166.023 169.846 165.876 169.932 165.778 170.067C165.692 170.213 165.643 170.409 165.643 170.654C165.643 170.923 165.692 171.131 165.79 171.254C165.888 171.388 166.023 171.45 166.219 171.45C166.414 171.45 166.549 171.388 166.635 171.254H166.647ZM166.745 168.769C166.745 168.549 166.708 168.378 166.623 168.268C166.537 168.158 166.414 168.096 166.231 168.096C165.876 168.096 165.704 168.317 165.704 168.769C165.704 169.247 165.876 169.504 166.231 169.516C166.574 169.504 166.745 169.247 166.745 168.769Z" fill="black"/>
<path d="M168.667 170.593V168.929C168.667 168.182 168.973 167.803 169.573 167.803C170.173 167.803 170.492 168.182 170.492 168.929V170.593C170.492 170.948 170.418 171.229 170.283 171.425C170.137 171.621 169.904 171.719 169.573 171.719C168.973 171.719 168.667 171.339 168.667 170.593ZM170.014 171.229C170.1 171.082 170.137 170.874 170.137 170.63V168.916C170.137 168.659 170.1 168.451 170.014 168.317C169.928 168.17 169.781 168.096 169.573 168.096C169.365 168.096 169.218 168.17 169.145 168.317C169.059 168.464 169.022 168.659 169.022 168.916V170.63C169.022 171.18 169.206 171.462 169.586 171.462C169.794 171.462 169.941 171.388 170.026 171.242L170.014 171.229Z" fill="black"/>
<path d="M173.846 169.039V168.5C173.846 168.268 173.895 168.084 173.981 167.962C174.067 167.84 174.226 167.778 174.422 167.778C174.618 167.778 174.765 167.84 174.863 167.962C174.948 168.084 174.997 168.268 174.997 168.488V169.039C174.997 169.528 174.801 169.773 174.422 169.773C174.042 169.773 173.834 169.528 173.834 169.039H173.846ZM174.63 169.381C174.667 169.296 174.691 169.186 174.691 169.051V168.488C174.691 168.341 174.667 168.243 174.63 168.158C174.593 168.084 174.52 168.048 174.422 168.048C174.324 168.048 174.25 168.084 174.214 168.158C174.177 168.231 174.152 168.341 174.152 168.488V169.051C174.152 169.198 174.177 169.308 174.214 169.381C174.25 169.467 174.324 169.504 174.422 169.504C174.52 169.504 174.593 169.467 174.63 169.381ZM175.842 167.815H176.148L174.936 171.682H174.63L175.842 167.815ZM175.769 170.972V170.446C175.769 170.214 175.818 170.03 175.903 169.908C175.989 169.785 176.136 169.724 176.344 169.724C176.552 169.724 176.699 169.785 176.785 169.908C176.87 170.03 176.919 170.201 176.919 170.434V170.985C176.919 171.474 176.724 171.719 176.332 171.719C175.94 171.719 175.756 171.474 175.756 170.985L175.769 170.972ZM176.552 171.327C176.589 171.242 176.613 171.131 176.613 170.985V170.422C176.613 170.275 176.589 170.165 176.552 170.091C176.515 170.018 176.442 169.981 176.344 169.981C176.246 169.981 176.173 170.018 176.136 170.091C176.099 170.165 176.075 170.275 176.075 170.422V170.985C176.075 171.131 176.099 171.242 176.136 171.327C176.173 171.413 176.246 171.45 176.344 171.45C176.442 171.45 176.515 171.413 176.552 171.327Z" fill="black"/>
<path d="M180.629 174.337H156.277V175.561H180.629V174.337Z" fill="white"/>
<g opacity="0.5">
<path d="M47.847 153.619L49.8427 153.778C55.5604 153.252 58.3642 151.869 63.4575 147.023C63.8371 145.836 64.3023 144.22 64.6207 143.009C59.6375 149.385 55.3033 153.166 47.8592 153.607" fill="white"/>
<path d="M73.3626 124.041C72.077 128.103 69.9099 134.92 65.7471 141.357C65.4655 142.654 65.0492 144.38 64.6819 145.652C69.1508 139.949 72.0403 135.054 75.4195 124.114C74.7338 124.09 74.0482 124.065 73.3626 124.028" fill="white"/>
<path d="M61.3149 139.472C56.3195 147.084 51.2629 152.273 42.8638 152.823C43.8678 153.019 45.2024 153.264 46.2063 153.411C52.7689 152.811 58.1683 150.351 64.841 139.925C63.7758 139.803 62.3678 139.619 61.3149 139.472Z" fill="white"/>
<path d="M71.4525 105.488C70.3016 115.242 68.4896 126.684 61.6332 138.946C62.6861 139.093 64.1064 139.276 65.1593 139.399C69.7996 130.906 73.2646 121.899 75.0766 105.598C73.9869 105.562 72.5422 105.525 71.4525 105.488Z" fill="white"/>
<path d="M68.2203 65.4221C70.7424 75.2367 72.8973 86.7891 71.526 104.729C72.6157 104.766 74.0604 104.803 75.1501 104.84C75.8725 94.4498 76.2765 81.9552 71.8076 65.1284C70.7302 65.2141 69.2854 65.3242 68.208 65.4221" fill="white"/>
<path d="M53.9932 153.607C53.2464 153.68 52.2546 153.827 51.4955 153.839H52.977C54.0912 153.815 55.5726 153.766 56.6868 153.692L58.254 153.497C56.8337 153.57 55.4135 153.546 53.9932 153.607Z" fill="white"/>
<path d="M56.9194 152.799C56.197 153.019 55.2298 153.362 54.4952 153.509C57.2377 153.509 57.2867 153.509 58.7559 153.399C59.4783 153.191 60.47 152.958 61.1802 152.689C59.9436 152.75 58.3029 152.824 57.0663 152.799C57.0174 152.799 56.9684 152.799 56.9194 152.799Z" fill="white"/>
<path d="M59.7599 151.428C59.0621 151.783 58.1438 152.297 57.4092 152.603C60.1517 152.603 60.2007 152.603 61.6699 152.505C62.3678 152.15 63.3351 151.734 64.0085 151.331C62.7719 151.392 61.1312 151.453 59.8946 151.428C59.8456 151.428 59.7967 151.416 59.7477 151.428" fill="white"/>
<path d="M62.478 149.531C61.8046 150.021 60.9353 150.694 60.2252 151.147C62.9678 151.147 63.0168 151.147 64.4737 151.049C65.1471 150.572 66.0776 149.96 66.7266 149.446C65.49 149.507 63.8493 149.568 62.6127 149.544C62.576 149.544 62.5148 149.531 62.4658 149.544" fill="white"/>
<path d="M65.0737 147.145C64.4247 147.757 63.6044 148.589 62.931 149.164C65.6736 149.164 65.7226 149.164 67.1795 149.067C67.8285 148.467 68.71 147.684 69.3222 147.047C68.0856 147.096 66.4449 147.17 65.2206 147.145C65.1716 147.145 65.1226 147.133 65.0737 147.145Z" fill="white"/>
<path d="M67.5224 144.281C66.9102 145.004 66.1388 145.995 65.4899 146.692C68.2325 146.692 68.2815 146.692 69.7384 146.594C70.3506 145.872 71.1832 144.93 71.7586 144.184C69.065 144.294 69.0161 144.294 67.5224 144.269" fill="white"/>
<path d="M69.8241 140.977C69.2609 141.809 68.5263 142.947 67.9264 143.755C70.6567 143.755 70.7179 143.755 72.1749 143.67C72.7504 142.837 73.5339 141.748 74.0727 140.904C71.3913 141.002 71.3301 141.014 69.8364 140.989" fill="white"/>
<path d="M71.9545 137.257C71.4281 138.187 70.7547 139.46 70.1915 140.378C72.934 140.378 72.983 140.378 74.4277 140.292C74.9542 139.362 75.6888 138.126 76.1786 137.184C73.4972 137.281 73.4483 137.282 71.9423 137.257" fill="white"/>
<path d="M73.9013 133.157C73.4238 134.185 72.8116 135.58 72.2974 136.584C75.0277 136.584 75.0889 136.584 76.5336 136.511C77.0111 135.483 77.6845 134.124 78.1375 133.084C75.4562 133.17 75.4072 133.17 73.9013 133.157Z" fill="white"/>
<path d="M77.2927 64.9205C85.8265 98.0845 78.0274 123.074 74.2808 132.276C77.0111 132.276 77.0724 132.276 78.5171 132.203C89.8424 102.661 84.394 75.3347 81.529 64.9572C78.8599 64.896 78.8109 64.896 77.305 64.9082" fill="white"/>
<path d="M74.1706 121.532C74.0115 122.156 73.84 122.768 73.6686 123.38L75.6154 123.453L76.1174 121.605L74.1706 121.544" fill="white"/>
<path d="M74.7461 119.182C74.5992 119.818 74.44 120.455 74.2808 121.079L76.2275 121.14C76.3867 120.516 76.5459 119.88 76.6928 119.243L74.7461 119.182Z" fill="white"/>
<path d="M75.2725 116.772L74.8563 118.705C75.5052 118.73 76.1541 118.754 76.803 118.766C76.9499 118.13 77.0846 117.481 77.2193 116.82C76.5704 116.808 75.9215 116.784 75.2725 116.759" fill="white"/>
<path d="M75.7378 114.312C75.6153 114.972 75.4929 115.633 75.3582 116.294L77.3049 116.343L77.6845 114.36L75.7378 114.312Z" fill="white"/>
<path d="M76.1663 111.803C76.0561 112.488 75.9459 113.161 75.8358 113.822L77.7825 113.871C77.9049 113.198 78.0151 112.525 78.1131 111.839L76.1541 111.803" fill="white"/>
<path d="M76.5213 109.245L76.2397 111.313C76.8887 111.326 77.5498 111.35 78.1865 111.362C78.2844 110.677 78.3824 109.992 78.4803 109.294C77.8314 109.294 77.1825 109.27 76.5213 109.257" fill="white"/>
<path d="M76.8397 106.639C76.7663 107.348 76.6806 108.046 76.5948 108.744L78.5538 108.78L78.7987 106.675L76.852 106.651" fill="white"/>
<path d="M77.0846 103.983C77.0234 104.693 76.9621 105.415 76.8887 106.112L78.8476 106.137C78.9211 105.427 78.9823 104.717 79.0435 103.995L77.0846 103.971" fill="white"/>
<path d="M77.2683 101.291L77.1213 103.457C77.7825 103.457 78.4314 103.469 79.0803 103.481C79.1415 102.759 79.1905 102.037 79.2272 101.303C78.5783 101.303 77.9294 101.303 77.2683 101.291Z" fill="white"/>
<path d="M77.4029 98.5615L77.3049 100.764L79.2639 100.777L79.3619 98.5738L77.4029 98.5615Z" fill="white"/>
<path d="M77.4763 95.7959C77.4763 96.5424 77.4519 97.2889 77.4274 98.0231H79.3863C79.4108 97.2889 79.4231 96.5424 79.4353 95.7959H77.4763Z" fill="white"/>
<path d="M77.4764 93.0181V95.2575C78.1375 95.2575 78.7864 95.2575 79.4353 95.2575C79.4353 95.2331 79.4353 95.2208 79.4353 95.1964C79.4353 94.4621 79.4353 93.7401 79.4353 93.0181C78.7864 93.0181 78.1375 93.0181 77.4764 93.0181Z" fill="white"/>
<path d="M77.4152 90.2647L77.4641 92.4797L79.4231 92.4675L79.3741 90.2524L77.4152 90.2647Z" fill="white"/>
<path d="M77.2927 87.5479C77.3295 88.2699 77.3662 88.9919 77.3907 89.7262C78.0518 89.7262 78.7007 89.7262 79.3496 89.7262L79.2517 87.5356L77.2927 87.5601" fill="white"/>
<path d="M77.1213 84.8677L77.2683 87.0215C77.9294 87.0215 78.5783 87.0093 79.2272 87.0093C79.1783 86.2873 79.1293 85.5653 79.0803 84.8555C78.4314 84.8555 77.7825 84.8677 77.1213 84.8799" fill="white"/>
<path d="M76.8765 82.2247L77.0724 84.354L79.0313 84.3173L78.8354 82.188L76.8765 82.2247Z" fill="white"/>
<path d="M76.5826 79.6178C76.6683 80.3153 76.754 81.0006 76.8275 81.7104L78.7864 81.6737L78.5416 79.5811L76.5948 79.6178" fill="white"/>
<path d="M76.2275 77.0602L76.5214 79.1161C77.1703 79.1038 77.8314 79.0916 78.4681 79.0794C78.3824 78.3818 78.2844 77.6965 78.1742 77.0234C77.5253 77.0234 76.8764 77.0479 76.2153 77.0724" fill="white"/>
<path d="M75.8112 74.5514L76.1418 76.5706L78.1008 76.5217L77.7702 74.5024L75.8112 74.5514Z" fill="white"/>
<path d="M75.3582 72.0915C75.4929 72.7401 75.6153 73.4009 75.7378 74.0617L77.6845 74.0128L77.3049 72.0303L75.3582 72.0915Z" fill="white"/>
<path d="M74.8318 69.6808L75.2481 71.6144C75.897 71.5899 76.5459 71.5654 77.1948 71.5532C77.0601 70.9046 76.9254 70.256 76.7785 69.6196C76.1296 69.6319 75.4807 69.6563 74.8318 69.6808Z" fill="white"/>
<path d="M74.2686 67.319L74.7338 69.2158L76.6805 69.1424L76.2153 67.2578L74.2686 67.319Z" fill="white"/>
<path d="M73.6564 65.0305C73.8278 65.6424 73.9869 66.2543 74.1584 66.8661C74.8073 66.8417 75.4562 66.8172 76.1051 66.7927L75.6031 64.9448L73.6564 65.0183" fill="white"/>
<path d="M73.534 65.0308L75.5909 64.9451C72.7014 55.5589 70.8036 51.4348 66.3715 44.8876C64.8288 43.7373 62.7351 42.2443 61.1068 41.2041C65.3185 45.9156 69.4324 51.2879 73.534 65.0308Z" fill="white"/>
<path d="M48.1286 34.7177C51.1283 35.0726 54.8625 35.5132 59.8334 39.9677C61.4741 40.9222 63.6167 42.2806 65.1839 43.3453C60.4334 38.0096 56.797 35.1827 50.112 34.5464L48.1163 34.7055" fill="white"/>
<path d="M53.7606 39.8944C59.3804 45.022 63.9962 51.3366 68.2203 65.4344C69.2977 65.3365 70.7424 65.2141 71.8199 65.1407C68.5386 54.5062 64.8043 46.05 57.2133 39.3438C56.1726 39.5028 54.8013 39.7109 53.7606 39.8944Z" fill="white"/>
<path d="M53.3688 39.5761C54.3973 39.3925 55.7808 39.16 56.8092 39.0131C52.9525 36.3331 49.7692 34.473 43.7821 35.0604L41.4436 35.4398L39.3254 35.8681C42.472 35.4275 47.2225 34.7667 53.3566 39.5761" fill="white"/>
<path d="M76.0439 60.894C76.4234 62.1056 76.9499 63.6965 77.2927 64.908C80.0353 64.908 80.0843 64.908 81.5168 64.9569C81.1495 63.7576 80.6842 62.1423 80.2802 60.943C77.6111 60.8696 77.5498 60.8696 76.0439 60.894Z" fill="white"/>
<path d="M74.3542 56.3542C74.7828 57.4801 75.3827 58.9731 75.7745 60.1112C78.5171 60.1112 78.566 60.1112 80.0108 60.1601C79.5822 59.0343 79.0435 57.529 78.5905 56.4154C75.9092 56.342 75.8602 56.3298 74.3542 56.3542Z" fill="white"/>
<path d="M72.4565 52.1567C72.934 53.1969 73.5952 54.5675 74.0482 55.6199C76.7908 55.6199 76.8397 55.6199 78.2845 55.6811C77.807 54.6409 77.207 53.2458 76.6928 52.2178C74.0115 52.1322 73.9625 52.1322 72.4565 52.1567Z" fill="white"/>
<path d="M70.3629 48.3261C70.8893 49.2684 71.6117 50.5166 72.1137 51.4834C74.8562 51.4834 74.9052 51.4834 76.35 51.5446C75.8235 50.6023 75.1623 49.3173 74.6114 48.3995C71.93 48.3016 71.8688 48.3016 70.3751 48.3261" fill="white"/>
<path d="M68.11 44.8994C68.6733 45.7438 69.4691 46.8452 70.0078 47.7141C72.7504 47.7141 72.7993 47.7141 74.2441 47.7875C73.6809 46.9431 72.9585 45.7928 72.3586 44.9728C69.665 44.8749 69.616 44.8627 68.1223 44.8994" fill="white"/>
<path d="M65.6736 41.9136C66.2858 42.6478 67.1183 43.6024 67.6938 44.3611C70.4363 44.3611 70.4853 44.3611 71.9423 44.4345C71.3424 43.7003 70.5588 42.6968 69.9221 41.987C67.2285 41.8769 67.1795 41.8769 65.6736 41.9014" fill="white"/>
<path d="M63.1147 39.3804C63.7636 40.0045 64.6451 40.8 65.2573 41.4486C67.9999 41.4486 68.0488 41.4486 69.5058 41.5342C68.8692 40.9101 68.0366 40.0535 67.3632 39.4661C64.6696 39.3559 64.6084 39.3437 63.1147 39.3804Z" fill="white"/>
<path d="M60.3966 37.3368C61.07 37.8386 62.0005 38.4627 62.6494 38.9889C65.392 38.9889 65.4409 38.9889 66.8979 39.0746C66.2245 38.5728 65.3552 37.8753 64.6451 37.4225C61.9393 37.3001 61.8903 37.3001 60.3843 37.3368" fill="white"/>
<path d="M57.5806 35.8317C58.2907 36.1988 59.2579 36.6394 59.9313 37.0554C62.6616 37.0554 62.7229 37.0554 64.1921 37.1411C63.482 36.774 62.5637 36.2355 61.8413 35.9173C59.1233 35.795 59.0743 35.795 57.5806 35.8194" fill="white"/>
<path d="M56.9807 35.5868C59.7232 35.5868 59.7722 35.5868 61.2414 35.6847C59.8579 35.2564 57.9602 34.8158 56.5277 34.6078L54.4708 34.4977L52.3404 34.4609L50.8344 34.4854C52.3036 34.5711 54.3116 34.669 55.7073 35.1462C56.0869 35.2809 56.5889 35.5256 56.9807 35.5868Z" fill="white"/>
<path d="M46.7083 34.73L47.8225 34.7055C48.4469 34.6443 49.0713 34.5953 49.6957 34.5464L48.6183 34.5709H48.4714L46.7083 34.73Z" fill="white"/>
<path d="M46.4389 34.7424C46.7573 34.7057 47.0756 34.6812 47.3939 34.6567L46.8552 34.7057L46.1206 34.7791L46.4389 34.7546" fill="white"/>
<path d="M40.66 152.664L39.203 152.407L41.4681 152.86L43.6597 153.215L43.9902 153.264C42.9985 153.093 41.664 152.848 40.6722 152.652" fill="white"/>
</g>
<path d="M52.9892 153.998C53.8218 153.974 54.9359 153.937 55.7807 153.888L56.699 153.852C55.5848 153.901 54.1034 153.986 52.9892 153.998Z" fill="white"/>
<path d="M33.326 38.6463C36.3869 36.8841 36.5706 36.7739 39.3376 36.0152L41.4558 35.5869L43.7943 35.2075C40.9171 35.8561 39.4723 36.1743 36.5706 38.0711C35.5911 38.2302 34.2933 38.4505 33.326 38.6463Z" fill="white"/>
<path d="M17.8135 62.7912C21.3519 52.6339 25.2698 44.6795 32.9588 38.8911C33.926 38.7075 35.2238 38.475 36.1911 38.3281C30.3754 42.8805 25.5514 48.7179 20.8866 62.473C19.9561 62.5587 18.7317 62.681 17.8135 62.7912Z" fill="white"/>
<path d="M25.9922 62.2283C29.9223 50.9207 36.7787 35.7583 50.8221 34.6202L52.3281 34.5957L54.4584 34.6324L56.5154 34.7426C45.0554 34.8772 36.2278 44.1411 30.2897 62.2773C27.5104 62.2038 27.4614 62.2038 25.9799 62.2283" fill="white"/>
<path d="M48.4714 34.7305L48.6183 34.7183H48.5816L48.4714 34.7305Z" fill="white"/>
<path d="M45.337 35.0241L46.1206 34.9262L46.8552 34.8528L47.3939 34.8039C47.7 34.7794 48.0061 34.7549 48.3244 34.7427L47.2225 34.8773C46.5981 34.914 45.9736 34.963 45.3492 35.0364" fill="white"/>
<path d="M43.978 35.2934C44.333 35.2078 44.7003 35.1221 45.0676 35.0609L46.9409 34.9141L45.8512 35.1466L43.978 35.2934Z" fill="white"/>
<path d="M42.6434 35.6848L43.7209 35.3544C44.3453 35.2932 44.9575 35.2442 45.5941 35.2075C45.2391 35.3054 44.8718 35.4156 44.5167 35.5379C43.8923 35.5746 43.2679 35.6236 42.6434 35.6848Z" fill="white"/>
<path d="M41.3211 36.1987L42.3863 35.7826C43.0107 35.7214 43.6229 35.6725 44.2473 35.6357L43.1821 36.0518C42.5577 36.0885 41.9333 36.1375 41.3211 36.1987Z" fill="white"/>
<path d="M40.0233 36.8229C40.3661 36.6394 40.709 36.4681 41.064 36.309L42.925 36.1621L41.8843 36.6761L40.0233 36.8229Z" fill="white"/>
<path d="M38.7499 37.557L39.7784 36.9574C40.3906 36.8962 41.015 36.8473 41.6394 36.8105C41.2966 36.9941 40.9538 37.2022 40.611 37.4102L38.7499 37.557Z" fill="white"/>
<path d="M37.5011 38.4137L38.5051 37.7284C39.1173 37.6672 39.7417 37.6183 40.3661 37.5815L39.3621 38.2669C38.7377 38.3036 38.1255 38.3525 37.5133 38.4137" fill="white"/>
<path d="M36.2768 39.3563C36.6073 39.0871 36.9257 38.8301 37.2563 38.5853L39.105 38.4385L38.1133 39.2094L36.2645 39.3563" fill="white"/>
<path d="M35.0769 40.421L36.0441 39.5643C36.6563 39.5031 37.2685 39.4542 37.8929 39.4175C37.5746 39.6989 37.244 39.9804 36.9257 40.2741C36.3013 40.3108 35.6891 40.3598 35.0769 40.4087" fill="white"/>
<path d="M33.9015 41.5711L34.8442 40.6288C35.4564 40.5676 36.0686 40.5186 36.693 40.4941L35.7503 41.4364C35.1258 41.4732 34.5137 41.5221 33.9015 41.5711Z" fill="white"/>
<path d="M32.7629 42.8315C33.069 42.4766 33.3751 42.1462 33.6811 41.8158L35.5299 41.6812L34.6117 42.6969L32.7751 42.8315" fill="white"/>
<path d="M31.6487 44.1779L32.5425 43.0887C33.1546 43.0275 33.7668 42.9908 34.379 42.9541C34.0729 43.309 33.7791 43.6761 33.4852 44.0555L31.6487 44.1901" fill="white"/>
<path d="M30.5713 45.6219L31.4406 44.4593C32.0528 44.4104 32.6649 44.3614 33.2771 44.3247L32.4078 45.4995C31.7956 45.5362 31.1835 45.5729 30.5713 45.6219Z" fill="white"/>
<path d="M29.5306 47.1636C29.7999 46.7352 30.0815 46.3314 30.3631 45.9276L32.1997 45.8052L31.3549 47.0534L29.5306 47.1758" fill="white"/>
<path d="M28.5143 48.779L29.3224 47.4695C29.9223 47.4206 30.5345 47.3839 31.1467 47.3472C30.8773 47.7755 30.608 48.216 30.3386 48.6566C29.7264 48.6811 29.1143 48.73 28.5021 48.779" fill="white"/>
<path d="M27.5471 50.4925L28.3307 49.1097C28.9306 49.0607 29.5428 49.024 30.155 48.9873C29.8856 49.4401 29.6285 49.9051 29.3714 50.3702C28.7592 50.3946 28.1471 50.4313 27.5471 50.4803" fill="white"/>
<path d="M26.6044 52.2793C26.8492 51.7898 27.0941 51.3125 27.3512 50.8352L29.1755 50.7251L28.4287 52.1691L26.6044 52.2793Z" fill="white"/>
<path d="M25.7105 54.1515C25.9432 53.6375 26.188 53.1358 26.4207 52.6463C27.0206 52.5973 27.6328 52.5606 28.245 52.5361C28.0001 53.0256 27.7675 53.5396 27.5226 54.0536C26.9104 54.0781 26.2982 54.1148 25.6983 54.1637" fill="white"/>
<path d="M24.8535 56.0852L25.5392 54.5188C26.1391 54.4698 26.7513 54.4454 27.3634 54.4209C27.1308 54.9349 26.8982 55.4611 26.6778 55.9996C26.0656 56.024 25.4535 56.0607 24.8535 56.0975" fill="white"/>
<path d="M24.0455 58.1044C24.2536 57.5537 24.474 57.0153 24.6944 56.4768L26.5187 56.3789L25.8698 58.0065L24.0577 58.1044" fill="white"/>
<path d="M23.2741 60.1969C23.47 59.6217 23.6781 59.071 23.8863 58.5081C24.4862 58.4713 25.0862 58.4346 25.7106 58.4102C25.5024 58.9609 25.2943 59.5238 25.0984 60.099C24.4862 60.1234 23.874 60.1479 23.2864 60.1846" fill="white"/>
<path d="M22.5518 62.3508L23.1272 60.613C23.7271 60.5763 24.3271 60.5518 24.9393 60.5273C24.7434 61.1025 24.5475 61.6777 24.3638 62.2773C23.7516 62.3018 23.1517 62.3263 22.5518 62.363" fill="white"/>
<path d="M22.4538 62.363C23.0904 62.3263 23.7271 62.2896 24.376 62.2773C21.5233 71.994 20.5927 77.4153 19.8214 88.6495C19.1725 91.0358 18.3644 94.2176 17.8012 96.6162C17.8257 84.868 18.6093 75.029 22.4538 62.363Z" fill="white"/>
<path d="M21.2417 122.229C20.103 117.506 18.3767 110.371 17.887 99.5775C18.4012 97.1912 19.1236 94.0094 19.7113 91.6353C19.6868 102.441 20.2255 110.542 23.1517 122.303C22.5028 122.278 21.8661 122.254 21.2417 122.229Z" fill="white"/>
<path d="M13.4303 101.609C13.0018 91.2683 12.9528 78.8961 17.8257 62.7913C18.744 62.6812 19.9806 62.5588 20.8988 62.4731C18.2787 71.4189 15.5484 82.5551 16.4667 101.695C15.5607 101.67 14.3363 101.646 13.4303 101.621" fill="white"/>
<path d="M22.3926 136.964C18.0339 128.067 14.8506 118.803 13.4915 102.466C14.3975 102.49 15.6219 102.527 16.5279 102.551C17.4217 112.537 18.9277 124.273 25.5269 137.404C24.5842 137.282 23.3353 137.111 22.4048 136.964" fill="white"/>
<path d="M41.4558 153.019L39.1907 152.567C35.9584 151.575 29.2367 149.532 22.6497 137.465C23.5924 137.612 24.8413 137.796 25.784 137.918C29.6407 144.49 34.5137 151.661 43.6474 153.387L41.4558 153.032" fill="white"/>
<path d="M24.7923 66.3159C25.1474 65.0921 25.6004 63.44 25.9922 62.2285C28.7225 62.2285 28.7837 62.2285 30.3019 62.2775C29.9468 63.5012 29.4326 65.1288 29.102 66.3526C26.3227 66.2914 26.2615 66.2914 24.7923 66.3037" fill="white"/>
<path d="M23.5679 71.5045C23.8618 70.2073 24.2413 68.4695 24.5719 67.1846C27.3022 67.1846 27.3512 67.1846 28.8816 67.2335C28.5755 68.5307 28.147 70.2562 27.8777 71.5534C25.0984 71.5045 25.0372 71.5045 23.5679 71.5167" fill="white"/>
<path d="M22.5884 76.9503C22.8211 75.5919 23.1149 73.7685 23.3843 72.4102C26.1146 72.4102 26.1636 72.4102 27.694 72.4469C27.4614 73.8053 27.1063 75.6164 26.8982 76.9748C25.0045 76.9503 23.5679 76.9422 22.5884 76.9503Z" fill="white"/>
<path d="M21.8784 82.6285C22.0498 81.209 22.2457 79.3121 22.4538 77.8926C24.3067 77.8926 25.7432 77.9007 26.7635 77.917C26.5921 79.3366 26.335 81.2212 26.1881 82.6408C24.2944 82.6245 22.8578 82.6163 21.8784 82.6163" fill="white"/>
<path d="M21.4498 88.5025C21.5478 87.034 21.6579 85.0759 21.7926 83.6074C24.474 83.6074 24.5719 83.6074 26.1024 83.6319C26.0044 85.1004 25.833 87.0584 25.7595 88.527C23.8659 88.5188 22.4252 88.5188 21.4376 88.527" fill="white"/>
<path d="M21.3029 94.5477C21.3273 93.0425 21.3396 91.0233 21.4008 89.5181C23.8128 89.5181 24.1801 89.5181 25.7105 89.5181C25.6861 91.0233 25.6126 93.0425 25.6126 94.5477C24.1801 94.5477 22.7354 94.5477 21.3029 94.5477Z" fill="white"/>
<path d="M21.462 100.556C21.4131 99.0634 21.3274 97.0687 21.3151 95.5757C22.7599 95.5757 24.1924 95.5757 25.6371 95.5757C25.6861 97.0687 25.7106 99.0512 25.784 100.544C23.8904 100.544 22.4538 100.544 21.4743 100.544" fill="white"/>
<path d="M21.9028 106.394C21.7804 104.95 21.5968 103.016 21.511 101.56C24.2414 101.56 24.3026 101.56 25.8208 101.56C25.9432 103.004 26.0657 104.938 26.2126 106.382C24.3189 106.398 22.8823 106.402 21.9028 106.394Z" fill="white"/>
<path d="M22.6252 112.023C22.4416 110.628 22.16 108.756 22.0008 107.361C24.7311 107.361 24.7801 107.361 26.3105 107.349C26.4942 108.744 26.7146 110.616 26.9349 112.011C24.1434 112.048 24.0944 112.048 22.6252 112.036" fill="white"/>
<path d="M49.2427 153.864C31.0365 150.143 24.6943 124.151 22.8088 113.149C24.6699 113.149 26.1064 113.141 27.1186 113.125C33.5464 147.341 47.7245 152.958 53.5157 153.778C51.8138 153.851 49.8916 153.937 49.2427 153.864Z" fill="white"/>
<path d="M22.0498 124.738C21.8661 124.139 21.6947 123.539 21.5355 122.927L23.3476 123.001L23.8618 124.812C23.2496 124.787 22.6497 124.763 22.0498 124.726" fill="white"/>
<path d="M22.7354 126.929C22.5395 126.354 22.3558 125.766 22.1722 125.167L23.9842 125.252C24.1679 125.852 24.3515 126.439 24.5474 127.014L22.7354 126.929Z" fill="white"/>
<path d="M23.47 129.07L22.8823 127.357C23.4823 127.394 24.0822 127.418 24.6944 127.443C24.8903 128.018 25.0862 128.593 25.2943 129.156C24.6821 129.131 24.0699 129.107 23.4823 129.07" fill="white"/>
<path d="M24.2413 131.126C24.021 130.588 23.8128 130.025 23.6047 129.474C24.2046 129.511 24.8045 129.548 25.4167 129.572L26.0411 131.236C25.429 131.212 24.829 131.175 24.2291 131.138" fill="white"/>
<path d="M25.0739 133.121C24.8535 132.595 24.6209 132.069 24.4128 131.518L26.2371 131.616C26.4575 132.154 26.6778 132.693 26.9105 133.219L25.0862 133.109" fill="white"/>
<path d="M25.931 135.042L25.2331 133.5C25.833 133.549 26.433 133.574 27.0574 133.598C27.29 134.125 27.5226 134.639 27.7553 135.14C27.1431 135.116 26.5309 135.079 25.931 135.03" fill="white"/>
<path d="M26.837 136.89C26.5921 136.401 26.3472 135.911 26.1024 135.41L27.9266 135.52L28.6613 137.001C28.0491 136.976 27.4369 136.939 26.837 136.89Z" fill="white"/>
<path d="M27.7797 138.652C27.5226 138.187 27.2655 137.722 27.0206 137.245L28.8449 137.355C29.0898 137.833 29.3469 138.31 29.604 138.775L27.7797 138.652Z" fill="white"/>
<path d="M28.7592 140.329L27.9634 138.983C28.5633 139.032 29.1755 139.069 29.7877 139.105C30.0448 139.558 30.3141 140.011 30.5835 140.451C29.9713 140.427 29.3591 140.378 28.7592 140.329Z" fill="white"/>
<path d="M29.7755 141.932C29.4939 141.516 29.2245 141.087 28.9551 140.659L30.7917 140.782L31.612 142.054C30.9998 142.018 30.3876 141.981 29.7877 141.932" fill="white"/>
<path d="M30.8284 143.437C30.5468 143.046 30.2529 142.642 29.9836 142.226L31.8201 142.348C32.1017 142.764 32.3833 143.168 32.6772 143.559L30.8406 143.425" fill="white"/>
<path d="M31.918 144.857L31.0365 143.719C31.6364 143.768 32.2486 143.817 32.873 143.853C33.1669 144.245 33.4607 144.624 33.7546 144.991C33.1301 144.955 32.518 144.918 31.918 144.857Z" fill="white"/>
<path d="M33.0322 146.178L32.1262 145.126L33.9628 145.261L34.8688 146.313C34.2444 146.276 33.6322 146.227 33.0322 146.178Z" fill="white"/>
<path d="M34.1953 147.402C33.877 147.084 33.5709 146.766 33.2648 146.423L35.1136 146.558C35.4197 146.901 35.7258 147.219 36.0441 147.537L34.1953 147.39" fill="white"/>
<path d="M35.3708 148.528L34.4158 147.635C35.0279 147.696 35.6401 147.745 36.2523 147.782C36.5706 148.088 36.889 148.394 37.2073 148.687C36.5829 148.65 35.9707 148.602 35.3585 148.54" fill="white"/>
<path d="M36.5706 149.556L35.6034 148.736L37.4522 148.883L38.4317 149.703C37.8072 149.666 37.1951 149.617 36.5829 149.556" fill="white"/>
<path d="M37.8072 150.474C37.4766 150.241 37.1461 149.997 36.8155 149.74L38.6643 149.887L39.656 150.621L37.8072 150.474Z" fill="white"/>
<path d="M39.0683 151.294L38.0521 150.646C38.6642 150.707 39.2764 150.756 39.9008 150.792C40.2437 151.025 40.5742 151.233 40.9171 151.441C40.2926 151.404 39.6805 151.355 39.056 151.294" fill="white"/>
<path d="M40.3538 151.992L39.3254 151.441L41.1864 151.588L42.2271 152.138C41.6027 152.102 40.9783 152.053 40.3661 151.979" fill="white"/>
<path d="M41.6639 152.579C41.3088 152.432 40.9538 152.285 40.611 152.114L42.472 152.273L43.5249 152.738L41.6639 152.579Z" fill="white"/>
<path d="M42.9985 153.056L41.9333 152.689C42.5455 152.75 43.1699 152.799 43.7943 152.848C44.1494 152.983 44.5044 153.105 44.8717 153.215C44.2473 153.178 43.6229 153.13 42.9985 153.056Z" fill="white"/>
<path d="M44.3453 153.411L43.2556 153.129L45.1289 153.288L46.2186 153.558L44.3453 153.411Z" fill="white"/>
<path d="M45.7165 153.631C45.3492 153.582 44.9819 153.521 44.6146 153.46L46.4879 153.619L47.5898 153.79L45.7165 153.631Z" fill="white"/>
<g opacity="0.5">
<path d="M183.2 65.7036C192.726 102.943 182.368 144.624 161.897 151.477L162.178 151.404C164.398 150.727 166.055 150.184 167.149 149.776C188.428 139.974 195.064 96.8607 186.58 66.3155C185.119 66.03 183.988 65.826 183.188 65.7036" fill="white"/>
<path d="M178.266 112.745C176.736 120.871 174.63 130.355 168.9 139.974C169.573 139.913 170.467 139.84 171.14 139.766C174.385 134.015 178.046 126.709 180.458 112.66C179.797 112.684 178.915 112.721 178.254 112.745M183.041 103.665C182.172 112.195 180.813 122.217 175.879 133.439L176.944 133.292C179.723 126.635 182.796 118.301 184.082 103.628L183.041 103.665ZM180.727 65.3858L182.172 65.5571C191.808 103.237 181.217 145.175 160.378 151.857L158.248 152.334C161.995 151.245 163.133 150.743 166.77 147.892C166.402 147.965 166.035 148.027 165.668 148.1C161.823 151.062 160.819 151.563 156.718 152.64L154.563 152.983C157.685 152.285 163.5 150.976 169.892 141.7C169.157 141.785 168.398 141.859 167.639 141.92C162.925 148.308 158.579 152.444 151.453 153.35C147.976 153.583 147.902 153.595 145.992 153.595L143.862 153.558C142.87 153.521 141.891 153.46 140.923 153.362H142.123C143.788 153.411 146.004 153.423 147.657 153.411C148.661 153.166 149.996 152.86 150.963 152.518C150.277 152.273 149.371 151.894 148.698 151.588C149.641 151.037 150.902 150.291 151.796 149.654C153.412 149.385 155.567 148.981 157.183 148.651C158.064 147.794 159.24 146.668 160.06 145.75C159.289 145.212 158.273 144.465 157.526 143.903C159.717 140.819 160.305 139.986 162.68 135.459C164.198 134.822 166.194 133.953 167.688 133.268C168.3 131.763 169.108 129.768 169.659 128.238C168.741 127.406 167.516 126.293 166.61 125.448C167.284 123.099 168.104 119.941 168.68 117.567C170.051 116.71 171.875 115.536 173.222 114.63C173.528 112.758 173.932 110.249 174.177 108.364C173.099 107.373 171.655 106.064 170.577 105.085C170.687 103.543 170.859 101.487 170.945 99.9449C172.181 98.9414 173.81 97.5953 175.022 96.5673C175.022 94.5236 175.022 91.7824 174.973 89.7387C173.748 88.7352 172.095 87.4013 170.859 86.4223C170.675 84.2685 170.418 81.3804 170.161 79.2388C171.214 78.272 172.61 76.9993 173.663 76.0326C173.332 74.2091 172.891 71.7738 172.512 69.9627C171.128 69.106 169.279 67.9802 167.884 67.1603L167.32 65.0799C169.977 64.982 172.279 64.8963 175.989 65.0431C177.923 72.6183 178.756 76.9626 179.515 86.251C180.176 86.251 181.046 86.2755 181.707 86.2877C180.984 77.8804 180.335 73.4382 178.193 65.1778L179.699 65.3001C182.417 75.9102 183.874 85.0517 183.286 100.385C183.641 100.385 183.984 100.373 184.327 100.361C184.78 86.3734 183.849 77.2196 180.752 65.398" fill="white"/>
<path d="M136.577 152.714C137.226 152.848 137.875 152.958 138.524 153.056C143.984 152.799 147.804 151.551 153.608 145.383C154.55 142.471 154.587 142.361 155.016 140.488C150.914 146.35 145.76 152.616 136.589 152.714" fill="white"/>
<path d="M163.868 117.946C162.337 124.139 160.905 129.976 156.216 138.506C155.481 141.993 155.469 142.054 154.954 143.743C159.534 137.343 162.974 130.82 165.986 118.093C165.288 118.056 164.578 118.007 163.868 117.946Z" fill="white"/>
<path d="M162.656 65.3857C163.047 66.9399 163.598 69.008 163.954 70.5744C166.304 75.4695 166.341 75.5674 167.48 78.4188C166.855 74.466 166.206 70.3909 164.762 65.2144L162.656 65.3857Z" fill="white"/>
<path d="M164.823 113.112L166.941 113.222C168.447 103.139 169.084 94.7191 167.859 81.5636C165.839 76.3381 165.802 76.228 164.541 73.5112C165.704 80.5968 167.884 93.7768 164.811 113.112" fill="white"/>
<path d="M132.255 151.355C131.961 151.355 131.667 151.355 131.373 151.355C132.414 151.698 133.479 152.004 134.544 152.261C134.838 152.261 135.144 152.261 135.438 152.261C134.483 152.004 133.234 151.49 132.255 151.355Z" fill="white"/>
<path d="M133.785 151.233L132.879 151.319C133.834 151.6 135.108 151.979 136.075 152.224L136.993 152.126C136.026 151.869 134.777 151.319 133.785 151.221" fill="white"/>
<path d="M135.304 150.951L134.41 151.135C135.377 151.416 136.663 151.796 137.63 152.04L138.536 151.857C137.556 151.6 136.308 151 135.304 150.951Z" fill="white"/>
<path d="M136.785 150.511L135.904 150.792C136.871 151.074 138.169 151.441 139.148 151.698C139.442 151.612 139.748 151.514 140.042 151.416C139.062 151.159 137.789 150.511 136.785 150.523" fill="white"/>
<path d="M138.254 149.923C137.973 150.058 137.679 150.18 137.385 150.29C138.364 150.572 139.662 150.939 140.654 151.184C140.948 151.074 141.242 150.951 141.536 150.817C140.544 150.56 139.27 149.85 138.254 149.923Z" fill="white"/>
<path d="M146.543 143.278C146.298 143.572 146.053 143.853 145.796 144.135C146.813 144.38 148.172 144.71 149.2 144.93L149.947 144.062C148.918 143.841 147.547 143.535 146.531 143.278" fill="white"/>
<path d="M147.768 141.724L147.045 142.654C148.074 142.899 149.433 143.217 150.473 143.425L151.196 142.483C150.167 142.263 148.784 141.969 147.768 141.724Z" fill="white"/>
<path d="M148.943 140.072L148.257 141.075C149.286 141.308 150.657 141.614 151.698 141.822C151.93 141.491 152.175 141.149 152.408 140.806C151.367 140.598 149.984 140.304 148.955 140.072" fill="white"/>
<path d="M150.069 138.297C149.849 138.664 149.629 139.019 149.408 139.362C150.449 139.582 151.832 139.888 152.873 140.084C153.106 139.729 153.326 139.374 153.546 139.007C152.506 138.811 151.11 138.53 150.082 138.31" fill="white"/>
<path d="M151.159 136.401C150.951 136.78 150.73 137.16 150.522 137.527C151.563 137.747 152.959 138.028 153.999 138.224L154.648 137.074C153.485 136.878 152.322 136.658 151.159 136.401Z" fill="white"/>
<path d="M152.849 133.072C152.653 133.488 152.457 133.904 152.261 134.308C153.314 134.504 154.71 134.773 155.763 134.945C155.971 134.529 156.167 134.112 156.362 133.696C155.31 133.513 153.902 133.28 152.849 133.072Z" fill="white"/>
<path d="M153.791 130.918C153.608 131.359 153.424 131.787 153.228 132.203C154.281 132.399 155.689 132.644 156.754 132.815L157.318 131.506C156.252 131.335 154.844 131.114 153.791 130.918Z" fill="white"/>
<path d="M154.697 128.667L154.171 130.013C155.236 130.196 156.644 130.429 157.709 130.588L158.248 129.217C157.183 129.058 155.763 128.85 154.71 128.667" fill="white"/>
<path d="M155.542 126.317L155.052 127.712C156.118 127.883 157.538 128.104 158.603 128.25C158.774 127.785 158.946 127.308 159.105 126.831C158.04 126.684 156.607 126.488 155.542 126.317Z" fill="white"/>
<path d="M156.326 123.894C156.179 124.384 156.02 124.861 155.873 125.338C156.938 125.497 158.37 125.693 159.436 125.84C159.595 125.35 159.754 124.861 159.901 124.371C158.823 124.237 157.403 124.053 156.326 123.894Z" fill="white"/>
<path d="M160.109 103.542C160.06 104.13 160.011 104.717 159.95 105.292C161.04 105.354 162.484 105.415 163.574 105.476C163.635 104.889 163.684 104.289 163.733 103.702C162.643 103.665 161.186 103.604 160.097 103.555" fill="white"/>
<path d="M160.317 100.544C160.28 101.144 160.244 101.731 160.207 102.331C161.297 102.368 162.754 102.429 163.843 102.466L163.953 100.655C162.864 100.63 161.407 100.581 160.317 100.557" fill="white"/>
<path d="M160.452 97.4971L160.391 99.3082C161.48 99.3327 162.937 99.3694 164.027 99.3939L164.1 97.5583C163.011 97.546 161.554 97.5215 160.464 97.5093" fill="white"/>
<path d="M160.501 94.4009V96.2365C161.578 96.2365 163.023 96.261 164.125 96.2732C164.125 95.8572 164.137 95.4411 164.137 95.025C164.137 94.817 164.137 94.6089 164.137 94.4009C163.047 94.4009 161.59 94.4009 160.501 94.4009Z" fill="white"/>
<path d="M160.464 91.317C160.476 91.9166 160.489 92.5285 160.489 93.1404C161.578 93.1404 163.035 93.1404 164.125 93.1282C164.125 92.504 164.113 91.8922 164.1 91.2803C163.011 91.2925 161.554 91.317 160.464 91.3292" fill="white"/>
<path d="M159.203 76.9748C159.289 77.5255 159.374 78.0884 159.448 78.6513C160.538 78.5779 161.982 78.4678 163.072 78.4066L162.815 76.7056C161.725 76.779 160.28 76.8891 159.203 76.9748Z" fill="white"/>
<path d="M158.725 74.1966L159.019 75.8364C160.097 75.7508 161.554 75.6284 162.631 75.5427L162.337 73.8784C161.26 73.9641 159.815 74.0987 158.725 74.1966Z" fill="white"/>
<path d="M158.187 71.4799L158.517 73.0831C159.595 72.9729 161.04 72.8383 162.117 72.7404C162.007 72.1897 161.897 71.6512 161.786 71.1128C160.709 71.2107 159.264 71.3575 158.187 71.4799Z" fill="white"/>
<path d="M157.575 68.8365C157.697 69.3504 157.819 69.8767 157.942 70.3906C159.019 70.2683 160.452 70.1214 161.542 70.0113C161.419 69.4851 161.297 68.9466 161.174 68.4326C160.097 68.5428 158.664 68.7018 157.587 68.8365" fill="white"/>
<path d="M156.901 66.2667C157.036 66.7685 157.171 67.2702 157.305 67.7842C158.383 67.6496 159.815 67.4783 160.893 67.3681L160.476 65.8262C159.399 65.9485 157.966 66.1321 156.901 66.2667Z" fill="white"/>
<path d="M183.2 65.7039C185.441 66.071 185.478 66.0832 186.592 66.3158C184.841 60.5885 179.491 43.1744 167.039 38.2059C166.194 37.9122 165.055 37.4961 164.198 37.2269L161.774 36.5171C171.496 39.9559 178.107 48.9628 183.2 65.7161" fill="white"/>
<path d="M160.795 38.6219C161.566 38.6831 162.325 38.7687 163.072 38.8666C159.68 36.5415 158.53 35.8317 154.428 34.9995L153.583 34.8894L151.318 34.6447C154.159 35.1219 156.84 35.5747 160.611 38.475C160.672 38.5118 160.733 38.5974 160.795 38.6219ZM160.28 36.4681C160.66 36.5293 161.027 36.6027 161.407 36.6761C160.44 36.3334 159.13 35.8684 158.126 35.6237L156.595 35.33C157.709 35.6237 159.166 36.1499 160.28 36.4558M142.27 34.6691C141.523 34.6814 140.532 34.6447 139.785 34.7181L140.519 34.6447C143.996 34.4121 144.07 34.3999 145.992 34.3999L148.123 34.4366C151.612 34.6324 151.673 34.6324 153.571 34.8772C157.011 35.3912 157.073 35.3912 158.934 35.8072L160.244 36.1132C170.198 39.3561 177.568 49.2564 182.184 65.5569L180.739 65.3856C179.221 60.4539 177.348 54.3106 172.916 47.3718L171.838 47.2005C174.079 50.9085 176.87 55.5098 179.686 65.2755L178.181 65.1531C176.332 59.1199 172.879 47.8735 164.541 40.1149C163.856 40.0415 162.95 39.9313 162.276 39.8701C165.459 43.0519 171.373 48.9872 175.977 65.0185C173.467 64.9328 171.312 64.8716 167.308 65.0552C167.125 64.3821 166.929 63.7213 166.721 63.0605C167.639 62.2161 168.863 61.0902 169.781 60.2581C169.206 58.7283 168.459 56.6969 167.822 55.1917C166.341 54.5064 164.333 53.6252 162.827 52.9889C162.154 51.6795 161.248 49.9172 160.513 48.6445C161.297 47.9837 162.362 47.1148 163.17 46.4662C162.386 45.3771 161.346 43.9208 160.513 42.8806C158.934 42.44 156.815 41.8893 155.224 41.4977C152.702 39.0747 151.979 38.4383 148.882 36.566C149.543 36.2478 150.449 35.8562 151.134 35.5992C150.143 35.281 148.82 34.8527 147.804 34.6447C146.139 34.6202 143.923 34.6447 142.258 34.6691" fill="white"/>
<path d="M162.656 65.3854L164.762 65.2141C162.068 56.4275 159.595 50.3576 154.208 43.4433C150.633 41.0692 150.498 40.9713 148.441 39.9434C152.922 44.1531 158.089 49.9415 162.656 65.3854Z" fill="white"/>
<path d="M146.959 38.7932C150.743 40.5677 150.816 40.6044 152.836 41.8893C149.971 39.1236 144.633 33.9593 136.565 35.1586L135.132 35.4034L133.957 35.6237C140.042 34.8772 141.646 35.7827 146.959 38.7932Z" fill="white"/>
<path d="M156.411 64.5779L156.84 66.0586C157.917 65.9118 159.338 65.7282 160.415 65.6058C160.268 65.1041 160.134 64.5901 159.974 64.1006C158.897 64.2352 157.477 64.4188 156.399 64.5779" fill="white"/>
<path d="M155.64 62.1429C155.799 62.6202 155.958 63.0974 156.105 63.5747C157.171 63.4156 158.603 63.2198 159.668 63.0852C159.509 62.5957 159.362 62.1062 159.191 61.6289C158.126 61.7758 156.693 61.9716 155.628 62.1429" fill="white"/>
<path d="M154.808 59.7807C154.979 60.2335 155.15 60.6985 155.31 61.1635C156.375 60.9922 157.795 60.7842 158.86 60.6373C158.689 60.16 158.53 59.695 158.346 59.23C157.281 59.3891 155.861 59.5971 154.795 59.7807" fill="white"/>
<path d="M153.914 57.5166C154.097 57.9571 154.269 58.3977 154.453 58.8505C155.518 58.6792 156.926 58.4466 157.991 58.2876L157.44 56.9414C156.375 57.1127 154.967 57.333 153.914 57.5288" fill="white"/>
<path d="M152.959 55.3385L153.522 56.6112C154.575 56.4276 155.983 56.1829 157.048 56.0115L156.473 54.7144C155.42 54.8979 154.012 55.1304 152.959 55.3385Z" fill="white"/>
<path d="M146.078 44.3125L146.813 45.1936C147.841 44.9489 149.2 44.6307 150.228 44.4104C149.984 44.1045 149.726 43.8108 149.482 43.5171C148.453 43.7496 147.094 44.0555 146.078 44.3125Z" fill="white"/>
<path d="M144.805 42.9171C145.062 43.1741 145.319 43.4433 145.564 43.7248C146.58 43.4678 147.939 43.1374 148.955 42.9171C148.698 42.6356 148.441 42.3664 148.184 42.0972C147.168 42.3297 145.809 42.6479 144.792 42.9171" fill="white"/>
<path d="M143.482 41.6691C143.752 41.9016 144.009 42.1464 144.266 42.4034C145.282 42.1464 146.629 41.8037 147.645 41.5712L146.849 40.8247C145.833 41.0695 144.486 41.3999 143.482 41.6691Z" fill="white"/>
<path d="M142.123 40.5432L142.931 41.1918C143.935 40.9225 145.27 40.5799 146.286 40.3474L145.466 39.6865C144.462 39.9313 143.127 40.2739 142.123 40.5432Z" fill="white"/>
<path d="M140.74 39.552L141.572 40.1271C142.564 39.8579 143.899 39.503 144.903 39.2583C144.621 39.0625 144.352 38.8667 144.07 38.6831C143.066 38.9279 141.744 39.2705 140.752 39.552" fill="white"/>
<path d="M138.389 38.2303L139.246 38.6586C140.225 38.3771 141.548 38.0223 142.539 37.7653L141.67 37.3247C140.678 37.5817 139.368 37.9366 138.389 38.2181" fill="white"/>
<path d="M136.92 37.6185L137.789 37.9611C138.769 37.6797 140.079 37.3125 141.058 37.0678C140.764 36.9454 140.47 36.823 140.177 36.7129C139.197 36.9699 137.887 37.3248 136.92 37.6185Z" fill="white"/>
<path d="M135.426 37.1531C135.72 37.2266 136.014 37.3122 136.32 37.4101C137.287 37.1287 138.585 36.7493 139.564 36.5045C139.27 36.4066 138.964 36.321 138.658 36.2476C137.679 36.5045 136.393 36.8594 135.426 37.1654" fill="white"/>
<path d="M133.908 36.8475C134.214 36.8965 134.508 36.9454 134.814 37.0066C135.781 36.7251 137.067 36.3458 138.034 36.0888C137.728 36.0276 137.422 35.9664 137.116 35.9297C136.148 36.1867 134.863 36.5538 133.908 36.8475Z" fill="white"/>
<path d="M132.353 36.7127L133.271 36.7739C134.226 36.4802 135.499 36.1131 136.467 35.8561L135.536 35.7949C134.581 36.0519 133.296 36.419 132.353 36.7127Z" fill="white"/>
<path d="M140.568 153.338C141.389 153.411 142.491 153.497 143.311 153.546C142.478 153.497 141.364 153.435 140.532 153.362L139.65 153.276L140.568 153.35" fill="white"/>
<path d="M136.21 152.664L133.822 152.371L135.132 152.628L136.43 152.848L138.156 153.019C137.507 152.909 136.846 152.799 136.21 152.664Z" fill="white"/>
<path d="M127.847 150.78L126.966 150.511L127.223 150.596C128.006 150.841 129.047 151.172 129.843 151.392L130.541 151.588C129.733 151.355 128.655 151.025 127.859 150.78" fill="white"/>
<path d="M129.353 151.098C129.047 151.049 128.753 150.988 128.447 150.927C129.378 151.22 130.627 151.588 131.569 151.845C131.875 151.918 132.181 151.967 132.488 152.016C131.435 151.747 130.382 151.441 129.353 151.086" fill="white"/>
<path d="M130.896 151.257C130.59 151.245 130.284 151.22 129.978 151.184C130.92 151.477 132.181 151.857 133.124 152.114L134.055 152.187C133.1 151.918 131.863 151.441 130.896 151.257Z" fill="white"/>
</g>
<path d="M162.166 151.392L161.884 151.465C160.562 151.722 158.762 151.942 157.403 151.991C158.738 151.637 160.048 151.208 161.346 150.731C164.419 150.596 164.664 150.584 167.125 149.752C163.88 150.902 163.819 150.915 162.154 151.38" fill="white"/>
<path d="M146.017 153.595C149.518 153.521 149.58 153.521 151.477 153.35L149.592 153.399C148.233 153.521 146.862 153.582 145.49 153.582C144.952 153.582 144.425 153.582 143.886 153.558L146.017 153.595ZM154.575 152.983L156.73 152.64C155.775 152.738 154.501 152.873 153.534 152.873C152.996 152.971 152.457 153.056 151.906 153.13C152.702 153.093 153.779 153.105 154.563 152.983M158.248 152.334L160.378 151.857C159.154 152.053 157.513 152.261 156.265 152.285C155.738 152.42 155.199 152.53 154.661 152.64C155.738 152.591 157.183 152.542 158.236 152.334" fill="white"/>
<path d="M133.014 63.6845C137.765 49.5256 146.604 33.3107 161.774 36.5047L164.198 37.2145C165.055 37.5082 166.194 37.8876 167.039 38.1935C150.131 33.2495 141.266 52.4504 137.483 64.3331C135.508 64.0231 134.018 63.8028 133.014 63.6723" fill="white"/>
<path d="M143.617 35.9541C146.531 34.9261 147.988 34.4121 151.318 34.6447L153.583 34.8894L154.428 34.9995C150.89 34.7915 149.604 34.7915 145.98 36.2111C145.196 36.1009 144.413 36.0153 143.629 35.9541M143.274 39.0869C147.841 35.9541 150.853 34.6691 156.607 35.3422L158.138 35.6359C153.094 35.0118 150.082 35.3789 144.462 39.2827C144.07 39.2093 143.666 39.1481 143.274 39.0747M130.027 63.3419C130.614 63.4031 131.19 63.4643 131.777 63.5255C140.36 37.9243 152.004 34.4856 160.268 36.1132L158.958 35.8072C155.628 35.1464 155.493 35.1219 153.595 34.8772C150.131 34.5223 150.069 34.51 148.147 34.4366L146.017 34.3999C142.515 34.4733 142.454 34.4733 140.544 34.6447L139.809 34.7181L137.593 35.1097C138.254 35.1586 139.124 35.2688 139.773 35.3912C138.805 35.8317 137.495 36.4069 136.565 36.9453C134.949 37.288 132.818 37.7775 131.214 38.1936C130.516 38.7565 129.561 39.4908 128.9 40.1026C129.61 40.4453 130.553 40.9348 131.239 41.3264C130.394 42.3054 129.268 43.6026 128.484 44.6306C126.215 45.4954 124.525 46.1766 123.415 46.6743C122.583 48.0326 121.493 49.856 120.734 51.2634C121.53 51.8875 122.583 52.7319 123.366 53.3683C122.729 54.8245 121.885 56.7826 121.309 58.2633C119.889 59.0588 118.028 60.1601 116.644 61.0045C116.424 61.6531 116.216 62.314 116.008 62.987C118.493 62.8769 120.636 62.7912 124.627 62.9503C126.953 55.9993 128.423 52.5116 131.986 46.7232C132.708 46.7844 133.675 46.8578 134.398 46.9312C131.178 52.2302 129.586 55.4609 127.076 63.0849C127.651 63.1217 128.227 63.1706 128.802 63.2196C132.022 53.6008 135.193 46.7722 141.817 40.3107C142.209 40.3719 142.613 40.4331 143.005 40.5065C137.85 45.6585 134.067 51.0431 130.039 63.3297" fill="white"/>
<path d="M133.614 35.6972L133.957 35.6238L135.132 35.4035L136.565 35.1465L135.548 35.3545L133.614 35.6972Z" fill="white"/>
<path d="M111.906 63.342C112.384 61.9102 113.008 60.0012 113.535 58.5816C116.314 54.4086 116.412 54.2372 118.089 52.1201C116.253 56.0362 115.249 58.19 113.706 63.1585L111.906 63.342Z" fill="white"/>
<path d="M130.982 36.5414C131.618 36.4068 132.255 36.2966 132.904 36.1987C127.737 38.7686 124.211 41.6078 119.24 49.9661C116.155 53.7598 116.093 53.8332 114.514 56.1461C120.832 42.3298 126.966 37.8631 130.982 36.5414Z" fill="white"/>
<path d="M121.444 40.5188L122.264 39.9192C123.17 39.6499 124.37 39.295 125.288 39.0503L124.456 39.6622C123.55 39.9069 122.338 40.2373 121.444 40.5188Z" fill="white"/>
<path d="M120.085 41.6445C120.342 41.412 120.611 41.1795 120.881 40.9592C121.86 40.641 122.864 40.3595 123.88 40.1025C123.611 40.3228 123.342 40.5553 123.072 40.7878C122.056 41.0326 121.064 41.3141 120.085 41.6322" fill="white"/>
<path d="M118.775 42.8927C119.032 42.6357 119.289 42.3787 119.546 42.1339C120.44 41.8769 121.628 41.5343 122.521 41.3018C122.252 41.5465 121.995 41.8035 121.738 42.0727C120.844 42.3052 119.656 42.6234 118.775 42.8927Z" fill="white"/>
<path d="M117.501 44.2756C117.746 43.9941 118.003 43.7127 118.248 43.4434C119.13 43.1864 120.317 42.856 121.211 42.6357L120.452 43.4801C119.571 43.7127 118.383 44.0186 117.501 44.2756Z" fill="white"/>
<path d="M116.265 45.7811L116.987 44.8755C117.942 44.5818 118.922 44.3126 119.926 44.0801L119.191 44.9979C118.31 45.2182 117.134 45.5241 116.265 45.7689" fill="white"/>
<path d="M110.865 54.7269L111.465 53.5031C112.322 53.2951 113.461 53.0258 114.318 52.8545C114.11 53.2583 113.914 53.6744 113.718 54.1027C112.861 54.2863 111.722 54.5311 110.878 54.7269" fill="white"/>
<path d="M109.91 56.868C110.094 56.4397 110.278 56.0114 110.474 55.5831C111.318 55.3873 112.457 55.1303 113.302 54.9712C113.106 55.3995 112.922 55.8278 112.726 56.2684C111.882 56.4397 110.743 56.6722 109.898 56.868" fill="white"/>
<path d="M108.992 59.1078C109.164 58.655 109.347 58.2145 109.519 57.7739C110.363 57.5904 111.49 57.3456 112.335 57.1865L111.796 58.5449C110.951 58.704 109.825 58.9243 108.98 59.1078" fill="white"/>
<path d="M108.147 61.4453L108.649 60.0502C109.494 59.8788 110.608 59.6586 111.453 59.5117L110.951 60.9313C110.106 61.0781 108.992 61.2862 108.16 61.4575" fill="white"/>
<path d="M107.352 63.8559L107.817 62.4119C108.649 62.2528 109.764 62.0448 110.608 61.9102C110.449 62.3997 110.29 62.8769 110.143 63.3787C109.311 63.5133 108.196 63.7091 107.352 63.8559Z" fill="white"/>
<path d="M157.06 152.053C132.341 148.956 122.558 99.6388 133.014 63.6846C134.973 63.9538 136.463 64.1741 137.483 64.3454C126.476 103.408 138.793 148.663 161.015 150.817C159.668 151.269 157.428 152.028 157.06 152.053Z" fill="white"/>
<path d="M127.798 133.733C124.994 126.99 121.897 118.571 120.599 103.751C121.334 103.751 122.325 103.726 123.06 103.714C123.942 112.256 125.288 122.303 130.235 133.574C129.512 133.623 128.533 133.709 127.811 133.745M135.157 139.534C131.937 133.806 128.3 126.513 125.901 112.55C126.317 112.525 126.733 112.501 127.149 112.476C128.655 120.504 130.724 129.854 136.369 139.362L135.144 139.534M154.33 152.701L155.934 152.347C131.092 149.238 121.26 99.6757 131.765 63.5379C131.177 63.4767 130.602 63.4156 130.014 63.3544C128.557 68.5064 126.758 74.9189 125.925 86.3367C125.509 86.3367 125.092 86.3122 124.676 86.3122C125.178 80.4381 125.815 73.1322 128.778 63.232C128.202 63.183 127.627 63.1341 127.051 63.0974C125.386 69.0082 121.921 81.2948 122.84 100.422C122.019 100.422 121.199 100.447 120.379 100.447C120.134 93.0551 119.681 79.3 124.603 62.9505C121.53 62.8526 119.424 62.8037 115.983 62.9872L115.396 64.982C116.289 65.8019 117.489 66.9033 118.383 67.7232C117.979 69.5099 117.452 71.8962 117.11 73.6952C115.824 74.6252 114.122 75.898 112.861 76.8647C112.616 78.7738 112.273 81.3315 112.09 83.2528C113.118 84.244 114.514 85.5535 115.555 86.5202C115.469 88.5517 115.347 91.2684 115.322 93.3121C114.208 94.3279 112.726 95.6862 111.625 96.7142C111.857 102.319 111.918 103.824 112.739 110.42C113.988 111.387 115.677 112.66 116.963 113.602C117.318 115.401 117.783 117.8 118.187 119.599C117.281 120.431 116.081 121.52 115.187 122.352C115.861 124.592 116.804 127.565 117.575 129.78C118.983 130.6 120.881 131.653 122.313 132.424C122.95 133.831 123.795 135.703 124.492 137.074C122.754 138.432 122.717 138.457 121.909 139.032C122.485 139.95 123.231 141.198 123.844 142.091C125.362 142.728 127.394 143.523 128.937 144.098C129.757 145.065 130.847 146.375 131.728 147.292C131.043 147.66 130.112 148.125 129.402 148.443C130.394 149.214 131.728 150.229 132.781 150.902C134.398 151.257 136.552 151.698 138.181 151.979C139.16 152.359 140.458 152.873 141.462 153.154C140.825 153.215 139.956 153.24 139.319 153.228L139.65 153.264L140.532 153.35C141.364 153.411 142.478 153.497 143.311 153.534C145.723 153.583 146.372 153.595 149.212 153.411C144.768 152.861 142.54 152.077 138.107 148.577C138.817 148.504 139.772 148.43 140.483 148.345C144.486 151.441 146.764 152.628 151.539 153.154L153.167 152.897C147.217 152.151 142.564 150.046 136.381 141.455C136.785 141.406 137.189 141.345 137.593 141.284C144.792 151.074 150.657 152.885 154.318 152.677" fill="white"/>
<path d="M111.906 63.3418L113.706 63.1582C111.11 72.3609 109.653 79.8626 109.347 93.1282C108.27 98.7453 108.245 98.8554 107.829 101.878C107.462 93.9359 106.85 80.6336 111.918 63.3418" fill="white"/>
<path d="M113.265 128.801C110.963 122.034 109.36 116.722 108.086 105.084C108.784 99.7489 108.809 99.5408 109.372 96.4937C109.825 107.875 110.939 117.298 115.077 129.021C114.465 128.96 113.865 128.887 113.265 128.813" fill="white"/>
<path d="M135.132 152.616L133.822 152.359L133.161 152.212C132.141 151.771 131.373 151.319 130.859 150.854C133.969 152.334 134.091 152.383 136.43 152.836L135.132 152.616Z" fill="white"/>
<path d="M114.857 132.778L116.681 133.011C120.317 140.684 123.28 145.395 129.316 149.899C130.675 151.245 130.724 151.294 131.545 151.71C126.684 149.519 120.979 146.068 114.869 132.778" fill="white"/>
<path d="M106.85 65.5322C106.997 65.0305 107.143 64.541 107.29 64.0515C108.123 63.9046 109.237 63.6966 110.07 63.5742L109.617 65.0794C108.784 65.2141 107.67 65.3854 106.837 65.5322" fill="white"/>
<path d="M106.164 68.0903C106.299 67.5764 106.433 67.0746 106.568 66.5729C107.401 66.4383 108.502 66.2547 109.335 66.1323L108.931 67.6743C108.098 67.7966 106.997 67.9557 106.164 68.0903Z" fill="white"/>
<path d="M105.527 70.7212L105.895 69.1548C106.727 69.0324 107.829 68.8611 108.649 68.751L108.282 70.3419C107.449 70.452 106.348 70.5866 105.527 70.709" fill="white"/>
<path d="M104.964 73.4258C105.074 72.8874 105.172 72.3489 105.282 71.8105C106.103 71.7003 107.205 71.5535 108.037 71.4556C107.927 71.994 107.817 72.5447 107.707 73.0954C106.886 73.1933 105.784 73.3157 104.964 73.4258Z" fill="white"/>
<path d="M104.474 76.2036C104.56 75.6529 104.658 75.1022 104.756 74.5515C105.576 74.4536 106.678 74.3313 107.498 74.2456C107.4 74.7963 107.303 75.3592 107.205 75.9222C106.384 76.0078 105.282 76.118 104.462 76.2036" fill="white"/>
<path d="M103.054 94.4499C103.054 93.9727 103.054 93.4954 103.054 93.0181C103.054 92.8835 103.054 92.7489 103.054 92.6265C103.874 92.6265 104.952 92.6143 105.772 92.6021V94.4622C104.952 94.4622 103.862 94.4622 103.042 94.4622" fill="white"/>
<path d="M103.103 97.5094L103.066 95.6982C103.887 95.6982 104.964 95.7227 105.784 95.7227L105.821 97.5584C105.001 97.5461 103.923 97.5217 103.103 97.4972" fill="white"/>
<path d="M103.238 100.545L103.152 98.7578C103.972 98.7823 105.05 98.819 105.87 98.8312C105.895 99.4431 105.919 100.043 105.956 100.642C105.135 100.618 104.058 100.569 103.238 100.532" fill="white"/>
<path d="M103.446 103.518C103.397 102.931 103.348 102.343 103.311 101.756C104.131 101.793 105.209 101.854 106.029 101.878C106.066 102.478 106.115 103.078 106.164 103.665C105.344 103.616 104.254 103.555 103.446 103.506" fill="white"/>
<path d="M103.727 106.455C103.666 105.88 103.605 105.305 103.556 104.729C104.376 104.791 105.466 104.852 106.286 104.901L106.47 106.663C105.65 106.602 104.56 106.528 103.74 106.455" fill="white"/>
<path d="M104.352 111.155C104.266 110.604 104.18 110.041 104.107 109.478C104.927 109.564 106.017 109.662 106.837 109.735C106.923 110.31 106.996 110.873 107.094 111.436C106.274 111.363 105.184 111.252 104.364 111.155" fill="white"/>
<path d="M104.817 113.932C104.719 113.394 104.621 112.843 104.523 112.292C105.344 112.39 106.445 112.513 107.266 112.586L107.56 114.251C106.617 114.153 105.699 114.055 104.817 113.932Z" fill="white"/>
<path d="M105.368 116.637L105.038 115.034C105.858 115.144 106.96 115.278 107.78 115.376L108.111 117.004C107.29 116.894 106.188 116.759 105.356 116.637" fill="white"/>
<path d="M105.968 119.28L105.601 117.726C106.421 117.848 107.523 118.008 108.356 118.105C108.478 118.632 108.6 119.158 108.735 119.684C107.902 119.574 106.801 119.403 105.968 119.268" fill="white"/>
<path d="M106.641 121.85C106.507 121.348 106.372 120.847 106.237 120.333C107.07 120.467 108.172 120.638 109.004 120.761C109.139 121.275 109.274 121.789 109.421 122.291C108.466 122.156 107.547 122.009 106.654 121.838" fill="white"/>
<path d="M113.437 138.187C113.216 137.82 112.996 137.453 112.788 137.086C113.645 137.306 114.796 137.588 115.665 137.783C115.885 138.163 116.106 138.542 116.326 138.909C115.457 138.701 114.159 138.726 113.449 138.2" fill="white"/>
<path d="M114.575 139.962C114.343 139.619 114.122 139.277 113.902 138.922C114.771 139.154 115.922 139.448 116.791 139.656L117.477 140.709C116.608 140.501 115.31 140.488 114.575 139.962Z" fill="white"/>
<path d="M115.751 141.626L115.053 140.659C115.922 140.904 117.085 141.21 117.967 141.418C118.199 141.748 118.444 142.079 118.677 142.409C117.795 142.189 116.497 142.164 115.751 141.638" fill="white"/>
<path d="M116.975 143.18L116.253 142.275C117.122 142.52 118.297 142.838 119.179 143.058C119.424 143.376 119.669 143.682 119.913 143.976C119.032 143.743 117.734 143.682 116.975 143.18Z" fill="white"/>
<path d="M118.236 144.612C117.979 144.343 117.734 144.061 117.489 143.78C118.371 144.037 119.546 144.367 120.44 144.587C120.697 144.881 120.942 145.163 121.199 145.432C120.305 145.199 119.02 145.101 118.236 144.612Z" fill="white"/>
<path d="M124.897 149.678C124.615 149.544 124.321 149.397 124.039 149.238C124.958 149.519 126.17 149.886 127.1 150.131L127.957 150.572C126.917 150.315 125.901 150.009 124.897 149.666" fill="white"/>
<path d="M126.354 150.303L125.484 149.948C126.403 150.229 127.627 150.609 128.557 150.853L129.439 151.208C128.508 150.951 127.26 150.621 126.354 150.303Z" fill="white"/>
<path d="M130.529 151.587L129.831 151.392C129.047 151.159 127.994 150.853 127.211 150.596C128.068 150.853 129.194 151.196 130.063 151.428C130.357 151.526 130.663 151.612 130.969 151.698L130.541 151.587" fill="white"/>
<g opacity="0.5">
<path d="M265.575 147.292C269.86 147.292 273.913 146.778 277.696 145.787C273.913 146.778 269.848 147.292 265.575 147.292ZM261.314 147.292C261.412 147.292 261.498 147.305 261.596 147.317C257.507 151.759 252.854 154.378 247.92 154.635C250.589 154.794 251.287 154.818 254.14 154.721L253.478 154.757C252.842 154.782 252.193 154.794 251.556 154.794C250.185 154.794 248.826 154.733 247.479 154.61C252.474 154.402 257.188 151.771 261.314 147.28M277.562 145.922C277.647 145.897 277.721 145.873 277.806 145.861C274.807 149.128 271.489 151.38 267.975 152.395L267.62 152.493C271.17 151.49 274.525 149.226 277.549 145.922M261.302 147.28C261.302 147.28 261.4 147.17 261.449 147.121C261.4 147.17 261.351 147.231 261.302 147.28Z" fill="white"/>
<path d="M271.991 128.776C269.322 136.364 265.82 142.678 261.743 147.157C263.028 147.243 264.302 147.292 265.575 147.292C269.86 147.292 273.913 146.778 277.696 145.787C281.663 141.418 285.091 135.275 287.687 127.871C284.1 128.519 280.133 128.862 275.86 128.862C274.586 128.862 273.301 128.838 272.003 128.776M271.807 128.507C273.203 128.581 274.586 128.605 275.958 128.605C280.329 128.605 284.369 128.262 288.018 127.577C285.385 135.152 281.884 141.442 277.819 145.86C277.733 145.885 277.659 145.909 277.574 145.921C273.791 146.925 269.726 147.439 265.44 147.439C264.167 147.439 262.894 147.39 261.608 147.304C261.51 147.304 261.425 147.292 261.327 147.28C261.376 147.231 261.425 147.17 261.473 147.121C265.587 142.581 269.138 136.192 271.807 128.495" fill="white"/>
<path d="M277.488 93.055C277.488 93.6914 277.488 94.34 277.488 94.9886C277.427 102.343 276.704 109.368 275.456 115.854C276.766 115.89 278.051 115.915 279.325 115.915C283.61 115.915 287.54 115.707 291.066 115.291C292.291 108.976 292.988 102.135 293.05 94.9641C293.05 94.34 293.05 93.7036 293.05 93.0795C289.56 93.0673 285.655 93.055 281.369 93.055C280.096 93.055 278.81 93.055 277.5 93.055M277.206 92.8959C278.614 92.8959 279.998 92.8959 281.369 92.8959C285.74 92.8959 289.732 92.8959 293.27 92.9204C293.27 93.5935 293.27 94.2788 293.27 94.9519C293.209 102.221 292.486 109.148 291.238 115.536C287.65 115.964 283.647 116.196 279.276 116.196C277.904 116.196 276.521 116.172 275.125 116.135C276.411 109.576 277.145 102.454 277.219 94.9886C277.219 94.291 277.219 93.5935 277.219 92.8959M277.219 92.8959C277.219 92.8959 277.219 92.7858 277.219 92.7246C277.219 92.7858 277.219 92.8348 277.219 92.8959Z" fill="white"/>
<path d="M245.594 147.941C248.52 148.871 251.483 149.568 254.458 150.009C251.495 149.568 248.532 148.883 245.594 147.941ZM254.299 150.119C254.397 150.131 254.482 150.143 254.58 150.156C251.923 152.212 249.095 153.545 246.145 154.035C243.059 153.558 240.023 152.762 237.06 151.685C240.206 150.914 241.504 150.596 245.165 147.965C245.263 147.99 245.349 148.026 245.447 148.051C242.937 149.997 240.268 151.269 237.488 151.759C240.28 152.762 243.133 153.497 246.034 153.962C248.924 153.46 251.703 152.138 254.299 150.119ZM245.165 147.965C245.165 147.965 245.263 147.892 245.312 147.855L245.165 147.965Z" fill="white"/>
<path d="M252.536 140.109C250.43 143.315 248.104 145.97 245.594 147.941C248.52 148.871 251.483 149.568 254.458 150.009C257.054 147.965 259.478 145.212 261.657 141.871C258.633 141.491 255.584 140.904 252.536 140.109ZM252.364 139.852C255.609 140.708 258.853 141.332 262.073 141.712C259.808 145.199 257.298 148.051 254.593 150.156C254.495 150.143 254.409 150.131 254.311 150.119C251.348 149.678 248.385 148.993 245.459 148.051C245.361 148.026 245.275 147.99 245.177 147.965C245.226 147.928 245.275 147.892 245.324 147.855C247.871 145.848 250.234 143.143 252.364 139.852Z" fill="white"/>
<path d="M257.764 129.817C257.127 131.444 256.441 132.998 255.719 134.479C258.829 135.177 261.914 135.703 264.963 136.021C265.71 134.479 266.42 132.864 267.093 131.175C264.02 130.881 260.91 130.429 257.764 129.804M257.556 129.511C260.898 130.172 264.216 130.661 267.473 130.955C266.75 132.815 265.967 134.589 265.147 136.266C261.902 135.923 258.621 135.373 255.327 134.614C256.123 132.998 256.87 131.297 257.568 129.511" fill="white"/>
<path d="M259.833 123.833C259.294 125.619 258.706 127.345 258.082 128.997C261.229 129.597 264.351 130.05 267.424 130.331C268.073 128.618 268.685 126.831 269.236 124.971C266.151 124.726 263.004 124.347 259.833 123.833ZM259.612 123.527C262.992 124.078 266.334 124.481 269.615 124.726C269.003 126.758 268.342 128.728 267.632 130.6C264.375 130.307 261.057 129.829 257.715 129.168C258.4 127.369 259.049 125.485 259.625 123.527" fill="white"/>
<path d="M263.628 102.943C263.457 105.085 263.237 107.19 262.955 109.258C266.187 109.527 269.371 109.723 272.48 109.845C272.774 107.704 273.007 105.525 273.178 103.286C270.068 103.212 266.873 103.102 263.628 102.943ZM263.347 102.625C266.799 102.784 270.191 102.906 273.497 102.98C273.313 105.427 273.056 107.826 272.725 110.163C269.42 110.029 266.04 109.821 262.6 109.527C262.918 107.275 263.163 104.975 263.335 102.625" fill="white"/>
<path d="M263.971 95.282C263.947 97.5093 263.861 99.7121 263.714 101.866C266.959 102.001 270.154 102.098 273.264 102.172C273.423 99.9324 273.509 97.6562 273.533 95.331C270.411 95.331 267.216 95.3065 263.971 95.282ZM263.665 94.9639C267.118 94.9883 270.521 95.0006 273.827 95.0006C273.803 97.546 273.705 100.042 273.533 102.49C270.228 102.417 266.836 102.306 263.383 102.16C263.555 99.7977 263.653 97.3992 263.665 94.9639Z" fill="white"/>
<path d="M273.791 64.8962C275.088 64.8472 276.386 64.8228 277.659 64.8228C281.945 64.8228 285.887 65.1042 289.438 65.6427C289.438 65.6427 289.438 65.6427 289.438 65.6549C285.887 65.1165 281.932 64.835 277.659 64.835C276.386 64.835 275.101 64.8595 273.791 64.9084C273.791 64.9084 273.791 64.9084 273.791 64.8962ZM289.511 65.9241C289.585 65.9241 289.67 65.9486 289.744 65.9609C291.911 74.0255 293.172 83.2037 293.258 92.9326C289.707 92.9082 285.728 92.9081 281.357 92.9081C279.986 92.9081 278.602 92.9081 277.194 92.9081C277.194 92.847 277.194 92.798 277.194 92.7368C277.096 82.7999 275.811 73.4381 273.582 65.2021C273.68 65.2021 273.778 65.2021 273.864 65.2021C276.068 73.4013 277.366 82.7142 277.476 92.59C278.786 92.59 280.071 92.59 281.345 92.59C285.63 92.59 289.536 92.6022 293.025 92.6267C292.915 83.0079 291.666 73.9276 289.511 65.9486" fill="white"/>
<path d="M264.645 44.3245C268.428 49.6846 271.574 56.7213 273.803 64.8838C273.803 64.8838 273.803 64.8838 273.803 64.896C275.101 64.8471 276.398 64.8226 277.672 64.8226C281.957 64.8226 285.899 65.1041 289.45 65.6425C289.45 65.6425 289.45 65.6425 289.45 65.6303C287.283 57.6758 284.222 50.8105 280.537 45.5972C276.815 44.6672 272.774 44.1899 268.489 44.1899C267.216 44.1899 265.93 44.2266 264.645 44.3123M264.241 44.1532C265.624 44.0553 266.995 44.0063 268.367 44.0063C272.738 44.0063 276.851 44.5081 280.659 45.4749C284.442 50.7738 287.565 57.7859 289.768 65.9362C289.695 65.9362 289.609 65.9117 289.536 65.8995C285.985 65.361 282.03 65.0796 277.757 65.0796C276.484 65.0796 275.199 65.1041 273.888 65.153C273.791 65.153 273.693 65.153 273.607 65.153C273.582 65.0551 273.558 64.9572 273.533 64.8593C271.281 56.5989 268.097 49.5011 264.253 44.1287" fill="white"/>
<path d="M246.806 33.2006C247.087 33.2006 247.357 33.2006 247.638 33.2006C251.36 33.3352 254.911 34.7915 258.192 37.3614C259.466 37.2635 260.739 37.2145 262.012 37.2145C266.297 37.2145 270.387 37.753 274.231 38.8177C272.138 37.1778 269.922 36.003 267.62 35.3422C266.567 35.073 265.171 34.7058 264.106 34.4611C260.702 33.788 260.567 33.7635 258.621 33.5188C255.082 33.1516 255.009 33.1394 253.05 33.0782L250.871 33.0415H249.695C248.716 33.066 247.748 33.1149 246.781 33.2006M246.426 33.2251C247.406 33.1394 248.385 33.0905 249.377 33.066H250.871L253.05 33.0905C256.613 33.2985 256.686 33.2985 258.621 33.531C262.135 34.0572 262.196 34.0572 264.106 34.4733C265.269 34.7548 266.812 35.1341 267.975 35.4523C270.289 36.1254 272.517 37.3247 274.623 39.0012C270.705 37.8999 266.53 37.3369 262.147 37.3369C260.776 37.3369 259.417 37.3981 258.045 37.496C253.65 34.3999 251.593 33.4576 246.438 33.2128M246.438 33.2128C246.438 33.2128 246.377 33.2128 246.353 33.2128H246.438Z" fill="white"/>
<path d="M262 72.8384C265.208 72.4713 268.379 72.2021 271.489 72.0308C268.391 72.2021 265.22 72.4713 262 72.8384ZM271.55 72.3367C271.648 72.3367 271.746 72.3367 271.844 72.3245C272.86 77.6356 273.521 83.3016 273.754 89.2002C270.448 89.2369 267.044 89.2981 263.592 89.3837C263.224 83.2772 263.065 80.487 261.767 73.1689C261.865 73.1689 261.975 73.1444 262.073 73.1321C263.041 78.1496 263.665 83.4974 263.898 89.0656C267.142 88.9799 270.338 88.9187 273.46 88.882C273.215 83.1058 272.566 77.5499 271.574 72.3367M261.78 73.1689C261.755 73.071 261.743 72.9731 261.718 72.8752L261.78 73.1689Z" fill="white"/>
<path d="M258.106 58.9361C259.71 63.1581 261.02 67.8329 262 72.8381C265.208 72.471 268.379 72.2018 271.489 72.0304C270.472 66.8294 269.113 61.9833 267.448 57.6022C264.375 57.8837 261.253 58.3365 258.106 58.9361ZM257.715 58.7648C261.057 58.104 264.375 57.6267 267.632 57.333C269.371 61.8732 270.791 66.9028 271.832 72.3241C271.734 72.3241 271.636 72.3241 271.538 72.3364C268.44 72.5077 265.269 72.7769 262.049 73.1318C261.951 73.1318 261.841 73.1563 261.743 73.1685C261.718 73.0706 261.706 72.9727 261.682 72.8748C260.69 67.784 259.343 63.0358 257.702 58.7648" fill="white"/>
<path d="M252.976 48.4365C253.785 49.7215 254.568 51.1043 255.303 52.5484C258.4 51.8386 261.486 51.3002 264.534 50.9697C263.763 49.4645 262.967 48.0327 262.122 46.6988C259.098 47.0659 256.037 47.6533 252.976 48.4365ZM252.572 48.3264C255.817 47.4698 259.074 46.8579 262.282 46.4785C263.212 47.9348 264.094 49.5012 264.926 51.1533C261.694 51.496 258.4 52.0589 255.107 52.8299C254.299 51.239 253.454 49.7337 252.56 48.3264" fill="white"/>
<path d="M249.989 44.2757C250.883 45.3527 251.74 46.5275 252.56 47.7879C255.609 46.9925 258.657 46.4051 261.682 46.0257C260.825 44.7163 259.931 43.5048 259.013 42.3789C256.013 42.7827 252.989 43.4191 249.989 44.2757ZM249.573 44.2023C252.768 43.2723 255.976 42.5992 259.159 42.1831C260.176 43.4069 261.155 44.7408 262.086 46.1848C258.866 46.5642 255.621 47.1883 252.377 48.0449C251.483 46.6621 250.54 45.3771 249.561 44.2023" fill="white"/>
<path d="M239.57 36.6151C240.647 36.9578 241.688 37.4228 242.729 37.9857C245.606 37.0189 248.532 36.3092 251.483 35.8441C250.418 35.2567 249.328 34.7795 248.214 34.4123C245.3 34.8774 242.41 35.6116 239.582 36.6029M239.166 36.6518C242.165 35.5871 245.226 34.8039 248.336 34.3267C249.561 34.706 250.76 35.2322 251.923 35.8931C248.789 36.3581 245.679 37.1168 242.618 38.157C241.492 37.5207 240.341 37.0189 239.178 36.6518" fill="white"/>
<path d="M235.738 35.8929C236.852 35.9541 237.954 36.1376 239.031 36.4436C241.847 35.4523 244.724 34.7181 247.638 34.253C246.524 33.9348 245.373 33.739 244.222 33.6779C241.333 34.1551 238.492 34.8894 235.738 35.8929ZM235.321 35.9785C238.247 34.9016 241.259 34.1062 244.332 33.6289C245.606 33.6901 246.855 33.8981 248.079 34.253C244.981 34.7303 241.921 35.5135 238.921 36.5782C237.745 36.2355 236.546 36.0275 235.321 35.9785Z" fill="white"/>
<path d="M246.365 33.2372C246.071 33.2372 245.765 33.2617 245.471 33.2862L245.838 33.2495C246.083 33.225 246.316 33.2128 246.561 33.2128C247.283 33.1516 248.006 33.1149 248.728 33.0904L249.389 33.0659C248.397 33.0904 247.418 33.1393 246.438 33.225C246.414 33.225 246.377 33.225 246.353 33.225" fill="white"/>
<path d="M232.517 36.1255C231.403 36.2846 230.314 36.5783 229.248 36.9821L229.591 36.8598C230.583 36.4926 231.599 36.2234 232.615 36.0643C235.321 35.0608 238.113 34.3266 240.978 33.8493C240.941 33.8493 240.904 33.8493 240.868 33.8615L241.235 33.8004C241.235 33.8004 241.357 33.7759 241.419 33.7759C238.37 34.2531 235.395 35.0486 232.517 36.1255Z" fill="white"/>
<path d="M246.573 154.647C246.328 154.647 246.096 154.623 245.851 154.61C246.72 154.659 247.871 154.745 248.74 154.782C248.018 154.757 247.295 154.721 246.585 154.659M246.304 154.635C247.112 154.708 247.92 154.757 248.74 154.782C247.761 154.721 246.463 154.659 245.483 154.586C245.753 154.61 246.022 154.623 246.304 154.635Z" fill="white"/>
<path d="M230.057 151.172C229.897 151.123 229.75 151.061 229.591 151.013L231.305 151.624L230.057 151.184M229.959 151.135C230.595 151.38 231.232 151.6 231.869 151.808C231.085 151.526 230.032 151.184 229.248 150.89C229.481 150.976 229.726 151.061 229.959 151.135Z" fill="white"/>
<path d="M233.876 151.942C232.762 151.857 231.673 151.661 230.595 151.33C231.403 151.612 232.481 151.979 233.301 152.236L234.378 152.554C237.733 153.411 237.868 153.448 239.79 153.802L240.88 153.986L242.288 154.157C239.411 153.68 236.607 152.946 233.876 151.942ZM233.779 151.857C236.68 152.934 239.668 153.729 242.729 154.206C242.239 154.182 241.737 154.121 241.259 154.047L239.815 153.802C236.35 153.093 236.276 153.08 234.403 152.554L232.75 152.065C231.991 151.808 230.963 151.465 230.203 151.196C231.379 151.563 232.579 151.783 233.791 151.857" fill="white"/>
</g>
<path d="M267.632 152.506L267.987 152.408C266.799 152.75 265.575 152.958 264.338 153.007C260.825 154.023 257.188 154.61 253.478 154.757L254.14 154.721C258.302 154.415 260.286 154.084 264.228 153.069C265.379 153.007 266.506 152.824 267.62 152.506" fill="white"/>
<path d="M249.72 33.0538H250.895L253.074 33.0782C256.637 33.2863 256.711 33.2863 258.645 33.5188C262.159 34.045 262.22 34.045 264.13 34.4611C265.183 34.7181 266.591 35.0607 267.644 35.3422C266.444 34.9996 265.22 34.8038 263.971 34.767C263.702 34.767 263.432 34.767 263.163 34.767C259.098 33.6289 254.899 33.0415 250.613 33.0415C250.32 33.0415 250.026 33.0415 249.732 33.0415M249.414 33.0415C249.793 33.0415 250.16 33.0293 250.54 33.0293C254.911 33.0293 259.208 33.6412 263.359 34.8282C263.653 34.8282 263.947 34.8282 264.253 34.8282C265.526 34.8772 266.787 35.073 268.012 35.4401C266.861 35.1342 265.318 34.7303 264.143 34.4611C260.739 33.788 260.604 33.7636 258.657 33.5188C255.119 33.1517 255.046 33.1394 253.087 33.0782L250.907 33.0415H249.414Z" fill="white"/>
<path d="M236.448 40.3351C240.733 40.3351 245.067 40.8491 249.389 41.8526C245.067 40.8491 240.721 40.3351 236.448 40.3351ZM232.566 40.3351C232.652 40.3351 232.75 40.3229 232.836 40.3106C236.741 36.1498 241.161 33.6411 245.838 33.2618L245.471 33.2985C240.831 33.7023 236.448 36.1988 232.566 40.3474M249.536 41.7057C249.634 41.7302 249.72 41.7547 249.818 41.7669C253.858 37.4593 258.462 34.975 263.335 34.8526C259.184 33.6656 254.899 33.0537 250.516 33.0537C250.136 33.0537 249.769 33.0537 249.389 33.0659L248.728 33.0904C249.267 33.0659 249.805 33.0659 250.356 33.0659C254.642 33.0659 258.841 33.6534 262.906 34.7915C258.082 34.9628 253.54 37.4348 249.536 41.7057ZM232.566 40.3474C232.566 40.3474 232.468 40.4452 232.42 40.5064C232.468 40.4575 232.517 40.3963 232.566 40.3474Z" fill="white"/>
<path d="M222.368 58.6796C225.061 51.1412 228.6 44.8877 232.689 40.4699C233.925 40.3843 235.174 40.3353 236.448 40.3353C240.733 40.3353 245.067 40.8493 249.389 41.8528C245.398 46.1604 241.957 52.2548 239.337 59.5974C234.819 58.9366 230.375 58.5939 226.102 58.5939C224.829 58.5939 223.58 58.6184 222.368 58.6796ZM222.013 58.9488C223.31 58.8754 224.645 58.8509 226.016 58.8509C230.387 58.8509 234.929 59.2058 239.558 59.8911C242.227 52.3527 245.741 46.1237 249.83 41.7671C249.732 41.7427 249.646 41.7182 249.548 41.7059C245.226 40.7025 240.892 40.1885 236.607 40.1885C235.334 40.1885 234.085 40.2374 232.848 40.3231C232.762 40.3231 232.664 40.3353 232.579 40.3476C232.53 40.3965 232.481 40.4455 232.432 40.5067C228.293 44.9734 224.731 51.3125 222.025 58.9733" fill="white"/>
<path d="M216.736 94.2663C216.736 93.8012 216.736 93.3362 216.736 92.8712C216.797 85.3328 217.556 78.1493 218.866 71.541C220.078 71.5042 221.315 71.4798 222.588 71.4798C226.873 71.4798 231.342 71.7 235.921 72.1161C234.648 78.5531 233.913 85.5653 233.852 92.8957C233.852 93.3484 233.852 93.8012 233.852 94.254C229.224 94.254 224.731 94.254 220.458 94.254C219.184 94.254 217.948 94.254 216.736 94.254M216.466 94.4131C217.752 94.4131 219.086 94.4131 220.445 94.4131C224.816 94.4131 229.42 94.4131 234.146 94.4009C234.146 93.8991 234.146 93.3974 234.146 92.8834C234.207 85.4429 234.966 78.3573 236.276 71.8469C231.587 71.4063 227.008 71.1738 222.637 71.1738C221.266 71.1738 219.943 71.1983 218.646 71.235C217.299 77.929 216.527 85.2104 216.466 92.8467C216.466 93.3729 216.466 93.8869 216.466 94.4009M216.466 94.4009C216.466 94.4009 216.466 94.511 216.466 94.5722C216.466 94.511 216.466 94.4621 216.466 94.4009Z" fill="white"/>
<path d="M224.498 39.7356C227.069 38.8055 229.75 38.1079 232.554 37.6674C229.763 38.1079 227.069 38.8055 224.498 39.7356ZM224.4 39.7111C224.486 39.6866 224.559 39.6499 224.645 39.6254C226.237 38.4139 227.889 37.4838 229.604 36.8475L229.261 36.9698C226.249 38.3649 226.188 38.3894 224.4 39.7111ZM232.701 37.545C232.787 37.5328 232.873 37.5205 232.97 37.5083C235.578 35.5258 238.358 34.2531 241.247 33.8003L240.88 33.8615C238.027 34.3265 235.272 35.5992 232.701 37.5573M224.4 39.7233C224.4 39.7233 224.302 39.7967 224.253 39.8335L224.4 39.7233Z" fill="white"/>
<path d="M217.519 47.4575C219.637 44.2757 221.976 41.6691 224.486 39.7355C227.057 38.8055 229.738 38.1079 232.542 37.6674C229.934 39.6743 227.51 42.3911 225.306 45.683C222.563 46.0624 219.968 46.6498 217.519 47.4575ZM217.176 47.7145C219.76 46.8456 222.527 46.2215 225.453 45.8421C227.73 42.3911 230.252 39.5764 232.97 37.5205C232.885 37.5327 232.799 37.545 232.701 37.5572C229.897 37.9978 227.204 38.6953 224.645 39.6254C224.559 39.6499 224.486 39.6866 224.4 39.711C224.351 39.7478 224.302 39.7845 224.253 39.8212C221.706 41.7914 219.319 44.4593 217.176 47.7145Z" fill="white"/>
<path d="M212.254 57.6758C212.903 56.0604 213.589 54.5063 214.324 53.0377C216.711 52.328 219.27 51.814 221.988 51.4713C221.229 53.001 220.519 54.6042 219.845 56.2807C217.152 56.5744 214.617 57.0394 212.254 57.6636M211.936 57.9573C214.421 57.2842 217.115 56.7947 219.992 56.501C220.727 54.6531 221.511 52.8909 222.343 51.2266C219.441 51.5692 216.723 52.1321 214.189 52.8909C213.393 54.494 212.634 56.1828 211.924 57.9573" fill="white"/>
<path d="M210.161 63.6233C210.699 61.8489 211.299 60.1356 211.924 58.4958C214.275 57.8839 216.809 57.4311 219.503 57.1374C218.841 58.8384 218.229 60.6129 217.666 62.4608C214.985 62.7055 212.475 63.0971 210.161 63.6233ZM209.867 63.9293C212.316 63.3664 214.985 62.9625 217.837 62.7055C218.45 60.6741 219.123 58.7283 219.845 56.8682C216.968 57.1619 214.275 57.6514 211.789 58.3122C211.091 60.0989 210.442 61.9713 209.855 63.917" fill="white"/>
<path d="M206.28 84.4272C206.451 82.2856 206.696 80.193 206.977 78.137C209.242 77.8678 211.703 77.6598 214.36 77.5374C214.054 79.6667 213.822 81.845 213.638 84.0723C210.993 84.1457 208.532 84.2681 206.28 84.4394M206.047 84.7576C208.422 84.5863 211.042 84.4639 213.871 84.3905C214.066 81.9552 214.336 79.5688 214.666 77.2314C211.826 77.3661 209.206 77.5863 206.818 77.88C206.5 80.1195 206.243 82.4202 206.047 84.7576Z" fill="white"/>
<path d="M205.912 92.0762C205.949 89.8489 206.047 87.6584 206.206 85.5046C208.459 85.3577 210.92 85.2476 213.564 85.1864C213.405 87.4259 213.295 89.7021 213.258 92.0027C210.614 92.015 208.153 92.0395 205.912 92.0762ZM205.692 92.3944C208.067 92.3699 210.675 92.3454 213.503 92.3332C213.54 89.8 213.65 87.3035 213.834 84.856C211.006 84.9294 208.398 85.0518 206.01 85.2108C205.839 87.5605 205.729 89.9591 205.692 92.3944Z" fill="white"/>
<path d="M220.298 122.523C221.511 122.572 222.759 122.597 224.033 122.597C228.318 122.597 232.775 122.328 237.329 121.789C237.329 121.789 237.329 121.789 237.329 121.777C232.775 122.315 228.318 122.585 224.033 122.585C222.759 122.585 221.511 122.56 220.298 122.511C220.298 122.511 220.298 122.511 220.298 122.523ZM237.243 121.508C237.341 121.508 237.439 121.483 237.537 121.471C235.395 113.37 234.17 104.167 234.134 94.4136C229.408 94.4136 224.804 94.4258 220.433 94.4258C219.062 94.4258 217.739 94.4258 216.454 94.4258C216.454 94.487 216.454 94.536 216.454 94.5971C216.503 104.546 217.764 113.945 219.943 122.23C220.029 122.23 220.115 122.23 220.213 122.23C218.033 113.994 216.784 104.644 216.723 94.744C217.935 94.744 219.172 94.744 220.445 94.744C224.731 94.744 229.224 94.744 233.84 94.7195C233.901 104.363 235.125 113.468 237.243 121.495" fill="white"/>
<path d="M229.371 143.241C225.612 137.82 222.49 130.735 220.298 122.523C220.298 122.523 220.298 122.523 220.298 122.511C221.51 122.56 222.759 122.584 224.033 122.584C228.318 122.584 232.775 122.315 237.329 121.777C237.329 121.777 237.329 121.777 237.329 121.789C239.472 129.78 242.496 136.694 246.169 141.969C241.786 142.887 237.403 143.364 233.13 143.364C231.856 143.364 230.607 143.327 229.383 143.241M229.236 143.401C230.546 143.498 231.893 143.547 233.252 143.547C237.623 143.547 242.092 143.046 246.573 142.079C242.814 136.731 239.717 129.658 237.55 121.471C237.452 121.471 237.354 121.495 237.256 121.507C232.701 122.034 228.232 122.315 223.959 122.315C222.686 122.315 221.437 122.291 220.225 122.242C220.139 122.242 220.054 122.242 219.956 122.242C219.98 122.34 220.005 122.437 220.029 122.535C222.245 130.832 225.404 137.992 229.224 143.425" fill="white"/>
<path d="M250.369 154.806C249.818 154.806 249.279 154.806 248.74 154.782C247.871 154.733 246.72 154.684 245.851 154.611C242.3 154.317 238.909 152.812 235.787 150.303C237.023 150.401 238.284 150.45 239.558 150.45C243.843 150.45 248.153 149.911 252.413 148.859C255.67 151.465 259.208 152.958 262.93 153.093C258.866 154.231 254.654 154.819 250.381 154.819M250.381 154.819C254.752 154.819 259.049 154.207 263.2 153.02C259.441 152.885 255.854 151.355 252.56 148.675C248.201 149.777 243.794 150.34 239.423 150.34C238.052 150.34 236.705 150.278 235.382 150.181C238.517 152.738 241.933 154.28 245.496 154.598C246.475 154.66 247.773 154.757 248.752 154.794C249.291 154.819 249.842 154.819 250.381 154.819Z" fill="white"/>
<path d="M207.785 114.581C210.063 114.936 212.536 115.205 215.205 115.364C212.548 115.193 210.063 114.936 207.785 114.581ZM215.144 115.071C215.23 115.071 215.315 115.071 215.401 115.083C214.397 109.747 213.773 104.069 213.564 98.1459C210.736 98.1092 208.128 98.0602 205.753 97.9868C206.084 104.118 206.243 106.908 207.516 114.263L207.724 114.3C206.782 109.258 206.182 103.898 205.973 98.3172C208.214 98.3907 210.675 98.4519 213.32 98.4886C213.54 104.277 214.164 109.857 215.144 115.083M207.516 114.275C207.528 114.373 207.553 114.471 207.565 114.569L207.516 114.275Z" fill="white"/>
<path d="M211.618 128.544C210.038 124.298 208.74 119.598 207.785 114.581C210.063 114.936 212.536 115.205 215.205 115.364C216.197 120.577 217.544 125.46 219.184 129.866C216.491 129.584 213.968 129.144 211.618 128.544ZM211.483 128.728C213.968 129.376 216.65 129.853 219.527 130.147C217.813 125.583 216.417 120.516 215.389 115.083C215.303 115.083 215.217 115.083 215.132 115.07C212.475 114.899 209.989 114.642 207.712 114.299C207.639 114.299 207.565 114.275 207.504 114.263C207.516 114.361 207.541 114.458 207.553 114.556C208.532 119.672 209.855 124.432 211.471 128.74" fill="white"/>
<path d="M216.699 139.13C215.891 137.833 215.119 136.437 214.385 134.981C216.772 135.691 219.343 136.217 222.049 136.548C222.808 138.065 223.604 139.509 224.449 140.855C221.719 140.488 219.123 139.913 216.687 139.13M216.576 139.24C219.148 140.084 221.915 140.708 224.829 141.076C223.91 139.607 223.029 138.028 222.196 136.352C219.307 136.009 216.576 135.458 214.054 134.7C214.85 136.303 215.695 137.82 216.576 139.24Z" fill="white"/>
<path d="M219.674 143.327C218.792 142.226 217.935 141.039 217.115 139.766C219.552 140.562 222.147 141.149 224.89 141.516C225.735 142.838 226.628 144.074 227.547 145.212C224.792 144.808 222.159 144.184 219.674 143.327ZM219.564 143.401C222.196 144.331 224.988 145.004 227.938 145.408C226.922 144.172 225.955 142.813 225.024 141.357C222.11 140.978 219.343 140.354 216.772 139.509C217.666 140.904 218.597 142.214 219.564 143.401Z" fill="white"/>
<path d="M231.305 151.612L229.591 151C228.685 150.658 227.791 150.241 226.91 149.74C229.518 150.706 232.236 151.416 235.052 151.869C236.117 152.481 237.207 152.97 238.309 153.35C236.154 152.946 234.121 152.567 231.293 151.612M231.856 151.796C234.085 152.53 236.386 153.081 238.737 153.448C237.525 153.044 236.325 152.505 235.162 151.832C232.162 151.367 229.273 150.609 226.506 149.568C227.4 150.095 228.306 150.523 229.236 150.878C230.02 151.159 231.06 151.539 231.856 151.796Z" fill="white"/>
<path d="M239.802 153.815C236.337 153.105 236.264 153.093 234.391 152.567L233.313 152.248C236.105 153.019 236.215 153.044 238.884 153.533L240.892 153.998L239.802 153.815ZM239.802 153.815L241.247 154.06C240.488 153.937 239.729 153.766 238.994 153.533C237.097 153.191 235.297 152.86 232.738 152.077L234.391 152.567C237.562 153.374 238.052 153.509 239.802 153.815Z" fill="white"/>
<path d="M80.1341 20.1431L101.536 87.0218H149.408" stroke="white" stroke-width="0.3" stroke-miterlimit="10"/>
<path d="M151.012 87.0221C151.012 87.9032 150.302 88.6252 149.408 88.6252C148.514 88.6252 147.804 87.9154 147.804 87.0221C147.804 86.1287 148.514 85.4189 149.408 85.4189C150.302 85.4189 151.012 86.1287 151.012 87.0221Z" fill="white"/>
<path d="M235.37 151.771C236.256 151.771 236.974 151.053 236.974 150.168C236.974 149.283 236.256 148.565 235.37 148.565C234.484 148.565 233.766 149.283 233.766 150.168C233.766 151.053 234.484 151.771 235.37 151.771Z" fill="white"/>
<path d="M180.617 169.699H214.36L235.37 150.168" stroke="white" stroke-width="0.4" stroke-miterlimit="10"/>
</svg>
