<svg width="333" height="115" viewBox="0 0 333 115" fill="none" xmlns="http://www.w3.org/2000/svg">
<g clip-path="url(#clip0_2669_373)">
<path opacity="0.5" d="M333 1.106H332.313V0.503906H0.686569V1.12H0V113.88H0.686569V114.496H332.313V113.88H333V1.106ZM198.979 56.8767H178.242V46.8232H198.979V56.8767ZM200.352 46.8232H221.089V56.8767H200.352V46.8232ZM176.883 56.8767H156.145V46.8232H176.883V56.8767ZM154.772 56.8767H134.035V46.8232H154.772V56.8767ZM132.662 56.8767H111.925V46.8232H132.662V56.8767ZM110.552 56.8767H89.8144V46.8232H110.552V56.8767ZM110.552 58.1089V68.1625H89.8144V58.1089H110.552ZM111.925 58.1089H132.662V68.1625H111.925V58.1089ZM134.035 58.1089H154.772V68.1625H134.035V58.1089ZM156.145 58.1089H176.883V68.1625H156.145V58.1089ZM178.256 58.1089H198.993V68.1625H178.256V58.1089ZM200.366 58.1089H221.103V68.1625H200.366V58.1089ZM222.476 58.1089H243.214V68.1625H222.476V58.1089ZM222.476 56.8767V46.8232H243.214V56.8767H222.476ZM222.476 45.605V35.5514H243.214V45.605H222.476ZM221.103 45.605H200.366V35.5514H221.103V45.605ZM198.993 45.605H178.256V35.5514H198.993V45.605ZM176.883 45.605H156.145V35.5514H176.883V45.605ZM154.772 45.605H134.035V35.5514H154.772V45.605ZM132.662 45.605H111.925V35.5514H132.662V45.605ZM110.552 45.605H89.8144V35.5514H110.552V45.605ZM88.4413 45.605H67.7041V35.5514H88.4413V45.605ZM88.4413 46.8372V56.8907H67.7041V46.8372H88.4413ZM88.4413 58.1089V68.1625H67.7041V58.1089H88.4413ZM88.4413 69.3807V79.4343H67.7041V69.3807H88.4413ZM89.8144 69.3807H110.552V79.4343H89.8144V69.3807ZM111.925 69.3807H132.662V79.4343H111.925V69.3807ZM134.035 69.3807H154.772V79.4343H134.035V69.3807ZM156.145 69.3807H176.883V79.4343H156.145V69.3807ZM178.256 69.3807H198.993V79.4343H178.256V69.3807ZM200.366 69.3807H221.103V79.4343H200.366V69.3807ZM222.476 69.3807H243.214V79.4343H222.476V69.3807ZM244.587 69.3807H265.324V79.4343H244.587V69.3807ZM244.587 68.1485V58.0949H265.324V68.1485H244.587ZM244.587 56.8767V46.8232H265.324V56.8767H244.587ZM244.587 45.605V35.5514H265.324V45.605H244.587ZM244.587 34.3332V24.2796H265.324V34.3332H244.587ZM243.214 34.3332H222.476V24.2796H243.214V34.3332ZM221.103 34.3332H200.366V24.2796H221.103V34.3332ZM198.993 34.3332H178.256V24.2796H198.993V34.3332ZM176.883 34.3332H156.145V24.2796H176.883V34.3332ZM154.772 34.3332H134.035V24.2796H154.772V34.3332ZM132.662 34.3332H111.925V24.2796H132.662V34.3332ZM110.552 34.3332H89.8144V24.2796H110.552V34.3332ZM88.4413 34.3332H67.7041V24.2796H88.4413V34.3332ZM66.331 34.3332H45.5938V24.2796H66.331V34.3332ZM66.331 35.5654V45.619H45.5938V35.5654H66.331ZM66.331 46.8372V56.8907H45.5938V46.8372H66.331ZM66.331 58.1089V68.1625H45.5938V58.1089H66.331ZM66.331 69.3807V79.4343H45.5938V69.3807H66.331ZM66.331 80.6525V90.706H45.5938V80.6525H66.331ZM67.7041 80.6525H88.4413V90.706H67.7041V80.6525ZM89.8144 80.6525H110.552V90.706H89.8144V80.6525ZM111.925 80.6525H132.662V90.706H111.925V80.6525ZM134.035 80.6525H154.772V90.706H134.035V80.6525ZM156.145 80.6525H176.883V90.706H156.145V80.6525ZM178.256 80.6525H198.993V90.706H178.256V80.6525ZM200.366 80.6525H221.103V90.706H200.366V80.6525ZM222.476 80.6525H243.214V90.706H222.476V80.6525ZM244.587 80.6525H265.324V90.706H244.587V80.6525ZM266.697 80.6525H287.434V90.706H266.697V80.6525ZM266.697 79.4203V69.3667H287.434V79.4203H266.697ZM266.697 68.1485V58.0949H287.434V68.1485H266.697ZM266.697 56.8767V46.8232H287.434V56.8767H266.697ZM266.697 45.605V35.5514H287.434V45.605H266.697ZM266.697 34.3332V24.2796H287.434V34.3332H266.697ZM266.697 23.0614V13.0079H287.434V23.0614H266.697ZM265.324 23.0614H244.587V13.0079H265.324V23.0614ZM243.214 23.0614H222.476V13.0079H243.214V23.0614ZM221.103 23.0614H200.366V13.0079H221.103V23.0614ZM198.993 23.0614H178.256V13.0079H198.993V23.0614ZM176.883 23.0614H156.145V13.0079H176.883V23.0614ZM154.772 23.0614H134.035V13.0079H154.772V23.0614ZM132.662 23.0614H111.925V13.0079H132.662V23.0614ZM110.552 23.0614H89.8144V13.0079H110.552V23.0614ZM88.4413 23.0614H67.7041V13.0079H88.4413V23.0614ZM66.331 23.0614H45.5938V13.0079H66.331V23.0614ZM44.2206 23.0614H23.4835V13.0079H44.2206V23.0614ZM44.2206 24.2936V34.3472H23.4835V24.2936H44.2206ZM44.2206 35.5654V45.619H23.4835V35.5654H44.2206ZM44.2206 46.8372V56.8907H23.4835V46.8372H44.2206ZM44.2206 58.1089V68.1625H23.4835V58.1089H44.2206ZM44.2206 69.3807V79.4343H23.4835V69.3807H44.2206ZM44.2206 80.6525V90.706H23.4835V80.6525H44.2206ZM44.2206 91.9242V101.978H23.4835V91.9242H44.2206ZM45.5938 91.9242H66.331V101.978H45.5938V91.9242ZM67.7041 91.9242H88.4413V101.978H67.7041V91.9242ZM89.8144 91.9242H110.552V101.978H89.8144V91.9242ZM111.925 91.9242H132.662V101.978H111.925V91.9242ZM134.035 91.9242H154.772V101.978H134.035V91.9242ZM156.145 91.9242H176.883V101.978H156.145V91.9242ZM178.256 91.9242H198.993V101.978H178.256V91.9242ZM200.366 91.9242H221.103V101.978H200.366V91.9242ZM222.476 91.9242H243.214V101.978H222.476V91.9242ZM244.587 91.9242H265.324V101.978H244.587V91.9242ZM266.697 91.9242H287.434V101.978H266.697V91.9242ZM288.807 91.9242H309.545V101.978H288.807V91.9242ZM288.807 90.692V80.6385H309.545V90.692H288.807ZM288.807 79.4203V69.3667H309.545V79.4203H288.807ZM288.807 68.1485V58.0949H309.545V68.1485H288.807ZM288.807 56.8767V46.8232H309.545V56.8767H288.807ZM288.807 45.605V35.5514H309.545V45.605H288.807ZM288.807 34.3332V24.2796H309.545V34.3332H288.807ZM288.807 23.0614V13.0079H309.545V23.0614H288.807ZM288.807 11.7897V1.7221H309.545V11.7757H288.807V11.7897ZM287.434 11.7897H266.697V1.7221H287.434V11.7757V11.7897ZM265.324 11.7897H244.587V1.7221H265.324V11.7757V11.7897ZM243.214 11.7897H222.476V1.7221H243.214V11.7757V11.7897ZM221.103 11.7897H200.366V1.7221H221.103V11.7757V11.7897ZM198.993 11.7897H178.256V1.7221H198.993V11.7757V11.7897ZM176.883 11.7897H156.145V1.7221H176.883V11.7757V11.7897ZM154.772 11.7897H134.035V1.7221H154.772V11.7757V11.7897ZM132.662 11.7897H111.925V1.7221H132.662V11.7757V11.7897ZM110.552 11.7897H89.8144V1.7221H110.552V11.7757V11.7897ZM88.4413 11.7897H67.7041V1.7221H88.4413V11.7757V11.7897ZM66.331 11.7897H45.5938V1.7221H66.331V11.7757V11.7897ZM44.2206 11.7897H23.4835V1.7221H44.2206V11.7757V11.7897ZM22.1103 11.7897H1.37314V1.7221H22.1103V11.7757V11.7897ZM22.1103 13.0219V23.0754H1.37314V13.0219H22.1103ZM22.1103 24.2936V34.3472H1.37314V24.2936H22.1103ZM22.1103 35.5654V45.619H1.37314V35.5654H22.1103ZM22.1103 46.8372V56.8907H1.37314V46.8372H22.1103ZM22.1103 58.1089V68.1625H1.37314V58.1089H22.1103ZM22.1103 69.3807V79.4343H1.37314V69.3807H22.1103ZM22.1103 80.6525V90.706H1.37314V80.6525H22.1103ZM22.1103 91.9242V101.978H1.37314V91.9242H22.1103ZM22.1103 103.196V113.25H1.37314V103.196H22.1103ZM23.4835 103.196H44.2206V113.25H23.4835V103.196ZM45.5938 103.196H66.331V113.25H45.5938V103.196ZM67.7041 103.196H88.4413V113.25H67.7041V103.196ZM89.8144 103.196H110.552V113.25H89.8144V103.196ZM111.925 103.196H132.662V113.25H111.925V103.196ZM134.035 103.196H154.772V113.25H134.035V103.196ZM156.145 103.196H176.883V113.25H156.145V103.196ZM178.256 103.196H198.993V113.25H178.256V103.196ZM200.366 103.196H221.103V113.25H200.366V103.196ZM222.476 103.196H243.214V113.25H222.476V103.196ZM244.587 103.196H265.324V113.25H244.587V103.196ZM266.697 103.196H287.434V113.25H266.697V103.196ZM288.807 103.196H309.545V113.25H288.807V103.196ZM310.918 103.196H331.655V113.25H310.918V103.196ZM310.918 101.964V91.9102H331.655V101.964H310.918ZM310.918 90.692V80.6385H331.655V90.692H310.918ZM310.918 79.4203V69.3667H331.655V79.4203H310.918ZM310.918 68.1485V58.0949H331.655V68.1485H310.918ZM310.918 56.8767V46.8232H331.655V56.8767H310.918ZM310.918 45.605V35.5514H331.655V45.605H310.918ZM310.918 34.3332V24.2796H331.655V34.3332H310.918ZM310.918 23.0614V13.0079H331.655V23.0614H310.918ZM310.918 11.7897V1.7221H331.655V11.7757H310.918V11.7897Z" fill="url(#paint0_linear_2669_373)" fill-opacity="0.3"/>
<g opacity="0.8">
<path d="M90.3189 57.5905C90.3189 52.6897 89.3521 47.775 87.4745 43.2523C85.5969 38.7155 82.8086 34.5709 79.3478 31.0984C75.8729 27.6258 71.7254 24.8534 67.1857 22.9771C62.6459 21.1008 57.7419 20.1346 52.8378 20.1346C47.9337 20.1346 43.0157 21.1008 38.4899 22.9771C33.9501 24.8534 29.8027 27.6398 26.3278 31.0984C22.8529 34.5709 20.0786 38.7155 18.2011 43.2523C16.3235 47.789 15.3567 52.6897 15.3567 57.5905C15.3567 62.4913 16.3235 67.406 18.2011 71.9287C20.0786 76.4655 22.867 80.6101 26.3278 84.0826C29.8027 87.5552 33.9501 90.3276 38.4899 92.2039C43.0297 94.0802 47.9337 95.0464 52.8378 95.0464C57.7419 95.0464 62.6599 94.0802 67.1857 92.2039C71.7254 90.3276 75.8729 87.5412 79.3478 84.0826C82.8226 80.6101 85.5969 76.4655 87.4745 71.9287C89.3521 67.406 90.3189 62.4913 90.3189 57.5905H90.8933C90.8933 62.5753 89.9125 67.5461 88.0069 72.1528C86.1014 76.7595 83.271 80.9742 79.7541 84.4887C76.2372 88.0033 72.0057 90.8317 67.4099 92.736C62.8141 94.6403 57.8259 95.6205 52.8378 95.6205C47.8497 95.6205 42.8755 94.6403 38.2657 92.736C33.6559 90.8317 29.4384 88.0033 25.9215 84.4887C22.4046 80.9742 19.5742 76.7455 17.6686 72.1528C15.7631 67.5601 14.7823 62.5753 14.7823 57.5905C14.7823 52.6057 15.7631 47.6349 17.6686 43.0282C19.5742 38.4215 22.4046 34.2068 25.9215 30.6923C29.4384 27.1777 33.6699 24.3493 38.2657 22.445C42.8615 20.5407 47.8497 19.5605 52.8378 19.5605C57.8259 19.5605 62.8001 20.5407 67.4099 22.445C72.0197 24.3493 76.2372 27.1777 79.7541 30.6923C83.271 34.2068 86.1014 38.4355 88.0069 43.0282C89.9125 47.6209 90.8933 52.6057 90.8933 57.5905H90.3189Z" fill="white"/>
<path d="M57.0273 93.0725C64.4954 92.2043 71.6694 88.9138 77.1619 83.775C82.6685 78.6642 86.5497 71.7892 87.9369 64.396L91.8881 65.1521C90.3469 73.3854 86.0313 81.0306 79.8942 86.7155C73.7851 92.4284 65.7985 96.111 57.4896 97.0631L57.0273 93.0585V93.0725Z" fill="white"/>
<path d="M88.5814 57.4788C88.5814 52.6201 87.5586 47.7613 85.611 43.3086C83.6633 38.8559 80.791 34.8093 77.246 31.4908L79.9923 28.5503C83.9436 32.2469 87.1382 36.7416 89.296 41.6984C91.4678 46.6551 92.6028 52.06 92.6028 57.4648H88.5674L88.5814 57.4788Z" fill="white"/>
<path d="M46.5045 22.4172C39.4147 23.6634 32.7451 27.15 27.6309 32.2327C22.5026 37.3015 18.9717 43.9526 17.6686 51.0237C16.3515 58.0948 17.2063 65.586 20.1627 72.153C23.0911 78.734 28.0653 84.3769 34.2164 88.1295L32.1146 91.56C25.2629 87.3874 19.7424 81.1144 16.4777 73.7913C13.1849 66.4681 12.2321 58.1648 13.7034 50.2956C15.1465 42.4123 19.0838 35.0052 24.7865 29.3763C30.4612 23.7334 37.8874 19.8408 45.7899 18.4546L46.4905 22.4172H46.5045Z" fill="white"/>
</g>
<g opacity="0.3">
<path d="M77.2741 76.2835C79.7261 73.077 81.5476 69.4084 82.5845 65.5158C83.6213 61.6232 83.8875 57.5205 83.3551 53.5299C82.8227 49.5393 81.5056 45.6467 79.4879 42.1601C77.4702 38.6736 74.752 35.5931 71.5573 33.1427C68.3487 30.6923 64.6776 28.872 60.7824 27.8499C56.8872 26.8137 52.7818 26.5477 48.7884 27.0798C44.7951 27.6119 40.8999 28.9281 37.411 30.9444C33.9221 32.9607 30.8396 35.6771 28.3875 38.8696C25.9355 42.0761 24.114 45.7447 23.0771 49.6373C22.0403 53.5299 21.7741 57.6325 22.3065 61.6232C22.8389 65.6138 24.156 69.5064 26.1737 72.993C28.1914 76.4795 30.9096 79.56 34.1043 82.0104C37.3129 84.4608 40.984 86.281 44.8792 87.3032C48.7744 88.3394 52.8798 88.6054 56.8731 88.0733C60.8665 87.5412 64.7617 86.225 68.2506 84.2087C71.7395 82.1924 74.822 79.476 77.2741 76.2835L77.6524 76.5635C75.1583 79.812 72.0337 82.5705 68.4888 84.6148C64.9438 86.6591 60.9926 88.0033 56.9432 88.5494C52.8798 89.0815 48.7184 88.8294 44.7671 87.7653C40.8158 86.7151 37.0747 84.8668 33.824 82.3884C30.5733 79.896 27.8131 76.7735 25.7674 73.231C23.7217 69.6884 22.3766 65.7398 21.8301 61.6932C21.2977 57.6326 21.5499 53.4739 22.6148 49.5253C23.6656 45.5767 25.5152 41.8381 27.9952 38.5896C30.4893 35.3411 33.6139 32.5826 37.1588 30.5383C40.7037 28.494 44.655 27.1498 48.7044 26.6037C52.7677 26.0716 56.9292 26.3236 60.8805 27.3878C64.8317 28.438 68.5728 30.2863 71.8235 32.7647C75.0742 35.257 77.8345 38.3795 79.8802 41.9221C81.9259 45.4646 83.271 49.4133 83.8175 53.4599C84.3499 57.5205 84.0977 61.6792 83.0328 65.6278C81.982 69.5764 80.1324 73.315 77.6524 76.5635L77.2741 76.2835Z" fill="white"/>
<path d="M37.8454 82.8227C43.1418 85.9872 49.475 87.4155 55.6261 86.7994C61.7772 86.2113 67.7321 83.6629 72.3279 79.5322L74.5278 81.9966C69.4135 86.5893 62.772 89.4318 55.9344 90.0759C49.0967 90.762 42.0489 89.1797 36.15 85.6512L37.8454 82.8087V82.8227Z" fill="white"/>
<path d="M76.1952 75.3452C78.6192 72.1667 80.3846 68.4981 81.3374 64.6195C82.2902 60.7409 82.4443 56.6802 81.7858 52.7316L85.0505 52.1855C85.7791 56.5682 85.611 61.0909 84.5601 65.4036C83.5092 69.7163 81.5336 73.8049 78.8434 77.3335L76.2092 75.3312L76.1952 75.3452Z" fill="white"/>
<path d="M66.2749 31.5045C61.0206 28.7741 54.9395 27.7239 49.0687 28.4801C43.1978 29.2222 37.5792 31.7986 33.1935 35.7752C28.7939 39.7378 25.6132 45.0306 24.2681 50.7855C22.895 56.5404 23.3153 62.7014 25.4591 68.2183L22.3766 69.4085C19.9946 63.2755 19.5182 56.4284 21.0455 50.0154C22.5587 43.6024 26.0896 37.7075 30.9797 33.3108C35.8557 28.8861 42.1189 26.0297 48.6483 25.1895C55.1777 24.3354 61.9594 25.5116 67.8022 28.5501L66.289 31.4905L66.2749 31.5045Z" fill="white"/>
</g>
<g opacity="0.8">
<path d="M203.729 53.6981C203.645 51.3878 203.771 49.5115 203.995 47.9012C204.233 46.305 204.626 44.9888 205.06 43.9246C205.522 42.8604 205.957 42.0623 206.363 41.5302C206.741 40.9981 207.036 40.7321 207.036 40.7321C205.312 35.9574 202.692 31.5047 199.371 27.6821C199.371 27.6821 199.007 27.8081 198.348 27.8781C197.704 27.9481 196.751 27.9901 195.616 27.8361C194.481 27.6961 193.136 27.388 191.623 26.8139C190.096 26.2538 188.428 25.3857 186.439 24.1955C184.799 23.2014 183.076 22.3752 181.31 21.6611C179.545 20.947 177.709 20.3729 175.846 19.9669C173.982 19.5608 172.091 19.2807 170.171 19.1687C168.265 19.0707 166.346 19.0987 164.44 19.2807C162.142 19.5188 160.265 19.5748 158.639 19.4348C157.028 19.3088 155.683 19.0287 154.59 18.6647C153.511 18.3286 152.657 17.8805 152.11 17.5445C151.55 17.2084 151.269 16.9424 151.269 16.9424C146.127 19.2247 141.475 22.5573 137.664 26.6879C133.839 30.8046 130.882 35.7193 129.019 41.0122C129.019 41.0122 129.313 41.2782 129.692 41.7963C130.084 42.3284 130.56 43.1265 131.009 44.1766C131.233 44.7087 131.429 45.2968 131.625 45.9549C131.821 46.613 131.961 47.3411 132.102 48.1393C132.34 49.7355 132.466 51.6258 132.41 53.9362C132.354 56.5966 132.578 59.271 133.11 61.8754C133.643 64.4798 134.483 67.0282 135.576 69.4506C137.762 74.3094 141.083 78.636 145.16 82.0666C146.94 83.5508 148.285 84.853 149.322 86.1132C150.359 87.3454 151.087 88.5076 151.592 89.5578C152.11 90.5659 152.376 91.4901 152.516 92.1202C152.657 92.7503 152.671 93.1423 152.671 93.1423C157.547 95.1026 162.787 96.1108 168.027 96.1108C173.268 96.1108 178.522 95.1166 183.384 93.1703C188.26 91.224 192.758 88.3536 196.555 84.741C200.352 81.1424 203.477 76.8018 205.676 72.041C205.676 72.041 205.41 71.761 205.074 71.1869C204.906 70.9068 204.724 70.5568 204.542 70.1367C204.345 69.7166 204.149 69.2266 203.981 68.6805C203.897 68.4004 203.813 68.1204 203.743 67.8123C203.659 67.5043 203.589 67.1822 203.533 66.8462C203.477 66.5101 203.421 66.1601 203.379 65.782C203.337 65.418 203.281 65.0259 203.266 64.6199C203.238 63.8217 203.182 62.9256 203.266 61.9734C203.281 61.0073 203.393 59.9711 203.519 58.8229C203.617 58.1368 203.631 57.4507 203.701 56.7646C203.743 56.0785 203.743 55.3924 203.771 54.7063H202.244C202.244 59.187 201.361 63.6397 199.651 67.7703C197.942 71.901 195.406 75.6816 192.239 78.8461C189.073 82.0106 185.29 84.545 181.156 86.2532C177.023 87.9615 172.567 88.8436 168.083 88.8436C163.6 88.8436 159.144 87.9615 155.01 86.2532C150.877 84.545 147.094 82.0106 143.927 78.8461C140.761 75.6816 138.225 71.901 136.515 67.7703C134.806 63.6397 133.923 59.187 133.923 54.7063C133.923 50.2256 134.806 45.7729 136.515 41.6422C138.225 37.5116 140.761 33.731 143.927 30.5665C147.094 27.402 150.877 24.8676 155.01 23.1594C159.144 21.4511 163.6 20.5689 168.083 20.5689C172.567 20.5689 177.023 21.4511 181.156 23.1594C185.29 24.8676 189.073 27.402 192.239 30.5665C195.406 33.731 197.942 37.5116 199.651 41.6422C201.361 45.7729 202.244 50.2256 202.244 54.7063H203.771L203.743 53.6421L203.729 53.6981Z" fill="white"/>
</g>
<g opacity="0.3">
<path d="M180.133 82.3747C181.773 81.6606 183.132 81.0585 184.561 80.4424C185.752 79.9383 186.705 79.6022 187.461 79.3782C188.232 79.1682 188.764 79.0561 189.143 79.0421C189.521 79.0141 189.703 79.0421 189.703 79.0421C192.688 76.3957 195.154 73.1892 196.975 69.6467C196.975 69.6467 196.891 69.4786 196.835 69.1146C196.779 68.7505 196.709 68.1764 196.751 67.4063C196.779 65.8241 197.199 63.4157 197.858 59.5791C198.895 53.1941 197.802 46.5151 194.789 40.7882C192.94 37.3436 191.791 35.2013 191.259 33.703C190.698 32.2328 190.754 31.5047 190.754 31.5047C187.587 28.4242 183.79 26.0158 179.671 24.4336C175.552 22.8513 171.11 22.1372 166.696 22.3193C166.696 22.3193 166.584 22.4733 166.304 22.7113C166.01 22.9494 165.547 23.2574 164.861 23.6355C164.51 23.8175 164.104 23.9995 163.642 24.2236C163.179 24.4336 162.633 24.6436 162.044 24.8817C160.587 25.4278 159.2 25.9458 157.519 26.5619C155.403 27.3461 153.385 28.3682 151.508 29.6004C149.63 30.8326 147.893 32.2888 146.337 33.9131C143.213 37.1616 140.859 41.1242 139.458 45.3949C138.267 49.1055 137.538 51.4438 136.837 52.858C136.179 54.2863 135.604 54.7623 135.604 54.7623C135.604 58.879 136.403 62.9956 137.93 66.8182C139.458 70.6408 141.713 74.1694 144.558 77.1518C147.402 80.1343 150.807 82.5707 154.548 84.279C158.289 86.0012 162.353 86.9954 166.472 87.2054C166.472 87.2054 166.598 87.0654 166.906 86.8554C167.06 86.7574 167.257 86.6313 167.509 86.5053C167.761 86.3653 168.069 86.2253 168.434 86.0712C168.798 85.9312 169.218 85.7772 169.709 85.5952C169.947 85.5112 170.213 85.4271 170.493 85.3571C170.774 85.2731 171.068 85.1751 171.376 85.0911C172.875 84.685 174.304 84.307 176.042 83.8309C176.602 83.6909 177.149 83.4948 177.709 83.3268C178.256 83.1448 178.802 82.9208 179.349 82.7247L179.11 82.1506C175.523 83.5929 171.642 84.321 167.789 84.279C163.922 84.237 160.069 83.4248 156.51 81.8986C152.951 80.3724 149.7 78.16 146.996 75.3876C144.292 72.6291 142.148 69.3246 140.705 65.7401C139.261 62.1555 138.533 58.2769 138.575 54.4263C138.617 50.5617 139.43 46.7111 140.957 43.1545C142.484 39.598 144.698 36.3495 147.472 33.647C150.233 30.9446 153.539 28.8023 157.126 27.3601C160.713 25.9178 164.594 25.1897 168.448 25.2317C172.315 25.2737 176.168 26.0859 179.727 27.6121C183.286 29.1383 186.537 31.3507 189.241 34.1231C191.945 36.8815 194.089 40.1861 195.532 43.7706C196.975 47.3552 197.704 51.2338 197.662 55.0844C197.62 58.949 196.807 62.7996 195.28 66.3562C193.753 69.9127 191.539 73.1612 188.764 75.8636C186.004 78.5661 182.697 80.7084 179.11 82.1506L179.349 82.7247L180.175 82.3747H180.133Z" fill="white"/>
</g>
<g opacity="0.8">
<path d="M317.307 61.0915C317.685 59.0052 317.881 56.8769 317.895 54.7485H323.192C323.192 57.1849 322.968 59.6353 322.519 62.0437L317.307 61.0915Z" fill="white"/>
<path d="M312.067 73.5954C313.328 71.6351 314.393 69.5488 315.247 67.3784L320.712 69.5068C319.717 72.0411 318.47 74.4775 316.999 76.7739L312.081 73.5954H312.067Z" fill="white"/>
<path d="M302.511 83.1028C304.584 81.6466 306.504 79.9803 308.227 78.104L312.963 82.4447C310.932 84.657 308.648 86.6453 306.182 88.3536L302.511 83.0888V83.1028Z" fill="white"/>
<path d="M290.181 88.1995C292.843 87.5974 295.449 86.7153 297.901 85.4971L300.983 91.756C298.041 93.2263 294.888 94.2904 291.68 95.0186L290.181 88.1995Z" fill="white"/>
<path d="M276.926 88.2275C279.812 88.7456 282.768 88.8436 285.697 88.6056L286.341 96.1248C282.782 96.4188 279.181 96.2928 275.651 95.6627L276.94 88.2275H276.926Z" fill="white"/>
<path d="M264.778 83.2432C265.1 83.4532 265.436 83.6632 265.772 83.8453C266.109 84.0413 266.445 84.2373 266.795 84.4193C267.496 84.7694 268.182 85.1475 268.897 85.4555C269.598 85.7916 270.34 86.0576 271.055 86.3516C271.419 86.4917 271.797 86.6037 272.162 86.7297C272.526 86.8557 272.904 86.9817 273.283 87.0798L270.999 94.851C270.536 94.725 270.074 94.5849 269.612 94.4169C269.149 94.2629 268.687 94.1089 268.238 93.9408C267.342 93.5908 266.431 93.2407 265.548 92.8347C264.651 92.4566 263.797 91.9945 262.942 91.5605C262.522 91.3364 262.101 91.0844 261.681 90.8463C261.261 90.6083 260.84 90.3563 260.434 90.0902L264.764 83.2432H264.778Z" fill="white"/>
<path d="M255.502 74.0854C256.455 75.4437 257.505 76.7179 258.668 77.908C259.817 79.0982 261.036 80.2184 262.367 81.2266L257.071 88.0876C255.418 86.8274 253.876 85.4132 252.419 83.915C250.962 82.4168 249.645 80.8065 248.44 79.1122L255.502 74.0994V74.0854Z" fill="white"/>
<path d="M250.458 62.2118C251.214 65.6143 252.587 68.8768 254.367 71.8733L246.464 76.648C244.166 72.8114 242.443 68.6388 241.462 64.2701L250.458 62.1978V62.2118Z" fill="white"/>
<path d="M250.332 49.3996C250.037 51.2059 249.897 53.0542 249.897 54.8885C249.897 56.7368 250.079 58.5711 250.388 60.3773L240.734 62.0436C240.341 59.6912 240.117 57.3109 240.103 54.9305C240.103 52.5501 240.285 50.1698 240.678 47.8174L250.346 49.3996H250.332Z" fill="white"/>
<path d="M317.307 48.4194C317.685 50.5058 317.881 52.6341 317.895 54.7624H323.192C323.192 52.326 322.968 49.8757 322.519 47.4673L317.307 48.4194Z" fill="white"/>
<path d="M312.067 35.9153C313.328 37.8756 314.393 39.9619 315.247 42.1323L320.712 40.004C319.717 37.4696 318.47 35.0332 316.999 32.7368L312.081 35.9153H312.067Z" fill="white"/>
<path d="M302.511 26.4081C304.584 27.8643 306.504 29.5305 308.227 31.4068L312.963 27.0662C310.932 24.8538 308.648 22.8655 306.182 21.1572L302.511 26.4221V26.4081Z" fill="white"/>
<path d="M290.181 21.3113C292.843 21.9133 295.449 22.7955 297.901 24.0137L300.983 17.7547C298.041 16.2845 294.888 15.2203 291.68 14.4922L290.181 21.3113Z" fill="white"/>
<path d="M276.926 21.283C279.812 20.765 282.768 20.667 285.697 20.905L286.341 13.3858C282.782 13.0918 279.181 13.2178 275.651 13.8479L276.94 21.283H276.926Z" fill="white"/>
<path d="M264.778 26.2538C265.1 26.0438 265.436 25.8337 265.772 25.6517C266.109 25.4557 266.445 25.2597 266.795 25.0776C267.496 24.7276 268.182 24.3495 268.897 24.0415C269.598 23.7054 270.34 23.4394 271.055 23.1453C271.419 23.0053 271.797 22.8933 272.162 22.7673C272.526 22.6412 272.904 22.5152 273.283 22.4172L270.999 14.646C270.536 14.772 270.074 14.912 269.612 15.0801C269.149 15.2341 268.687 15.3881 268.238 15.5561C267.342 15.9062 266.431 16.2562 265.548 16.6623C264.651 17.0404 263.797 17.5024 262.942 17.9365C262.522 18.1605 262.101 18.4126 261.681 18.6506C261.261 18.8887 260.84 19.1407 260.434 19.4067L264.764 26.2538H264.778Z" fill="white"/>
<path d="M255.502 35.425C256.455 34.0668 257.505 32.7926 258.668 31.6024C259.817 30.4123 261.036 29.2921 262.367 28.2839L257.071 21.4229C255.418 22.683 253.876 24.0973 252.419 25.5955C250.962 27.0937 249.645 28.704 248.44 30.3983L255.502 35.411V35.425Z" fill="white"/>
<path d="M250.458 47.2991C251.214 43.8965 252.587 40.634 254.367 37.6375L246.464 32.8628C244.166 36.6994 242.443 40.8721 241.462 45.2407L250.458 47.3131V47.2991Z" fill="white"/>
</g>
<g opacity="0.5">
<path d="M258.823 66.188C259.509 67.6302 260.336 69.0164 261.275 70.3186L257.267 73.2311C256.16 71.6908 255.18 70.0526 254.353 68.3303L258.823 66.188Z" fill="white"/>
<path d="M256.539 56.2188C256.637 57.969 256.903 59.7193 257.351 61.4136L252.055 62.7998C251.523 60.7415 251.186 58.6411 251.074 56.5128L256.553 56.2188H256.539Z" fill="white"/>
<path d="M258.206 46.2069C257.576 48.0132 257.155 49.8755 256.931 51.7798L250.962 51.0937C251.242 48.7693 251.761 46.4729 252.531 44.2466L258.206 46.2209V46.2069Z" fill="white"/>
<path d="M263.502 37.6934C262.143 39.2336 260.952 40.9139 260 42.7342L254.227 39.6957C255.418 37.4133 256.917 35.299 258.612 33.3667L263.488 37.7074L263.502 37.6934Z" fill="white"/>
<path d="M271.573 31.8827C269.597 32.8349 267.762 34.081 266.095 35.5093L261.485 30.1744C263.615 28.3541 265.94 26.7719 268.477 25.5537L271.587 31.8827H271.573Z" fill="white"/>
<path d="M281.143 29.6002C279.98 29.6703 278.817 29.8243 277.682 30.0623C276.533 30.2864 275.412 30.6084 274.319 31.0005L271.769 23.8593C273.198 23.3553 274.67 22.9352 276.155 22.6412C277.64 22.3191 279.153 22.1371 280.667 22.0391L281.143 29.6002Z" fill="white"/>
<path d="M290.769 31.1406C289.606 30.7485 288.401 30.4265 287.182 30.2164C285.963 30.0064 284.73 29.8524 283.497 29.8384L283.735 21.7451C285.375 21.7871 287 21.9692 288.611 22.2492C290.223 22.5292 291.806 22.9353 293.361 23.4674L290.769 31.1406Z" fill="white"/>
<path d="M298.98 36.1392C297.032 34.417 294.79 33.0447 292.394 32.0226L295.757 24.0693C298.98 25.4556 302.02 27.3038 304.655 29.6282L298.98 36.1252V36.1392Z" fill="white"/>
<path d="M304.627 43.8404C304.01 42.6222 303.295 41.4601 302.497 40.3399C301.684 39.2337 300.787 38.2116 299.807 37.2454L306.196 30.6924C307.541 32.0086 308.774 33.4228 309.881 34.935C310.974 36.4473 311.969 38.0575 312.809 39.7238L304.627 43.8264V43.8404Z" fill="white"/>
<path d="M264.455 73.9451C263.292 72.8389 262.241 71.6207 261.289 70.3325L257.281 73.245C258.402 74.7852 259.663 76.2274 261.036 77.5296L264.455 73.9451Z" fill="white"/>
<path d="M273.226 79.21C271.587 78.5799 270.018 77.7677 268.533 76.8296L265.562 81.4363C267.356 82.5845 269.261 83.5506 271.237 84.3208L273.226 79.21Z" fill="white"/>
<path d="M283.273 80.7363C281.367 80.7643 279.448 80.5963 277.584 80.2183L276.393 86.0992C278.691 86.5613 281.045 86.7713 283.385 86.7293L283.273 80.7223V80.7363Z" fill="white"/>
<path d="M293.011 78.3558C291.133 79.1679 289.158 79.77 287.126 80.1061L288.233 86.5331C290.769 86.113 293.249 85.3429 295.617 84.3207L293.011 78.3418V78.3558Z" fill="white"/>
<path d="M301.054 72.4888C299.54 74.071 297.775 75.4292 295.897 76.5774L299.54 82.6124C301.936 81.1561 304.164 79.4339 306.112 77.4035L301.054 72.4888Z" fill="white"/>
<path d="M306.182 64.1157C305.747 65.1939 305.257 66.2581 304.669 67.2662C304.094 68.2884 303.436 69.2545 302.735 70.1787L308.732 74.8134C309.657 73.6092 310.511 72.349 311.254 71.0328C312.011 69.7166 312.669 68.3444 313.23 66.9302L306.182 64.1297V64.1157Z" fill="white"/>
<path d="M307.723 54.4963C307.737 55.7285 307.667 56.9747 307.485 58.1929C307.317 59.4111 307.064 60.6292 306.7 61.8194L314.477 64.1018C314.953 62.5335 315.275 60.9373 315.513 59.313C315.752 57.7028 315.85 56.0645 315.836 54.4263L307.737 54.4963H307.723Z" fill="white"/>
<path d="M305.509 45.1286C306.546 47.509 307.149 50.0714 307.387 52.6618L315.99 51.9477C315.682 48.4471 314.855 44.9886 313.468 41.7681L305.523 45.1426L305.509 45.1286Z" fill="white"/>
</g>
<g opacity="0.6">
<path d="M256.805 37.5537C255.768 39.1219 254.871 40.7882 254.115 42.5244L248.762 40.2421C249.645 38.1978 250.71 36.2095 251.943 34.3472L256.791 37.5537H256.805Z" fill="white"/>
<path d="M265.478 29.2225C263.769 30.3707 262.171 31.7009 260.728 33.1712L256.132 28.6624C257.884 26.8842 259.803 25.2739 261.877 23.8877L265.478 29.2225Z" fill="white"/>
<path d="M276.575 24.8679C274.389 25.33 272.246 26.0161 270.2 26.9402L267.3 20.5132C269.808 19.3791 272.442 18.5249 275.146 17.9648L276.589 24.8679H276.575Z" fill="white"/>
<path d="M288.359 25.0638C285.991 24.6297 283.567 24.4337 281.171 24.5877L280.765 16.9285C283.791 16.7465 286.818 16.9845 289.802 17.5306L288.373 25.0638H288.359Z" fill="white"/>
<path d="M299.078 29.6985C296.92 28.2843 294.566 27.1781 292.114 26.366L294.72 18.5107C297.845 19.5469 300.829 20.9611 303.59 22.7674L299.078 29.7125V29.6985Z" fill="white"/>
<path d="M307.135 37.9458C306.364 36.8116 305.509 35.7335 304.57 34.7393C303.66 33.7172 302.651 32.793 301.6 31.9109L307.261 25.0498C308.634 26.184 309.937 27.4022 311.142 28.7324C312.361 30.0346 313.468 31.4488 314.477 32.905L307.149 37.9458H307.135Z" fill="white"/>
<path d="M311.408 48.5597C311.1 47.1455 310.694 45.7453 310.175 44.3871C309.657 43.0288 309.054 41.6986 308.34 40.4384L316.648 35.8037C317.601 37.47 318.4 39.2202 319.073 41.0125C319.759 42.8048 320.306 44.6531 320.712 46.5294L311.408 48.5457V48.5597Z" fill="white"/>
<path d="M311.31 59.8592C311.871 56.8628 311.899 53.7683 311.492 50.7438L321.525 49.3296C322.085 53.4182 322.029 57.5909 321.286 61.6515L311.31 59.8592Z" fill="white"/>
<path d="M306.952 70.1788C307.807 68.8206 308.55 67.3924 309.194 65.9221C309.825 64.4379 310.315 62.9117 310.694 61.3574L321.16 63.8358C320.642 65.9781 319.969 68.0785 319.115 70.1088C318.246 72.1251 317.223 74.0854 316.046 75.9477L306.98 70.1788H306.952Z" fill="white"/>
<path d="M252.377 47.8872C252.798 46.0529 253.372 44.2467 254.115 42.5104L248.762 40.228C247.893 42.2863 247.193 44.4147 246.703 46.599L252.377 47.8872Z" fill="white"/>
<path d="M252.363 59.9013C252.013 57.871 251.873 55.7986 251.943 53.7403L245.511 53.5303C245.427 56.0227 245.596 58.5291 246.016 60.9794L252.363 59.9013Z" fill="white"/>
<path d="M256.875 70.9207C255.698 69.0164 254.717 66.9861 253.961 64.8857L247.305 67.2241C248.23 69.8145 249.435 72.3209 250.878 74.6593L256.861 70.9347L256.875 70.9207Z" fill="white"/>
<path d="M265.156 79.308C263.208 77.8938 261.401 76.2835 259.831 74.4492L254.017 79.434C255.978 81.7304 258.248 83.7747 260.7 85.539L265.156 79.308Z" fill="white"/>
<path d="M275.917 83.8588C273.409 83.2848 270.971 82.3326 268.687 81.1284L264.791 88.4376C267.692 89.9778 270.788 91.168 273.997 91.9101L275.903 83.8588H275.917Z" fill="white"/>
<path d="M287.448 83.9707C286.089 84.1947 284.73 84.3208 283.357 84.3348C281.984 84.3768 280.611 84.2928 279.251 84.1387L278.201 92.9741C279.966 93.1841 281.76 93.2822 283.539 93.2401C285.318 93.2121 287.098 93.0441 288.863 92.7641L287.448 83.9847V83.9707Z" fill="white"/>
<path d="M298.069 79.7144C296.836 80.4705 295.547 81.1426 294.202 81.7027C292.871 82.2628 291.498 82.7528 290.082 83.1029L292.464 92.3163C294.328 91.8543 296.149 91.2102 297.915 90.468C299.68 89.7259 301.404 88.8438 303.029 87.8356L298.069 79.7144Z" fill="white"/>
<path d="M306.182 71.8452C304.402 74.3236 302.188 76.4799 299.708 78.2722L305.621 86.4915C308.956 84.0691 311.955 81.1567 314.365 77.8101L306.182 71.8452Z" fill="white"/>
</g>
<path d="M52.8238 60.8675C54.6346 60.8675 56.1025 59.4005 56.1025 57.591C56.1025 55.7814 54.6346 54.3145 52.8238 54.3145C51.013 54.3145 49.5451 55.7814 49.5451 57.591C49.5451 59.4005 51.013 60.8675 52.8238 60.8675Z" fill="white"/>
<path d="M52.8238 57.5908V49.9316" stroke="white" stroke-width="0.33" stroke-miterlimit="10"/>
<path d="M52.8238 65.236V57.5908" stroke="white" stroke-width="0.33" stroke-miterlimit="10"/>
<path d="M52.8238 57.5908H60.4741" stroke="white" stroke-width="0.33" stroke-miterlimit="10"/>
<path d="M52.8238 57.5908H45.1594" stroke="white" stroke-width="0.33" stroke-miterlimit="10"/>
<path d="M171.362 54.7482C171.362 56.5545 169.891 58.0247 168.083 58.0247C166.276 58.0247 164.805 56.5545 164.805 54.7482C164.805 52.9419 166.276 51.4717 168.083 51.4717C169.891 51.4717 171.362 52.9419 171.362 54.7482Z" fill="white"/>
<path d="M168.083 54.7482V47.103" stroke="white" stroke-width="0.33" stroke-miterlimit="10"/>
<path d="M168.083 62.4072V54.748" stroke="white" stroke-width="0.33" stroke-miterlimit="10"/>
<path d="M168.083 54.748H175.734" stroke="white" stroke-width="0.33" stroke-miterlimit="10"/>
<path d="M168.083 54.748H160.419" stroke="white" stroke-width="0.33" stroke-miterlimit="10"/>
<path d="M282.446 58.0247C284.257 58.0247 285.725 56.5578 285.725 54.7482C285.725 52.9386 284.257 51.4717 282.446 51.4717C280.635 51.4717 279.167 52.9386 279.167 54.7482C279.167 56.5578 280.635 58.0247 282.446 58.0247Z" fill="white"/>
<path d="M282.446 54.7482V47.103" stroke="white" stroke-width="0.33" stroke-miterlimit="10"/>
<path d="M282.446 62.4072V54.748" stroke="white" stroke-width="0.33" stroke-miterlimit="10"/>
<path d="M282.446 54.748H290.11" stroke="white" stroke-width="0.33" stroke-miterlimit="10"/>
<path d="M282.446 54.748H274.796" stroke="white" stroke-width="0.33" stroke-miterlimit="10"/>
<path d="M314.252 0.503906H332.187V15.6403" stroke="white" stroke-width="0.71" stroke-miterlimit="10"/>
<path d="M1.89157 96.5728V114.496H17.0381" stroke="white" stroke-width="0.71" stroke-miterlimit="10"/>
</g>
<defs>
<linearGradient id="paint0_linear_2669_373" x1="169.919" y1="279.61" x2="165.637" y2="1.46998" gradientUnits="userSpaceOnUse">
<stop offset="0.09" stop-color="white"/>
<stop offset="1" stop-color="white"/>
</linearGradient>
<clipPath id="clip0_2669_373">
<rect width="333" height="115" fill="white"/>
</clipPath>
</defs>
</svg>
