<svg width="291" height="181" viewBox="0 0 291 181" fill="none" xmlns="http://www.w3.org/2000/svg">
<path d="M10 4V25.0254V177C10 178.657 11.3431 180 13 180H29.18C29.831 180 30.4643 179.788 30.9844 179.397L44.1186 169.508C44.6386 169.117 45.272 168.905 45.923 168.905H241.744C242.492 168.905 243.212 169.184 243.765 169.688L254.221 179.217C254.774 179.721 255.494 180 256.242 180H287C288.657 180 290 178.657 290 177V4C290 2.34315 288.657 1 287 1H256.191C255.474 1 254.781 1.25685 254.237 1.72403L243.749 10.7302C243.205 11.1974 242.512 11.4542 241.795 11.4542H45.8759C45.254 11.4542 44.6474 11.2609 44.1402 10.9011L30.9628 1.55315C30.4556 1.1933 29.849 1 29.227 1H13C11.3431 1 10 2.34314 10 4Z" fill="#003F62" fill-opacity="0.27" stroke="white" stroke-width="0.6"/>
<path d="M0.754557 21.435L10 11V110L0.607306 97.5815C0.213234 97.0604 0 96.425 0 95.7718V23.4245C0 22.6914 0.268414 21.9837 0.754557 21.435Z" fill="white"/>
<path d="M0.763031 139.337L10 129V176L0.614785 163.697C0.216002 163.174 0 162.535 0 161.878V141.336C0 140.598 0.271634 139.887 0.763031 139.337Z" fill="white"/>
</svg>
