<svg width="622" height="110" viewBox="0 0 622 110" fill="none" xmlns="http://www.w3.org/2000/svg">
<g clip-path="url(#clip0_3079_640)">
<path fill-rule="evenodd" clip-rule="evenodd" d="M1342 0H-98V900H1342V0ZM13 27V305.848C13 307.956 13.6662 310.01 14.9034 311.717L44.8288 353C48.7879 358.462 50.9198 365.035 50.9198 371.781V528.083C50.9198 534.591 48.9352 540.945 45.2309 546.296L14.7778 590.289C13.6202 591.961 13 593.947 13 595.981V871C13 879.284 19.7157 886 28 886H1316C1324.28 886 1331 879.284 1331 871V598.742C1331 596.833 1330.45 594.963 1329.42 593.355L1299.12 545.961C1295.83 540.813 1294.08 534.831 1294.08 528.721V369.249C1294.08 362.543 1296.19 356.006 1300.1 350.562L1329.05 310.318C1330.32 308.561 1330.98 306.44 1330.93 304.276L1326.3 75.7478C1326.13 67.5838 1319.47 61.0519 1311.3 61.0519H1171.24C1166.87 61.0519 1162.62 59.6186 1159.13 56.9714L1100.54 12.4081C1100.19 12.1433 1099.76 12 1099.33 12H960.942C958.969 12 957.04 12.5837 955.398 13.6776L928.982 31.2749C928.654 31.4937 928.268 31.6104 927.873 31.6104H914.68C914.245 31.6104 913.821 31.7526 913.474 32.0154L883.657 54.572C878.099 58.7767 871.32 61.0519 864.351 61.0519H377.856C370.749 61.0519 363.845 58.6862 358.231 54.3279L329.513 32.0306C329.162 31.7582 328.731 31.6104 328.287 31.6104H317.103C316.709 31.6104 316.323 31.4937 315.995 31.2749L289.579 13.6776C287.937 12.5837 286.008 12 284.035 12H28C19.7157 12 13 18.7157 13 27Z" fill="#F4F9FB"/>
</g>
<defs>
<clipPath id="clip0_3079_640">
<rect width="622" height="110" fill="white"/>
</clipPath>
</defs>
</svg>
