<svg width="301" height="282" viewBox="0 0 301 282" fill="none" xmlns="http://www.w3.org/2000/svg">
<path d="M1.41795 106.815L68.4383 20.158C68.8171 19.6683 69.4013 19.3816 70.0204 19.3816H144.195C144.725 19.3816 145.233 19.171 145.608 18.7962L162.831 1.58533C163.206 1.21053 163.714 1 164.244 1H292.924C296.79 1 299.924 4.13401 299.924 8V84.378L300 201.264C300 201.707 299.853 202.137 299.583 202.487L239.6 280.222C239.222 280.713 238.637 281 238.017 281H8C4.13401 281 1 277.866 1 274V108.038C1 107.595 1.147 107.165 1.41795 106.815Z" fill="#488492" fill-opacity="0.2" stroke="white" stroke-width="0.6"/>
</svg>
