<svg width="331" height="97" viewBox="0 0 331 97" fill="none" xmlns="http://www.w3.org/2000/svg">
<path d="M66.0312 40.8961H72.4095C72.9598 42.2468 73.6852 43.3724 74.5857 44.2728C76.8368 46.524 79.7383 47.6496 83.2901 47.6496C86.4918 47.6496 88.843 47.1243 90.3438 46.0738C91.8946 45.0232 92.67 43.6725 92.67 42.0217C92.67 41.1212 92.3448 40.3458 91.6945 39.6955C91.0942 39.0451 90.0937 38.4698 88.6929 37.9696C87.2922 37.4693 86.0416 37.0941 84.941 36.844C83.8905 36.5438 82.3397 36.1937 80.2886 35.7935C72.0343 34.0926 67.9072 30.4157 67.9072 24.7628C67.9072 21.8112 69.1579 19.335 71.6592 17.3339C74.1604 15.2829 77.6622 14.2573 82.1646 14.2573C87.7675 14.2573 92.1947 16.1333 95.4464 19.8853C96.7471 21.5861 97.6976 23.4621 98.2979 25.5132H91.9196C91.4694 24.5126 90.819 23.5872 89.9686 22.7367C88.0676 20.8357 85.4663 19.8853 82.1646 19.8853C79.5132 19.8853 77.4621 20.3855 76.0114 21.386C74.6107 22.3865 73.9103 23.5121 73.9103 24.7628C73.9103 25.6632 74.2105 26.4386 74.8108 27.089C75.4611 27.7393 76.4866 28.3146 77.8874 28.8149C79.2881 29.3151 80.5137 29.7153 81.5643 30.0155C82.6648 30.2656 84.2406 30.5908 86.2917 30.991C94.5459 32.6919 98.6731 36.3688 98.6731 42.0217C98.6731 45.2233 97.3224 47.8997 94.621 50.0508C91.9196 52.2019 88.1427 53.2775 83.2901 53.2775C77.187 53.2775 72.4846 51.2264 69.1829 47.1243C67.7822 45.3234 66.7316 43.2473 66.0312 40.8961Z" fill="white"/>
<path d="M99.7811 20.6356V15.0077H104.659V6.75348H110.662V15.0077H122.668V20.6356H110.662V46.8992H123.043V52.5271H104.659V20.6356H99.7811Z" fill="white"/>
<path d="M129.814 47.7246C126.312 43.9727 124.561 39.3203 124.561 33.7674C124.561 28.2145 126.312 23.5872 129.814 19.8853C133.316 16.1333 137.568 14.2573 142.571 14.2573C145.722 14.2573 148.374 14.8577 150.525 16.0583C152.726 17.2589 154.327 18.5596 155.327 19.9603L156.003 21.0859H156.078V15.0077H162.081V52.5271H156.078V46.524H156.003L155.327 47.5745C154.427 48.9252 152.876 50.2259 150.675 51.4765C148.474 52.6772 145.772 53.2775 142.571 53.2775C137.568 53.2775 133.316 51.4265 129.814 47.7246ZM134.166 23.7873C131.765 26.3886 130.565 29.7153 130.565 33.7674C130.565 37.8195 131.765 41.1462 134.166 43.7476C136.618 46.3489 139.669 47.6496 143.321 47.6496C146.973 47.6496 150 46.3489 152.401 43.7476C154.852 41.1462 156.078 37.8195 156.078 33.7674C156.078 29.7153 154.852 26.3886 152.401 23.7873C150 21.1859 146.973 19.8853 143.321 19.8853C139.669 19.8853 136.618 21.1859 134.166 23.7873Z" fill="white"/>
<path d="M166.882 52.5271V15.0077H172.885V21.0108H172.96C173.66 19.7602 174.511 18.7096 175.511 17.8592C177.963 15.7081 180.964 15.0077 184.516 15.0077H188.453V20.6356H184.516C181.114 20.6356 178.313 21.7362 176.112 23.9373C173.961 26.0884 172.885 28.8649 172.885 32.2666V52.5271H166.882Z" fill="white"/>
<path d="M191.574 20.6356V15.0077H196.246V6.75348H202.249V15.0077H214.255V20.6356H202.249V46.8992H214.631V52.5271H196.246V20.6356H191.574Z" fill="white"/>
<path d="M220.496 47.7246C216.844 44.0227 215.018 39.3703 215.018 33.7674C215.018 28.1645 216.844 23.5121 220.496 19.8102C224.148 16.1083 228.7 14.2573 234.153 14.2573C239.606 14.2573 244.158 16.0833 247.81 19.7352C251.462 23.3871 253.288 27.9394 253.288 33.3922V35.6434H221.021C221.422 39.1452 222.847 42.0217 225.299 44.2728C227.75 46.524 230.701 47.6496 234.153 47.6496C237.855 47.6496 241.032 46.524 243.683 44.2728C244.884 43.2723 245.834 42.1467 246.534 40.8961H252.538C251.637 43.2473 250.361 45.3234 248.711 47.1243C244.809 51.2264 239.956 53.2775 234.153 53.2775C228.7 53.2775 224.148 51.4265 220.496 47.7246ZM221.171 30.3907H246.91C246.459 27.4391 245.084 24.9629 242.783 22.9618C240.481 20.9108 237.605 19.8853 234.153 19.8853C230.701 19.8853 227.8 20.9108 225.449 22.9618C223.097 24.9629 221.672 27.4391 221.171 30.3907Z" fill="white"/>
<path d="M260.93 47.7246C257.328 44.0227 255.527 39.3703 255.527 33.7674C255.527 28.1645 257.328 23.5121 260.93 19.8102C264.532 16.1083 268.984 14.2573 274.287 14.2573C280.44 14.2573 285.318 16.4585 288.92 20.8608C290.47 22.8118 291.596 24.9879 292.296 27.3891H286.293C285.743 26.0384 284.918 24.7878 283.817 23.6372C281.416 21.1359 278.239 19.8853 274.287 19.8853C270.635 19.8853 267.584 21.1859 265.132 23.7873C262.731 26.3886 261.53 29.7153 261.53 33.7674C261.53 37.8195 262.781 41.1462 265.282 43.7476C267.784 46.3489 270.785 47.6496 274.287 47.6496C278.389 47.6496 281.666 46.2739 284.117 43.5224C285.218 42.3718 286.068 40.9961 286.668 39.3953H292.672C292.021 41.9466 290.871 44.2728 289.22 46.3739C285.418 50.9763 280.44 53.2775 274.287 53.2775C268.984 53.2775 264.532 51.4265 260.93 47.7246Z" fill="white"/>
<path d="M296.456 52.5271V0H302.459V20.6356H302.534C303.284 19.435 304.26 18.3845 305.46 17.484C308.212 15.3329 311.463 14.2573 315.215 14.2573C319.768 14.2573 323.395 15.7081 326.096 18.6096C328.847 21.4611 330.223 25.3881 330.223 30.3907V52.5271H324.22V30.7659C324.22 27.164 323.32 24.4626 321.519 22.6617C319.718 20.8107 317.241 19.8853 314.09 19.8853C310.638 19.8853 307.837 21.0358 305.685 23.337C303.534 25.5882 302.459 28.5647 302.459 32.2666V52.5271H296.456Z" fill="white"/>
<mask id="mask0_2669_2843" style="mask-type:alpha" maskUnits="userSpaceOnUse" x="66" y="57" width="137" height="32">
<path d="M66.1445 57.6641H202.107V88.4145H66.1445V57.6641Z" fill="white"/>
</mask>
<g mask="url(#mask0_2669_2843)">
<path d="M173.609 77.8223H176.889C177.172 78.5168 177.545 79.0956 178.008 79.5586C179.165 80.7161 180.657 81.2949 182.484 81.2949C184.13 81.2949 185.339 81.0248 186.111 80.4846C186.908 79.9445 187.307 79.2499 187.307 78.4011C187.307 77.9381 187.14 77.5394 186.805 77.205C186.496 76.8706 185.982 76.5748 185.262 76.3176C184.542 76.0603 183.898 75.8674 183.333 75.7388C182.792 75.5845 181.995 75.4044 180.94 75.1986C176.696 74.324 174.574 72.4334 174.574 69.5268C174.574 68.0091 175.217 66.7359 176.503 65.7069C177.789 64.6523 179.59 64.125 181.905 64.125C184.786 64.125 187.062 65.0896 188.734 67.0188C189.403 67.8934 189.892 68.858 190.201 69.9126H186.921C186.689 69.3982 186.355 68.9223 185.918 68.485C184.94 67.5075 183.603 67.0188 181.905 67.0188C180.542 67.0188 179.487 67.276 178.741 67.7905C178.021 68.3049 177.661 68.8837 177.661 69.5268C177.661 69.9898 177.815 70.3885 178.124 70.7229C178.458 71.0573 178.985 71.3531 179.706 71.6103C180.426 71.8675 181.056 72.0733 181.596 72.2276C182.162 72.3563 182.972 72.5235 184.027 72.7292C188.271 73.6038 190.393 75.4944 190.393 78.4011C190.393 80.0473 189.699 81.4235 188.31 82.5296C186.921 83.6357 184.979 84.1887 182.484 84.1887C179.346 84.1887 176.928 83.1341 175.23 81.0248C174.51 80.0988 173.969 79.0313 173.609 77.8223Z" fill="white"/>
<path d="M154.881 81.3324C153.08 79.4032 152.18 77.011 152.18 74.1558C152.18 71.3006 153.08 68.9212 154.881 67.0177C156.681 65.0885 158.868 64.1239 161.44 64.1239C163.06 64.1239 164.437 64.4326 165.568 65.05C166.7 65.6673 167.51 66.3232 167.999 67.0177L168.346 67.5965H168.385V56.793H171.472V83.8018H168.385V80.7151H168.346L167.999 81.2552C167.536 81.9498 166.739 82.6186 165.607 83.2616C164.475 83.879 163.086 84.1876 161.44 84.1876C158.868 84.1876 156.681 83.2359 154.881 81.3324ZM157.118 69.0241C155.884 70.3617 155.266 72.0722 155.266 74.1558C155.266 76.2393 155.884 77.9499 157.118 79.2875C158.379 80.625 159.948 81.2938 161.826 81.2938C163.703 81.2938 165.26 80.625 166.494 79.2875C167.755 77.9499 168.385 76.2393 168.385 74.1558C168.385 72.0722 167.755 70.3617 166.494 69.0241C165.26 67.6865 163.703 67.0177 161.826 67.0177C159.948 67.0177 158.379 67.6865 157.118 69.0241Z" fill="white"/>
<path d="M140.609 83.8013V64.5093H143.696V67.596H143.735C144.095 66.953 144.532 66.4128 145.047 65.9755C146.307 64.8694 147.85 64.3164 149.677 64.3164H151.992V67.4031H149.677C147.927 67.4031 146.487 67.969 145.355 69.1008C144.249 70.2069 143.696 71.6345 143.696 73.3837V83.8013H140.609Z" fill="white"/>
<path d="M120.533 81.3335C118.732 79.4043 117.832 77.0121 117.832 74.1569C117.832 71.3016 118.732 68.9223 120.533 67.0188C122.334 65.0896 124.52 64.125 127.092 64.125C128.713 64.125 130.076 64.4337 131.182 65.051C132.314 65.6684 133.137 66.3372 133.651 67.0574L133.999 67.6361H134.037V64.5108H137.124V83.8029H134.037V80.7161H133.999L133.651 81.2563C133.188 81.9508 132.391 82.6196 131.259 83.2627C130.127 83.88 128.738 84.1887 127.092 84.1887C124.52 84.1887 122.334 83.237 120.533 81.3335ZM122.771 69.0252C121.536 70.3628 120.919 72.0733 120.919 74.1569C120.919 76.2404 121.536 77.9509 122.771 79.2885C124.031 80.6261 125.6 81.2949 127.478 81.2949C129.356 81.2949 130.912 80.6261 132.147 79.2885C133.407 77.9509 134.037 76.2404 134.037 74.1569C134.037 72.0733 133.407 70.3628 132.147 69.0252C130.912 67.6876 129.356 67.0188 127.478 67.0188C125.6 67.0188 124.031 67.6876 122.771 69.0252Z" fill="white"/>
<path d="M89.457 64.5098H92.7367L96.2092 80.908H97.1738L100.453 64.5098H106.048L109.328 80.908H110.292L113.765 64.5098H117.045L112.8 83.8018H106.82L103.54 67.4036H102.961L99.6818 83.8018H93.7013L89.457 64.5098Z" fill="white"/>
<path d="M70.9235 81.3335C69.123 79.4043 68.2227 77.0121 68.2227 74.1569C68.2227 71.3016 69.123 68.9223 70.9235 67.0188C72.7241 65.0896 74.9106 64.125 77.4828 64.125C79.1034 64.125 80.4667 64.4337 81.5727 65.051C82.7045 65.6684 83.5277 66.3372 84.0421 67.0574L84.3894 67.6361H84.428V64.5108H87.5147V83.8029H84.428V80.7161H84.3894L84.0421 81.2563C83.5791 81.9508 82.7817 82.6196 81.6499 83.2627C80.5181 83.88 79.1291 84.1887 77.4828 84.1887C74.9106 84.1887 72.7241 83.237 70.9235 81.3335ZM73.1614 69.0252C71.9267 70.3628 71.3094 72.0733 71.3094 74.1569C71.3094 76.2404 71.9267 77.9509 73.1614 79.2885C74.4218 80.6261 75.9909 81.2949 77.8687 81.2949C79.7464 81.2949 81.3026 80.6261 82.5373 79.2885C83.7977 77.9509 84.428 76.2404 84.428 74.1569C84.428 72.0733 83.7977 70.3628 82.5373 69.0252C81.3026 67.6876 79.7464 67.0188 77.8687 67.0188C75.9909 67.0188 74.4218 67.6876 73.1614 69.0252Z" fill="white"/>
</g>
<path d="M10.7792 56.1474C9.60397 55.5061 8.39155 56.9637 9.21442 58.0207C12.8692 62.7106 17.7517 66.2779 21.9514 70.4841C30.7206 78.4765 39.4746 86.3616 47.7361 94.8813C48.513 95.6823 47.9287 97.0217 46.8147 96.9998C46.3048 96.9888 45.7905 96.9779 45.274 96.9845C45.0552 96.9801 44.7838 96.8531 44.6328 96.6934C40.9868 92.822 37.2992 88.9877 33.2396 85.5431C27.7968 80.9669 22.1856 76.59 16.9069 71.8191C9.7309 65.7876 1.58974 59.0318 0.0315446 49.2449C0.0249792 49.2077 0.0206022 49.1705 0.0162253 49.1333C-0.283597 45.7783 3.63598 44.4587 6.46131 45.995C9.76591 47.6254 13.0661 49.2712 16.3751 50.8928C26.3546 55.7578 36.7368 60.1895 47.7995 61.8527C48.2657 61.9228 49.1345 61.949 49.3993 61.3385C49.6466 60.7651 49.651 60.2136 49.1389 59.7518C37.831 49.5557 20.6011 45.7608 11.0199 33.1661C10.998 33.1377 10.9783 33.1092 10.9586 33.0786C5.60561 24.9943 12.0201 17.5294 21.0563 19.7288C29.2478 21.2323 36.7061 27.8766 45.0749 26.4322C49.1805 25.7231 46.2698 21.1492 44.6372 19.4662C40.7176 15.0236 36.879 10.6072 32.8982 6.23028C32.1694 5.43367 32.7384 4.14903 33.8217 4.14684C35.544 4.14247 37.2664 4.17967 38.9931 4.17311C39.2273 4.17311 39.5271 4.30004 39.6868 4.46855C44.2958 9.77124 50.0668 14.3627 52.9556 20.9128C55.3214 25.8216 52.345 30.9382 47.2262 32.2382C37.9032 34.4136 28.6678 28.137 19.4828 26.6773C18.4279 26.5088 17.6488 27.6533 18.2135 28.5616C22.4504 35.3765 37.61 43.4235 43.4138 47.783C47.6901 50.639 51.9839 53.473 56.2274 56.3772C57.9103 57.5305 59.4182 58.918 60.6197 60.5922C63.5216 64.3629 61.0946 68.9872 56.9233 70.0727C54.9384 70.6614 52.9053 70.7336 50.8656 70.576C40.2777 69.7751 30.2501 65.873 20.7368 61.3647C17.2221 59.6686 14.2151 58.0754 10.812 56.1649C10.8033 56.1583 10.7923 56.1539 10.7814 56.1496L10.7792 56.1474Z" fill="white"/>
</svg>
