<svg xmlns="http://www.w3.org/2000/svg" width="1103" height="1100" fill="none"><g stroke="#244357" stroke-miterlimit="10" stroke-width=".65" clip-path="url(#a)" opacity=".3"><path d="M1103 554.918h-22.39c-.15 69.241-14.24 138.482-41.05 202.385-26.74 63.979-66.343 122.468-115.544 171.272-49.126 48.88-107.924 87.995-171.978 114.305-64.053 26.39-133.286 39.81-202.594 39.66-69.309-.08-138.466-13.96-202.367-40.65-63.901-26.69-122.547-66.036-171.368-115.145-48.897-49.109-88.121-107.827-114.55-171.882-26.505-64.056-40.138-133.373-40.138-202.69 0-69.394 13.633-138.634 40.138-202.69 26.429-64.055 65.653-122.849 114.55-171.882 48.897-49.109 107.467-88.534 171.368-115.147 63.901-26.69 133.058-40.569 202.367-40.645 69.308-.153 138.541 13.268 202.594 39.653 64.054 26.309 122.852 65.428 171.978 114.233 49.201 48.804 88.804 107.292 115.544 171.272 26.81 63.903 40.9 133.143 41.05 202.537h14.16M1088.76 633.463l-14.02-2.059M1070.48 739.383l-21.02-7.626M1030.72 808.624l-12.49-6.635M978.092 902.267l-17.289-14.184M917.542 954.35l-9.521-10.523M836.809 1025.12l-11.577-19.14M762.397 1054.02l-5.484-13.12M662.623 1093.59l-4.494-21.96M582.879 1095.73l-.837-14.18M475.641 1099.69l3.047-22.19M399.706 1075.29l3.884-13.65M297.266 1043.19l10.282-19.9M233.898 994.613l8.302-11.514M148.138 930.177l16.299-15.328M104.496 863.299l11.577-8.083M45.013 773.927l20.488-8.998M26.2 696.222l13.634-3.737M.152 592.055l22.316-1.601M8.378 512.596l14.09.992M18.28 405.608l21.554 5.948M52.477 333.47l13.024 5.643M97.718 236.014l18.355 12.811M154.079 179.508l10.358 9.684M229.176 102.718l13.024 18.225M301.074 68.173l6.474 12.582M397.421 20.895l6.17 21.504M476.784 12.506l1.904 14.031M583.336.152l-1.294 22.343M661.023 18.53l-2.894 13.879M765.596 42.475l-8.683 20.665M832.543 85.94l-7.311 12.125M923.102 143.667l-15.081 16.548M971.77 206.96l-10.967 8.998M1037.96 291.528l-19.73 10.6M1062.79 367.48l-13.33 4.804M1096.91 469.358l-22.17 3.279"/></g><defs><clipPath id="a"><path fill="#fff" d="M0 0h1103v1100H0z"/></clipPath></defs></svg>