<svg width="171" height="50" viewBox="0 0 171 50" fill="none" xmlns="http://www.w3.org/2000/svg">
<path d="M34.0373 21.0804H37.3251C37.6087 21.7766 37.9826 22.3568 38.4468 22.821C39.6072 23.9814 41.1028 24.5616 42.9336 24.5616C44.5839 24.5616 45.7959 24.2908 46.5695 23.7493C47.3689 23.2078 47.7686 22.5115 47.7686 21.6606C47.7686 21.1964 47.6009 20.7967 47.2657 20.4615C46.9563 20.1263 46.4406 19.8298 45.7185 19.5719C44.9965 19.314 44.3519 19.1206 43.7846 18.9917C43.243 18.837 42.4437 18.6565 41.3864 18.4502C37.1317 17.5734 35.0043 15.6781 35.0043 12.7643C35.0043 11.2429 35.6489 9.96645 36.9383 8.935C38.2276 7.87775 40.0326 7.34913 42.3534 7.34913C45.2415 7.34913 47.5236 8.31612 49.1997 10.2501C49.8702 11.1268 50.3601 12.0938 50.6695 13.1511H47.3818C47.1497 12.6353 46.8145 12.1583 46.3761 11.7199C45.3962 10.74 44.0553 10.2501 42.3534 10.2501C40.9867 10.2501 39.9295 10.508 39.1817 11.0237C38.4597 11.5394 38.0987 12.1196 38.0987 12.7643C38.0987 13.2284 38.2534 13.6281 38.5628 13.9633C38.898 14.2986 39.4267 14.5951 40.1487 14.853C40.8707 15.1108 41.5025 15.3171 42.044 15.4719C42.6113 15.6008 43.4235 15.7684 44.4808 15.9747C48.7356 16.8514 50.8629 18.7467 50.8629 21.6606C50.8629 23.3109 50.1667 24.6905 48.7742 25.7993C47.3818 26.9081 45.4349 27.4625 42.9336 27.4625C39.7877 27.4625 37.3637 26.4053 35.6618 24.2908C34.9398 23.3625 34.3983 22.2924 34.0373 21.0804Z" fill="#154359"/>
<path d="M51.4341 10.6369V7.73593H53.9482V3.48117H57.0426V7.73593H63.2313V10.6369H57.0426V24.1748H63.4247V27.0757H53.9482V10.6369H51.4341Z" fill="#154359"/>
<path d="M66.915 24.6002C65.1099 22.6663 64.2074 20.2681 64.2074 17.4058C64.2074 14.5435 65.1099 12.1583 66.915 10.2501C68.72 8.31612 70.9119 7.34913 73.4905 7.34913C75.1151 7.34913 76.4817 7.65857 77.5905 8.27744C78.7252 8.89631 79.5503 9.56676 80.0661 10.2888L80.4142 10.869H80.4528V7.73593H83.5472V27.0757H80.4528V23.9814H80.4142L80.0661 24.5229C79.6019 25.2191 78.8025 25.8896 77.6679 26.5342C76.5333 27.1531 75.1408 27.4625 73.4905 27.4625C70.9119 27.4625 68.72 26.5084 66.915 24.6002ZM69.1584 12.2614C67.9206 13.6023 67.3018 15.3171 67.3018 17.4058C67.3018 19.4945 67.9206 21.2093 69.1584 22.5502C70.4219 23.8911 71.9949 24.5616 73.8773 24.5616C75.7597 24.5616 77.3198 23.8911 78.5575 22.5502C79.8211 21.2093 80.4528 19.4945 80.4528 17.4058C80.4528 15.3171 79.8211 13.6023 78.5575 12.2614C77.3198 10.9205 75.7597 10.2501 73.8773 10.2501C71.9949 10.2501 70.4219 10.9205 69.1584 12.2614Z" fill="#154359"/>
<path d="M86.022 27.0757V7.73593H89.1164V10.8303H89.1551C89.5161 10.1856 89.9545 9.64412 90.4702 9.20575C91.7337 8.09694 93.2809 7.73593 95.1118 7.73593H97.1411V10.6369H95.1118C93.3583 10.6369 91.9142 11.2042 90.7796 12.3388C89.6708 13.4476 89.1164 14.8788 89.1164 16.6322V27.0757H86.022Z" fill="#154359"/>
<path d="M98.75 10.6369V7.73593H101.158V3.48117H104.253V7.73593H110.441V10.6369H104.253V24.1748H110.635V27.0757H101.158V10.6369H98.75Z" fill="#154359"/>
<path d="M113.658 24.6002C111.776 22.692 110.834 20.2939 110.834 17.4058C110.834 14.5178 111.776 12.1196 113.658 10.2114C115.541 8.30323 117.887 7.34913 120.698 7.34913C123.509 7.34913 125.855 8.29033 127.737 10.1727C129.62 12.0552 130.561 14.4017 130.561 17.2124V18.3728H113.929C114.135 20.1779 114.87 21.6606 116.134 22.821C117.397 23.9814 118.919 24.5616 120.698 24.5616C122.606 24.5616 124.243 23.9814 125.61 22.821C126.229 22.3053 126.719 21.7251 127.08 21.0804H130.174C129.71 22.2924 129.053 23.3625 128.202 24.2908C126.19 26.4053 123.689 27.4625 120.698 27.4625C117.887 27.4625 115.541 26.5084 113.658 24.6002ZM114.006 15.6652H127.273C127.041 14.1439 126.332 12.8674 125.146 11.836C123.96 10.7787 122.477 10.2501 120.698 10.2501C118.919 10.2501 117.423 10.7787 116.211 11.836C114.999 12.8674 114.264 14.1439 114.006 15.6652Z" fill="#154359"/>
<path d="M134.5 24.6002C132.644 22.692 131.715 20.2939 131.715 17.4058C131.715 14.5178 132.644 12.1196 134.5 10.2114C136.357 8.30323 138.652 7.34913 141.385 7.34913C144.557 7.34913 147.071 8.48373 148.928 10.7529C149.727 11.7586 150.307 12.8803 150.668 14.1181H147.574C147.29 13.4218 146.865 12.7772 146.298 12.1841C145.06 10.8948 143.422 10.2501 141.385 10.2501C139.503 10.2501 137.93 10.9205 136.666 12.2614C135.429 13.6023 134.81 15.3171 134.81 17.4058C134.81 19.4945 135.454 21.2093 136.744 22.5502C138.033 23.8911 139.58 24.5616 141.385 24.5616C143.5 24.5616 145.189 23.8524 146.452 22.4342C147.02 21.8411 147.458 21.132 147.767 20.3068H150.862C150.527 21.6219 149.934 22.821 149.083 23.904C147.123 26.2764 144.557 27.4625 141.385 27.4625C138.652 27.4625 136.357 26.5084 134.5 24.6002Z" fill="#154359"/>
<path d="M152.812 27.0757V0H155.907V10.6369H155.946C156.332 10.018 156.835 9.47651 157.454 9.01235C158.872 7.90354 160.548 7.34913 162.482 7.34913C164.829 7.34913 166.698 8.09694 168.091 9.59255C169.509 11.0624 170.218 13.0866 170.218 15.6652V27.0757H167.124V15.8586C167.124 14.002 166.66 12.6096 165.731 11.6812C164.803 10.7271 163.527 10.2501 161.902 10.2501C160.123 10.2501 158.679 10.8432 157.57 12.0294C156.461 13.1898 155.907 14.724 155.907 16.6322V27.0757H152.812Z" fill="#154359"/>
<mask id="mask0_2450_1955" style="mask-type:alpha" maskUnits="userSpaceOnUse" x="34" y="29" width="71" height="17">
<path d="M34.0947 29.7235H104.178V45.5742H34.0947V29.7235Z" fill="#D9D9D9"/>
</mask>
<g mask="url(#mask0_2450_1955)">
<path d="M89.4893 40.1128H91.1799C91.3257 40.4708 91.518 40.7692 91.7566 41.0078C92.3533 41.6045 93.1223 41.9028 94.0637 41.9028C94.9123 41.9028 95.5355 41.7636 95.9332 41.4851C96.3443 41.2067 96.5498 40.8487 96.5498 40.4112C96.5498 40.1725 96.4636 39.967 96.2912 39.7946C96.1321 39.6222 95.8669 39.4698 95.4957 39.3372C95.1244 39.2046 94.793 39.1051 94.5013 39.0388C94.2228 38.9593 93.8118 38.8665 93.2682 38.7604C91.0804 38.3096 89.9865 37.3351 89.9865 35.8368C89.9865 35.0545 90.318 34.3982 90.981 33.8678C91.6439 33.3242 92.5721 33.0524 93.7654 33.0524C95.2504 33.0524 96.4238 33.5496 97.2857 34.544C97.6304 34.9948 97.8823 35.492 98.0414 36.0357H96.3509C96.2316 35.7705 96.0592 35.5252 95.8338 35.2998C95.3299 34.7959 94.6405 34.544 93.7654 34.544C93.0626 34.544 92.519 34.6766 92.1345 34.9418C91.7633 35.207 91.5776 35.5053 91.5776 35.8368C91.5776 36.0754 91.6572 36.281 91.8163 36.4533C91.9887 36.6257 92.2605 36.7782 92.6317 36.9108C93.003 37.0434 93.3278 37.1494 93.6063 37.229C93.898 37.2953 94.3156 37.3815 94.8592 37.4875C97.047 37.9383 98.1409 38.9129 98.1409 40.4112C98.1409 41.2597 97.7829 41.9691 97.0669 42.5392C96.3509 43.1094 95.3498 43.3945 94.0637 43.3945C92.4461 43.3945 91.1997 42.8508 90.3246 41.7636C89.9534 41.2863 89.6749 40.736 89.4893 40.1128Z" fill="#154359"/>
<path d="M79.8363 41.9225C78.9082 40.9281 78.4441 39.695 78.4441 38.2232C78.4441 36.7514 78.9082 35.525 79.8363 34.5438C80.7644 33.5494 81.8915 33.0522 83.2174 33.0522C84.0527 33.0522 84.762 33.2113 85.3454 33.5295C85.9288 33.8477 86.3465 34.1858 86.5984 34.5438L86.7774 34.8421H86.7973V29.2733H88.3884V43.1954H86.7973V41.6043H86.7774L86.5984 41.8827C86.3598 42.2407 85.9487 42.5854 85.3653 42.9169C84.7819 43.2351 84.0659 43.3942 83.2174 43.3942C81.8915 43.3942 80.7644 42.9037 79.8363 41.9225ZM80.9898 35.578C80.3534 36.2675 80.0352 37.1492 80.0352 38.2232C80.0352 39.2972 80.3534 40.1789 80.9898 40.8684C81.6395 41.5579 82.4483 41.9026 83.4162 41.9026C84.3842 41.9026 85.1863 41.5579 85.8228 40.8684C86.4725 40.1789 86.7973 39.2972 86.7973 38.2232C86.7973 37.1492 86.4725 36.2675 85.8228 35.578C85.1863 34.8885 84.3842 34.5438 83.4162 34.5438C82.4483 34.5438 81.6395 34.8885 80.9898 35.578Z" fill="#154359"/>
<path d="M72.4799 43.1954V33.2511H74.071V34.8421H74.0908C74.2765 34.5107 74.5019 34.2322 74.7671 34.0068C75.4167 33.4367 76.2123 33.1516 77.1537 33.1516H78.347V34.7427H77.1537C76.2521 34.7427 75.5096 35.0344 74.9262 35.6178C74.356 36.1879 74.071 36.9238 74.071 37.8254V43.1954H72.4799Z" fill="#154359"/>
<path d="M62.1307 41.9227C61.2026 40.9283 60.7385 39.6952 60.7385 38.2234C60.7385 36.7517 61.2026 35.5252 62.1307 34.544C63.0589 33.5496 64.1859 33.0524 65.5118 33.0524C66.3471 33.0524 67.0498 33.2115 67.62 33.5297C68.2034 33.8479 68.6277 34.1926 68.8929 34.5639L69.0719 34.8622H69.0917V33.2513H70.6828V43.1956H69.0917V41.6045H69.0719L68.8929 41.8829C68.6542 42.2409 68.2432 42.5856 67.6598 42.9171C67.0764 43.2353 66.3604 43.3945 65.5118 43.3945C64.1859 43.3945 63.0589 42.9039 62.1307 41.9227ZM63.2843 35.5782C62.6478 36.2677 62.3296 37.1494 62.3296 38.2234C62.3296 39.2974 62.6478 40.1791 63.2843 40.8686C63.934 41.5581 64.7428 41.9028 65.7107 41.9028C66.6786 41.9028 67.4808 41.5581 68.1172 40.8686C68.7669 40.1791 69.0917 39.2974 69.0917 38.2234C69.0917 37.1494 68.7669 36.2677 68.1172 35.5782C67.4808 34.8888 66.6786 34.544 65.7107 34.544C64.7428 34.544 63.934 34.8888 63.2843 35.5782Z" fill="#154359"/>
<path d="M46.1127 33.2507H47.8032L49.5932 41.7034H50.0904L51.7809 33.2507H54.6648L56.3553 41.7034H56.8525L58.6425 33.2507H60.333L58.1453 43.195H55.0626L53.372 34.7424H53.0737L51.3832 43.195H48.3004L46.1127 33.2507Z" fill="#154359"/>
<path d="M36.5591 41.9227C35.631 40.9283 35.1669 39.6952 35.1669 38.2234C35.1669 36.7517 35.631 35.5252 36.5591 34.544C37.4873 33.5496 38.6143 33.0524 39.9402 33.0524C40.7755 33.0524 41.4783 33.2115 42.0484 33.5297C42.6318 33.8479 43.0561 34.1926 43.3213 34.5639L43.5003 34.8622H43.5202V33.2513H45.1112V43.1956H43.5202V41.6045H43.5003L43.3213 41.8829C43.0826 42.2409 42.6716 42.5856 42.0882 42.9171C41.5048 43.2353 40.7888 43.3945 39.9402 43.3945C38.6143 43.3945 37.4873 42.9039 36.5591 41.9227ZM37.7127 35.5782C37.0762 36.2677 36.758 37.1494 36.758 38.2234C36.758 39.2974 37.0762 40.1791 37.7127 40.8686C38.3624 41.5581 39.1712 41.9028 40.1391 41.9028C41.107 41.9028 41.9092 41.5581 42.5456 40.8686C43.1953 40.1791 43.5202 39.2974 43.5202 38.2234C43.5202 37.1494 43.1953 36.2677 42.5456 35.5782C41.9092 34.8888 41.107 34.544 40.1391 34.544C39.1712 34.544 38.3624 34.8888 37.7127 35.5782Z" fill="#154359"/>
</g>
<path d="M5.55626 28.9421C4.95048 28.6116 4.32553 29.3629 4.74969 29.9077C6.63358 32.3252 9.15033 34.164 11.3151 36.3321C15.8353 40.4519 20.3477 44.5164 24.6062 48.908C25.0066 49.3209 24.7054 50.0112 24.1312 50C23.8684 49.9943 23.6033 49.9887 23.3371 49.9921C23.2243 49.9898 23.0844 49.9244 23.0065 49.842C21.1272 47.8465 19.2263 45.8701 17.1338 44.0945C14.3282 41.7356 11.4358 39.4795 8.71489 37.0203C5.01591 33.9113 0.819453 30.4289 0.0162601 25.3841C0.0128758 25.3649 0.0106197 25.3458 0.00836352 25.3266C-0.146184 23.5972 1.87421 22.917 3.33056 23.7089C5.03396 24.5493 6.73511 25.3977 8.44077 26.2336C13.5848 28.7413 18.9364 31.0256 24.6389 31.883C24.8792 31.9191 25.327 31.9326 25.4635 31.6179C25.591 31.3223 25.5932 31.0381 25.3293 30.8C19.5005 25.5443 10.6191 23.5882 5.68035 17.0961C5.66907 17.0814 5.65892 17.0668 5.64877 17.051C2.88948 12.8839 6.19589 9.03597 10.8537 10.1697C15.0761 10.9447 18.9206 14.3695 23.2344 13.625C25.3507 13.2595 23.8503 10.9018 23.0088 10.0343C20.9884 7.74432 19.0098 5.46785 16.9578 3.21169C16.5821 2.80107 16.8754 2.13889 17.4338 2.13776C18.3216 2.1355 19.2094 2.15468 20.0995 2.1513C20.2202 2.1513 20.3747 2.21672 20.4571 2.30359C22.8328 5.03693 25.8076 7.40364 27.2966 10.78C28.5161 13.3103 26.9819 15.9477 24.3433 16.6178C19.5377 17.7391 14.7772 14.5038 10.0426 13.7513C9.4989 13.6645 9.09731 14.2545 9.38835 14.7226C11.5723 18.2355 19.3865 22.3834 22.3782 24.6306C24.5825 26.1027 26.7958 27.5636 28.9831 29.0605C29.8506 29.655 30.6279 30.3702 31.2472 31.2332C32.743 33.1769 31.492 35.5605 29.3418 36.1201C28.3187 36.4235 27.2707 36.4607 26.2193 36.3795C20.7617 35.9666 15.5928 33.9553 10.689 31.6314C8.87733 30.7572 7.32735 29.9359 5.57318 28.9511C5.56867 28.9477 5.56303 28.9455 5.55739 28.9432L5.55626 28.9421Z" fill="#154359"/>
</svg>
