<svg width="309" height="72" viewBox="0 0 309 72" fill="none" xmlns="http://www.w3.org/2000/svg">
<path d="M1.93356 39.6565L49.3057 9.79784C49.625 9.59659 49.9947 9.4898 50.3721 9.4898H70.1807C70.7113 9.4898 71.2201 9.27896 71.5952 8.90369L78.9095 1.5861C79.2846 1.21084 79.7934 1 80.324 1H306C307.105 1 308 1.89543 308 3V28.5558C308 29.2281 307.662 29.8554 307.101 30.2255L258.646 62.1798C258.319 62.3953 257.936 62.5102 257.545 62.5102H236.777C236.2 62.5102 235.651 62.7593 235.272 63.1935L229.042 70.3167C228.662 70.7509 228.113 71 227.536 71H3C1.89543 71 1 70.1046 1 69V41.3484C1 40.6615 1.35248 40.0227 1.93356 39.6565Z" fill="url(#paint0_linear_2450_1862)" stroke="white" stroke-opacity="0.7"/>
<defs>
<linearGradient id="paint0_linear_2450_1862" x1="183.5" y1="51.5" x2="402" y2="-51" gradientUnits="userSpaceOnUse">
<stop stop-color="white" stop-opacity="0"/>
<stop offset="1" stop-color="#82C2DB"/>
</linearGradient>
</defs>
</svg>
