<svg width="45" height="45" viewBox="0 0 45 45" fill="none" xmlns="http://www.w3.org/2000/svg">
<g clip-path="url(#clip0_3191_451)">
<path fill-rule="evenodd" clip-rule="evenodd" d="M34.47 42.7104C35.0738 43.1379 35.8519 43.2448 36.5456 42.9823C37.2394 42.7179 37.7494 42.1254 37.9031 41.4073C39.5325 33.7498 43.485 14.3679 44.9681 7.40229C45.0806 6.87729 44.8931 6.33166 44.4806 5.98104C44.0681 5.63041 43.4963 5.52916 42.9863 5.71854C35.1244 8.62854 10.9125 17.7129 1.01626 21.3748C0.388139 21.6073 -0.0206114 22.211 1.35539e-05 22.8729C0.0225136 23.5367 0.468764 24.1123 1.11189 24.3054C5.55001 25.6329 11.3756 27.4798 11.3756 27.4798C11.3756 27.4798 14.0981 35.7017 15.5175 39.8829C15.6956 40.4079 16.1063 40.8204 16.6481 40.9629C17.1881 41.1035 17.7656 40.9554 18.1688 40.5748C20.4488 38.4223 23.9738 35.0942 23.9738 35.0942C23.9738 35.0942 30.6713 40.0048 34.47 42.7104ZM13.8263 26.441L16.9744 36.8248L17.6738 30.2492C17.6738 30.2492 29.8369 19.2785 36.7706 13.0254C36.9731 12.8417 37.0013 12.5342 36.8325 12.3185C36.6656 12.1029 36.3581 12.0523 36.1275 12.1985C28.0913 17.3304 13.8263 26.441 13.8263 26.441Z" fill="white"/>
</g>
<defs>
<clipPath id="clip0_3191_451">
<rect width="45" height="45" fill="white"/>
</clipPath>
</defs>
</svg>
