<svg width="163" height="36" viewBox="0 0 163 36" fill="none" xmlns="http://www.w3.org/2000/svg">
<path d="M7.52282 0H160C161.657 0 163 1.34315 163 3V33C163 34.6569 161.657 36 160 36H3C1.34315 36 0 34.6569 0 33V7.50589C0 7.24022 0.105713 6.98547 0.293813 6.79786L6.81664 0.291974C7.0041 0.105 7.25806 0 7.52282 0Z" fill="#EF7300"/>
<path d="M7.52282 0H160C161.657 0 163 1.34315 163 3V33C163 34.6569 161.657 36 160 36H3C1.34315 36 0 34.6569 0 33V7.50589C0 7.24022 0.105713 6.98547 0.293813 6.79786L6.81664 0.291974C7.0041 0.105 7.25806 0 7.52282 0Z" fill="url(#paint0_linear_3120_2153)"/>
<defs>
<linearGradient id="paint0_linear_3120_2153" x1="0" y1="18" x2="163" y2="18" gradientUnits="userSpaceOnUse">
<stop stop-color="#FF9A3D" stop-opacity="0"/>
<stop offset="1" stop-color="#FF9A3D"/>
</linearGradient>
</defs>
</svg>
