<svg xmlns="http://www.w3.org/2000/svg" xmlns:xlink="http://www.w3.org/1999/xlink" version="1.1" id="chunzfmpzu-Layer_3" x="0px" y="0px" viewBox="0 0 46 46" style="enable-background:new 0 0 46 46;" xml:space="preserve">
<style type="text/css">
	.chunzfmpzu-st0{fill:none;stroke:#242A35;stroke-linecap:round;stroke-linejoin:round;stroke-miterlimit:10;}
</style>
  <g>
	<g>
		<path class="chunzfmpzu-st0" d="M17,29.4h12.3 M36,29.4h1.6c0.2,0,0.3-0.1,0.5-0.2l1.3-1.4c0.1-0.1,0.2-0.3,0.2-0.4v-3.4    c0-0.9-0.7-1.8-1.5-1.9l-5.1-1.6c0,0-3.7-3.1-4.9-4.1c-1.5-1.3-2.4-1.7-4.1-1.7h-6.5c-1.3,0-1.9,0.4-2.5,0.8    c-1.8,1.1-4.8,4-5.4,4.6l-1.6,0.3c-0.9,0.1-1.6,1-1.6,1.9v4.6c0,0.2,0.1,0.3,0.2,0.4l1.9,1.9c0.1,0.1,0.3,0.2,0.4,0.2h1.7"></path>
    <path class="chunzfmpzu-st0" d="M29.3,21.1c-0.1,0.2-0.3,0.4-0.6,0.4h-8.5v-4.8h3.4c1,0,1.2,0.2,2.4,1.1c0.8,0.6,3.1,2.6,3.1,2.7    C29.3,20.6,29.4,20.9,29.3,21.1z M20.2,21.5h-5.6c-0.2,0-0.4-0.1-0.5-0.3c-0.1-0.2-0.1-0.4,0-0.6c0,0,0.5-1,1.2-2.1    c1.2-1.6,2.2-1.9,2.3-1.9h2.7V21.5z"></path>
    <path class="chunzfmpzu-st0" d="M36,29.2c0,1.8-1.5,3.3-3.3,3.3c-1.8,0-3.3-1.5-3.3-3.3c0-1.8,1.5-3.3,3.3-3.3C34.5,25.9,36,27.4,36,29.2z     M17.1,29.2c0,1.8-1.5,3.3-3.3,3.3s-3.3-1.5-3.3-3.3c0-1.8,1.5-3.3,3.3-3.3S17.1,27.4,17.1,29.2z"></path>
	</g>
    <path class="chunzfmpzu-st0" d="M14.9,24h1.2 M21.9,24h1.2"></path>
</g>
  <path class="chunzfmpzu-st0" d="M34.9,8.8h8.8V19 M43.8,28.1v10.2h-8.8 M10.7,38.3H1.8V28.1 M1.8,19V8.8h8.8"></path>
</svg>
