<?xml version="1.0" encoding="UTF-8"?><svg id="Layer_2" xmlns="http://www.w3.org/2000/svg" xmlns:xlink="http://www.w3.org/1999/xlink" viewBox="0 0 45.14 26.68"><defs><style>.cls-1{fill:none;}.cls-1,.cls-2,.cls-3,.cls-4{stroke:#333;stroke-linecap:round;stroke-width:1.25px;}.cls-1,.cls-2,.cls-4{stroke-miterlimit:10;}.cls-2{fill:#fff;}.cls-3{fill:#333;stroke-linejoin:round;}.cls-4{fill:url(#New_Gradient_Swatch);}</style><linearGradient id="New_Gradient_Swatch" x1="18.66" y1="8.12" x2="44.52" y2="8.12" gradientTransform="matrix(1, 0, 0, 1, 0, 0)" gradientUnits="userSpaceOnUse"><stop offset="0" stop-color="#1ef5b9"/><stop offset=".25" stop-color="#20f3bc"/><stop offset=".79" stop-color="#55c3ff"/><stop offset="1" stop-color="#55c3ff"/></linearGradient></defs><g id="Layer_1-2"><g><path class="cls-4" d="M43.04,4.84l-5.83-3.37c-1.27-.73-3.11-1.02-4.83-.75l-7.93,1.23c-1.72,.27-3.07,1.05-3.53,2.05l-2.09,4.6c-.46,1,.04,2.06,1.31,2.8l5.83,3.37c1.26,.73,3.11,1.02,4.83,.75l7.92-1.23c1.72-.27,3.07-1.05,3.53-2.05l2.1-4.59c.46-1-.04-2.07-1.31-2.8"/><polygon class="cls-3" points="36.84 17.36 34.43 18.52 32.02 19.69 34.24 21.19 36.45 22.69 36.64 20.02 36.84 17.36"/><path class="cls-1" d="M34.14,21.33c-1.91,2.81-5.33,3.97-8.43,3.14"/><path class="cls-2" d="M23.47,16.75l-5.03-2.91c-1.1-.63-2.69-.88-4.18-.65l-6.85,1.06c-1.49,.23-2.65,.91-3.05,1.77l-1.81,3.97c-.4,.86,.03,1.78,1.13,2.42l5.03,2.91c1.09,.63,2.69,.88,4.18,.65l6.84-1.06c1.49-.23,2.65-.91,3.05-1.77l1.81-3.97c.4-.86-.04-1.79-1.13-2.42"/><path class="cls-2" d="M15.59,4.24l-3.58-2.07c-.78-.45-1.91-.62-2.97-.46l-4.87,.75c-1.06,.17-1.88,.64-2.16,1.26L.73,6.55c-.28,.61,.02,1.27,.8,1.72l3.58,2.07c.78,.45,1.91,.62,2.97,.46l4.86-.76c1.06-.17,1.88-.64,2.16-1.26l1.29-2.82c.28-.61-.03-1.27-.8-1.72"/></g></g></svg>