<svg xmlns="http://www.w3.org/2000/svg" xmlns:xlink="http://www.w3.org/1999/xlink" version="1.1" id="yfkxjxldxy-Layer_1" x="0px" y="0px" viewBox="0 0 46 46" style="enable-background:new 0 0 46 46;" xml:space="preserve">
<style type="text/css">
	.yfkxjxldxy-st0{fill:#FFFFFF;}
  .yfkxjxldxy-st1{font-family:'UniversLTStd-BoldCn';}
  .yfkxjxldxy-st2{font-size:5.7912px;}
  .yfkxjxldxy-st3{fill:none;stroke:#242A35;stroke-linecap:round;stroke-linejoin:round;stroke-miterlimit:10;}
  .yfkxjxldxy-st4{fill:#242A35;stroke:#242A35;stroke-width:0.5;stroke-miterlimit:10;}
  .yfkxjxldxy-st5{fill:#242A35;}
</style>
  <text transform="matrix(1 0 0 1 29.7656 25.2383)" class="yfkxjxldxy-st0 yfkxjxldxy-st1 yfkxjxldxy-st2"> </text>
  <path class="yfkxjxldxy-st3" d="M38.5,17.4h4v3.4 M42.5,24.7v3.4h-4 M26.9,28.1h-4v-3.4 M22.9,20.8v-3.4h4 M12.5,15.7H16v4 M16,25v4h-3.5   M7.6,29H4.1v-4 M4.1,19.8v-4h3.5"></path>
  <path class="yfkxjxldxy-st3" d="M9.8,23.4v-1.2l0.6-1.3 M10.7,18.8c0-0.2,0.1-0.3,0.3-0.3c0.2,0,0.3,0.2,0.3,0.3c0,0.2-0.2,0.3-0.3,0.3  C10.8,19.2,10.7,19,10.7,18.8z M9.9,23.6l2,1.8v1.7 M10.4,23.7l0-1.3l0.7-1.5 M9.5,24.3l-1.2,2.7 M9.4,22.1l0.1,2.1 M9.9,20.8  L9.5,22 M7.8,22.3l0.4-1.4l1.8-0.4l0.8-0.1l0.5,0.6l0.2,1.3l1,0.6 M25.5,22.9h1 M30.2,23.3l-0.4-1.8 M31.6,23.1h0.2 M29.6,20.8  l0.3,1.1 M35.8,21.6L30,21.9 M39,24.5c0,0.7-0.6,1.3-1.3,1.3c-0.7,0-1.3-0.6-1.3-1.3 M29.4,24.8c0,0.7-0.6,1.3-1.3,1.3  s-1.3-0.6-1.3-1.3 M39.2,24.5H40v-1.8c0,0-0.5-0.8-1.7-1.1c-1.2-0.4-1.8-0.2-1.8-0.2s-2.3-1.7-4.8-1.7c-2.5,0-6.5,1.9-6.5,1.9v2.1  l1.2,0.8l12.6-0.3"></path>
  <g>
	<path class="yfkxjxldxy-st4" d="M3.2,7.7c-1.1,0-2,0.9-2,2v24.9c0,1.1,0.9,2,2,2h39.7c1.1,0,2-0.9,2-2V9.7c0-1.1-0.9-2-2-2H3.2z M3.2,37.2   c-1.5,0-2.7-1.2-2.7-2.7V9.7C0.5,8.2,1.7,7,3.2,7h39.7c1.5,0,2.7,1.2,2.7,2.7v24.9c0,1.5-1.2,2.7-2.7,2.7H3.2z"></path>
    <path class="yfkxjxldxy-st4" d="M20.4,41.6h5.2v-4.4h-5.2V41.6z M20.1,42.2c-0.2,0-0.3-0.1-0.3-0.3v-5c0-0.2,0.1-0.3,0.3-0.3h5.9   c0.2,0,0.3,0.1,0.3,0.3v5c0,0.2-0.1,0.3-0.3,0.3H20.1z"></path>
    <path class="yfkxjxldxy-st4" d="M0.8,31.8c-0.2,0-0.3-0.1-0.3-0.3c0-0.2,0.1-0.3,0.3-0.3h44.4c0.2,0,0.3,0.1,0.3,0.3c0,0.2-0.1,0.3-0.3,0.3   H0.8z"></path>
    <path class="yfkxjxldxy-st4" d="M15.6,42.2c-0.2,0-0.3-0.1-0.3-0.3c0-0.2,0.1-0.3,0.3-0.3h14.8c0.2,0,0.3,0.1,0.3,0.3c0,0.2-0.1,0.3-0.3,0.3   H15.6z"></path>
</g>
  <g>
	<path class="yfkxjxldxy-st5" d="M10.5,11.2v2.3h0.3V14h-0.3v0.8H9.8V14H8.7v-0.7l0.9-2.1H10.5z M9.9,13.4c0-0.1,0-1.5,0-1.8   c-0.2,0.6-0.4,1.2-0.7,1.8H9.9z"></path>
</g>
  <g>
	<path class="yfkxjxldxy-st5" d="M31.9,12v3.7h-0.8v-2.8c-0.2,0.2-0.5,0.4-0.6,0.4v-0.7c0.3-0.1,0.5-0.4,0.7-0.6H31.9z"></path>
    <path class="yfkxjxldxy-st5" d="M34.2,12v3.7h-0.8v-2.8c-0.2,0.2-0.5,0.4-0.6,0.4v-0.7c0.3-0.1,0.5-0.4,0.7-0.6H34.2z"></path>
</g>
</svg>
