<?xml version="1.0" encoding="UTF-8"?><svg id="Layer_2" xmlns="http://www.w3.org/2000/svg" xmlns:xlink="http://www.w3.org/1999/xlink" viewBox="0 0 36.19 35.7"><defs><style>.cls-1,.cls-2,.cls-3{fill:#fff;}.cls-2,.cls-4,.cls-5,.cls-6,.cls-3{stroke:#333;stroke-linecap:round;}.cls-2,.cls-5{stroke-linejoin:round;}.cls-7{fill:#333;}.cls-4{fill:url(#New_Gradient_Swatch-2);}.cls-4,.cls-6,.cls-3{stroke-miterlimit:10;}.cls-5{fill:none;}.cls-6{fill:url(#New_Gradient_Swatch);}</style><linearGradient id="New_Gradient_Swatch" x1="15.44" y1="2.5" x2="35.69" y2="2.5" gradientTransform="matrix(1, 0, 0, 1, 0, 0)" gradientUnits="userSpaceOnUse"><stop offset="0" stop-color="#1ef5b9"/><stop offset=".25" stop-color="#20f3bc"/><stop offset=".79" stop-color="#55c3ff"/><stop offset="1" stop-color="#55c3ff"/></linearGradient><linearGradient id="New_Gradient_Swatch-2" y1="33.2" y2="33.2" xlink:href="#New_Gradient_Swatch"/></defs><g id="Layer_1-2"><g><path class="cls-6" d="M35.69,4.51H15.44c0-2.21,1.79-4.01,4.01-4.01h12.24c2.21,0,4.01,1.79,4.01,4.01Z"/><path class="cls-4" d="M35.69,31.2H15.44c0,2.21,1.79,4.01,4.01,4.01h12.24c2.21,0,4.01-1.79,4.01-4.01Z"/><rect class="cls-2" x="15.44" y="4.51" width="20.25" height="26.69"/><line class="cls-5" x1="21.91" y1="28.55" x2="29.21" y2="28.55"/><rect class="cls-3" x=".5" y="7.88" width="29.87" height="17.29" rx="2.5" ry="2.5"/><rect class="cls-7" x="1.49" y="13.13" width="11.39" height="6.89" rx="1" ry="1" transform="translate(-9.38 23.76) rotate(-90)"/><path class="cls-7" d="M19.41,11.88v9.39c0,.55-.45,1-1,1h-4.89c-.55,0-1-.45-1-1V11.54c0-.37,.3-.67,.67-.67h5.22c.55,0,1,.45,1,1Z"/><path class="cls-7" d="M24.09,21.25c-.56-.12-.99-.38-1.29-.8s-.44-.95-.44-1.6v-.67h1.51v.77c0,.59,.28,.89,.83,.89s.83-.31,.83-.92c0-.38-.1-.72-.29-1.03s-.55-.66-1.08-1.07c-.65-.51-1.11-.99-1.37-1.44s-.39-.95-.39-1.51c0-.63,.14-1.15,.43-1.56,.29-.41,.71-.67,1.26-.8v-.63h1.31v.63c.56,.12,.99,.38,1.28,.79s.44,.94,.44,1.59v.29h-1.51v-.39c0-.6-.27-.9-.8-.9s-.8,.29-.8,.87c0,.35,.1,.67,.29,.97,.19,.3,.55,.65,1.08,1.07,.65,.52,1.11,1.01,1.37,1.46s.39,.97,.39,1.55c0,.66-.15,1.2-.44,1.62-.3,.42-.73,.69-1.29,.81v1.02h-1.31v-1.02Z"/><path class="cls-1" d="M5.19,19.96c0-.61,.1-1.13,.29-1.56,.2-.43,.54-.91,1.05-1.44,.49-.53,.84-.98,1.03-1.35,.19-.37,.29-.76,.29-1.17,0-.36-.06-.62-.18-.76-.12-.14-.29-.21-.52-.21-.46,0-.69,.28-.69,.84v.91h-1.27v-.83c0-.69,.17-1.22,.51-1.59,.34-.37,.84-.55,1.48-.55s1.14,.18,1.49,.55c.34,.37,.51,.9,.51,1.59,0,.52-.12,1.03-.37,1.52-.25,.5-.68,1.06-1.28,1.7-.4,.42-.67,.76-.8,1.03-.14,.26-.21,.55-.21,.85v.18h2.54v1.22h-3.87v-.92Z"/><g><path class="cls-1" d="M17.43,18.75c-.34-.36-.83-.54-1.47-.54s-1.12,.18-1.46,.54c-.34,.37-.5,.89-.5,1.57v.81h1.24v-.9c0-.55,.23-.82,.69-.82,.22,0,.39,.07,.51,.21,.11,.14,.17,.39,.17,.75,0,.4-.09,.78-.28,1.15-.13,.25-.32,.53-.59,.84h1.5c.14-.19,.24-.37,.33-.54,.24-.49,.36-.99,.36-1.5,0-.68-.16-1.2-.5-1.57Z"/><path class="cls-1" d="M16.65,10.78v.14c0,.56-.23,.83-.69,.83s-.68-.27-.68-.83v-.14h-1.32v.25c0,.63,.12,1.1,.37,1.43s.61,.49,1.09,.49c.57,0,.97-.24,1.21-.73h.02v1.61c0,.38-.06,.65-.18,.8-.12,.15-.31,.23-.55,.23-.46,0-.69-.28-.69-.83v-.24h-1.25v.16c0,.68,.17,1.2,.51,1.56,.33,.37,.82,.55,1.46,.55,1.35,0,2.02-.73,2.02-2.18v-3.1h-1.32Z"/></g></g></g></svg>