<?xml version="1.0" encoding="UTF-8"?><svg id="Layer_2" xmlns="http://www.w3.org/2000/svg" xmlns:xlink="http://www.w3.org/1999/xlink" viewBox="0 0 29.49 39.96"><defs><style>.cls-1{stroke-dasharray:0 0 3.98 3.98;}.cls-1,.cls-2,.cls-3{fill:none;stroke-linejoin:round;}.cls-1,.cls-2,.cls-3,.cls-4,.cls-5{stroke:#333;stroke-linecap:round;}.cls-6{fill:#333;}.cls-3{stroke-dasharray:0 4;}.cls-4{fill:url(#New_Gradient_Swatch);}.cls-4,.cls-5{stroke-miterlimit:10;}.cls-5{fill:#fff;}</style><linearGradient id="New_Gradient_Swatch" x1="10.48" y1="14.76" x2="25.34" y2="-3" gradientTransform="matrix(1, 0, 0, 1, 0, 0)" gradientUnits="userSpaceOnUse"><stop offset="0" stop-color="#1ef5b9"/><stop offset=".25" stop-color="#20f3bc"/><stop offset=".79" stop-color="#55c3ff"/><stop offset="1" stop-color="#55c3ff"/></linearGradient></defs><g id="Layer_1-2"><g><g><line class="cls-2" x1="15.2" y1="20.06" x2="17.2" y2="20.06"/><path class="cls-1" d="M21.17,20.06h2.23c3.09,0,5.59-2.5,5.59-5.59,0-1.02-.27-1.97-.75-2.79"/><path class="cls-2" d="M26.97,10.16c-.51-.42-1.1-.76-1.73-.98"/></g><path class="cls-3" d="M11.99,31.24h-.59c-3.09,0-5.59-2.5-5.59-5.59h0"/><g><path class="cls-5" d="M12.5,19.11c0,1.25-.86,2.84-1.92,4.34-1.76,2.46-4.08,4.66-4.08,4.66h0c-.15-.15-2.38-2.29-4.07-4.66-1.07-1.5-1.92-3.09-1.92-4.34,0-3.31,2.69-6,6-6s6,2.69,6,6Z"/><path class="cls-6" d="M10.58,23.45c-1.76,2.46-4.08,4.66-4.08,4.66h0c-.15-.15-2.38-2.29-4.07-4.66,1-1.01,2.46-1.65,4.07-1.65s3.08,.64,4.09,1.65Z"/><circle class="cls-6" cx="6.5" cy="18.81" r="2.54"/></g><g><path class="cls-4" d="M23.4,6.5c0,1.25-.86,2.84-1.92,4.34-1.76,2.46-4.08,4.66-4.08,4.66h0c-.15-.15-2.38-2.29-4.07-4.66-1.07-1.5-1.92-3.09-1.92-4.34,0-3.31,2.69-6,6-6s6,2.69,6,6Z"/><path class="cls-6" d="M21.48,10.84c-1.76,2.46-4.08,4.66-4.08,4.66h0c-.15-.15-2.38-2.29-4.07-4.66,1-1.01,2.46-1.65,4.07-1.65s3.08,.64,4.09,1.65Z"/><circle class="cls-6" cx="17.4" cy="6.2" r="2.54"/></g><g><path class="cls-5" d="M25.85,30.46c0,1.25-.86,2.84-1.92,4.34-1.76,2.46-4.08,4.66-4.08,4.66h0c-.15-.15-2.38-2.29-4.07-4.66-1.07-1.5-1.92-3.09-1.92-4.34,0-3.31,2.69-6,6-6s6,2.69,6,6Z"/><path class="cls-6" d="M23.93,34.8c-1.76,2.46-4.08,4.66-4.08,4.66h0c-.15-.15-2.38-2.29-4.07-4.66,1-1.01,2.46-1.65,4.07-1.65s3.08,.64,4.09,1.65Z"/><circle class="cls-6" cx="19.85" cy="30.16" r="2.54"/></g></g></g></svg>