<svg xmlns="http://www.w3.org/2000/svg" xmlns:xlink="http://www.w3.org/1999/xlink" version="1.1" id="eusxhsfzpz-Layer_1" x="0px" y="0px" viewBox="0 0 46 46" style="enable-background:new 0 0 46 46;" xml:space="preserve">
<style type="text/css">
	.eusxhsfzpz-st0{fill:none;stroke:#242A35;stroke-miterlimit:10;}
</style>
  <g>
	<path class="eusxhsfzpz-st0" d="M14.4,17.4c0,2.7-2.2,4.9-4.9,4.9s-4.9-2.2-4.9-4.9s4.9-9,4.9-9S14.4,14.7,14.4,17.4z"></path>
    <path class="eusxhsfzpz-st0" d="M39.2,15.9c0,3.8-3,6.8-6.8,6.8c-3.8,0-6.8-3-6.8-6.8s6.8-12.4,6.8-12.4S39.2,12.1,39.2,15.9z"></path>
    <path class="eusxhsfzpz-st0" d="M41.5,32.5c0,2-1.6,3.7-3.7,3.7c-2,0-3.7-1.6-3.7-3.7s3.7-6.7,3.7-6.7S41.5,30.5,41.5,32.5z"></path>
    <path class="eusxhsfzpz-st0" d="M25.8,38.7c1.4-1.4,2.2-3.4,2.2-5.5c0-4.4-7.9-13.8-7.9-13.8s-7.9,9.4-7.9,13.8c0,2.1,0.8,4.1,2.2,5.5H1.8v3.8   h42.5v-3.8H25.8z"></path>
</g>
</svg>
