<svg xmlns="http://www.w3.org/2000/svg" xmlns:xlink="http://www.w3.org/1999/xlink" version="1.1" id="okdjvbouem-Layer_1" x="0px" y="0px" viewBox="0 0 46 46" style="enable-background:new 0 0 46 46;" xml:space="preserve">
<style type="text/css">
	.okdjvbouem-st0{fill:none;stroke:#242A35;stroke-linecap:round;stroke-linejoin:round;stroke-miterlimit:10;}
  .okdjvbouem-st1{fill:none;stroke:#242A35;stroke-miterlimit:10;}
</style>
  <ellipse class="okdjvbouem-st0" cx="32.7" cy="24.2" rx="9.8" ry="11.9"></ellipse>
  <ellipse class="okdjvbouem-st1" cx="32.7" cy="24.2" rx="6.1" ry="7.4"></ellipse>
  <ellipse class="okdjvbouem-st1" cx="31.2" cy="24.2" rx="4" ry="4.9"></ellipse>
  <polyline class="okdjvbouem-st0" points="31.4,35.9 23.7,36.1 23.6,37.2 15,37.1 14.6,32.9 "></polyline>
  <path class="okdjvbouem-st0" d="M14.4,35.4c0,0-6-1.8-5.3-8.3c0,0-0.1-4.7,4-5.8"></path>
  <path class="okdjvbouem-st0" d="M45,22.2c0,0-0.9-12.5-12.3-12.6c0,0-3-0.4-6.5,2.2c0,0-4.2,4.6-4.7,7.6l-1.2,3.2l-5,1.1c0,0-0.8-4.3-6.9-3.7"></path>
  <line class="okdjvbouem-st0" x1="26.2" y1="11.8" x2="8.1" y2="18.5"></line>
  <path class="okdjvbouem-st0" d="M5.6,13c0,0,0,2.1,2.4,2.8l0.1,8.6c0,0-2.8,3.2,0.7,4.6"></path>
  <line class="okdjvbouem-st0" x1="17.4" y1="12.3" x2="17.4" y2="14.9"></line>
  <rect x="1" y="8.8" class="okdjvbouem-st0" width="19.7" height="3.2"></rect>
  <path class="okdjvbouem-st0" d="M22.9,17c0.3,0,4-2.4,4-2.4"></path>
</svg>
