<svg version="1.2" xmlns="http://www.w3.org/2000/svg" viewBox="0 0 2100 3510" width="2100" height="3510">
	<title>Dự án mới</title>
	<style>
		.s0 { fill: #5fa8ab } 
	</style>
	<g id="Layer 1">
		<g id="&lt;Group&gt;">
			<path id="&lt;Path&gt;" class="s0" d="m2031.2 1647.3l-1019.7-1613.7c-38.5-60.9-132.8-33.6-132.8 38.5v54.2c0 66.6-54 120.7-120.7 120.6-206.3-0.1-604.5-0.2-604.5-0.2-41.7 0-75.5 33.8-75.5 75.5v2865.6c0 41.7 33.8 75.5 75.5 75.5 0 0 398.2-0.1 604.5-0.2 66.7-0.1 120.7 54 120.7 120.6v54.2c0 72.1 94.3 99.4 132.8 38.5l1019.7-1613.7c41.6-65.8 41.6-149.6 0-215.4z"/>
		</g>
	</g>
</svg>