<?xml version="1.0" encoding="UTF-8"?><svg id="Layer_2" xmlns="http://www.w3.org/2000/svg" xmlns:xlink="http://www.w3.org/1999/xlink" viewBox="0 0 48.02 39.96"><defs><style>.cls-1{fill:none;}.cls-1,.cls-2,.cls-3,.cls-4,.cls-5,.cls-6{stroke:#333;stroke-linecap:round;}.cls-1,.cls-2,.cls-3,.cls-5,.cls-6{stroke-miterlimit:10;}.cls-2{fill:url(#New_Gradient_Swatch-3);}.cls-7,.cls-4{fill:#333;}.cls-3{fill:url(#New_Gradient_Swatch-2);}.cls-4{stroke-linejoin:round;stroke-width:1.25px;}.cls-5{fill:url(#New_Gradient_Swatch);}.cls-6{fill:#fff;}</style><linearGradient id="New_Gradient_Swatch" x1="16.86" y1="6.76" x2="44.78" y2="6.76" gradientTransform="matrix(1, 0, 0, 1, 0, 0)" gradientUnits="userSpaceOnUse"><stop offset="0" stop-color="#1ef5b9"/><stop offset=".25" stop-color="#20f3bc"/><stop offset=".79" stop-color="#55c3ff"/><stop offset="1" stop-color="#55c3ff"/></linearGradient><linearGradient id="New_Gradient_Swatch-2" y1="37.46" y2="37.46" xlink:href="#New_Gradient_Swatch"/><linearGradient id="New_Gradient_Swatch-3" x1="-2.44" y1="39.6" x2="37.73" y2="21.36" xlink:href="#New_Gradient_Swatch"/></defs><g id="Layer_1-2"><g><g><path class="cls-5" d="M42.49,8.77H22.23c0-2.21,1.79-4.01,4.01-4.01h12.24c2.21,0,4.01,1.79,4.01,4.01Z"/><path class="cls-3" d="M42.49,35.46H22.23c0,2.21,1.79,4.01,4.01,4.01h12.24c2.21,0,4.01-1.79,4.01-4.01Z"/><rect class="cls-6" x="22.23" y="8.77" width="20.25" height="26.69"/></g><g><path class="cls-6" d="M47.52,5.64c0,2.84-5.14,7.72-5.14,7.72,0,0-5.14-4.88-5.14-7.72s2.3-5.14,5.14-5.14,5.14,2.3,5.14,5.14Z"/><circle class="cls-7" cx="42.38" cy="5.53" r="1.92"/></g><g><polygon class="cls-4" points="19.03 11.86 16.71 13.19 14.4 14.53 14.4 11.86 14.4 9.18 16.71 10.52 19.03 11.86"/><path class="cls-1" d="M7.85,18.4c0-3.62,2.93-6.55,6.55-6.55"/></g><g><path class="cls-2" d="M33.58,34.81c0,.74-.64,1.58-1.54,1.58H3.84c-2.2,0-3.79-2.08-3.23-4.2l.59-2.23c1.33-5.02,5.88-8.51,11.06-8.51h3.1c3.09,.04,5.67,1.47,7.73,2.73,2.37,1.44,5.15,2.81,6.91,3.88,2.55,1.56,3.57,4.35,3.57,6.75Z"/><path class="cls-7" d="M23.52,28.21c.54,0,.73-.72,.25-.98-.88-.48-1.8-.98-2.65-1.5-1.66-1.01-3.74-2.17-6.23-2.2h-2.5c-2.98,0-5.69,1.43-7.39,3.71-.3,.4,0,.97,.51,.97H23.52Z"/><circle class="cls-6" cx="7.67" cy="36.08" r="3.38"/><circle class="cls-6" cx="25.96" cy="36.08" r="3.38"/></g></g></g></svg>