<?xml version="1.0" encoding="UTF-8"?><svg id="Layer_2" xmlns="http://www.w3.org/2000/svg" xmlns:xlink="http://www.w3.org/1999/xlink" viewBox="0 0 44.85 28.4"><defs><style>.cls-1{fill:#333;}.cls-2{fill:url(#New_Gradient_Swatch);}.cls-2,.cls-3{stroke:#333;stroke-linecap:round;stroke-miterlimit:10;}.cls-3{fill:#fff;}</style><linearGradient id="New_Gradient_Swatch" x1="-2.44" y1="28.03" x2="37.73" y2="9.8" gradientTransform="matrix(1, 0, 0, 1, 0, 0)" gradientUnits="userSpaceOnUse"><stop offset="0" stop-color="#1ef5b9"/><stop offset=".25" stop-color="#20f3bc"/><stop offset=".79" stop-color="#55c3ff"/><stop offset="1" stop-color="#55c3ff"/></linearGradient></defs><g id="Layer_1-2"><g><circle class="cls-3" cx="32.18" cy="12.67" r="12.17"/><polyline class="cls-3" points="32.18 5.21 32.18 12.67 36.04 16.52"/><path class="cls-2" d="M33.58,23.25c0,.74-.64,1.58-1.54,1.58H3.84c-2.2,0-3.79-2.08-3.23-4.2l.59-2.23c1.33-5.02,5.88-8.51,11.06-8.51h3.1c3.09,.04,5.67,1.47,7.73,2.73,2.37,1.44,5.15,2.81,6.91,3.88,2.55,1.56,3.57,4.35,3.57,6.75Z"/><path class="cls-1" d="M23.52,16.64c.54,0,.73-.72,.25-.98-.88-.48-1.8-.98-2.65-1.5-1.66-1.01-3.74-2.17-6.23-2.2h-2.5c-2.98,0-5.69,1.43-7.39,3.71-.3,.4,0,.97,.51,.97H23.52Z"/><circle class="cls-3" cx="7.67" cy="24.52" r="3.38"/><circle class="cls-3" cx="25.96" cy="24.52" r="3.38"/></g></g></svg>