<svg xmlns="http://www.w3.org/2000/svg" id="kokbhluwte-Layer_1" data-name="Layer 1" viewBox="0 0 40.65 43.89">
  <defs>
    <style>
      .kokbhluwte-cls-1 {
        fill: #231f20;
        stroke-width: 0px;
      }
    </style>
  </defs>
  <path class="kokbhluwte-cls-1" d="m20.1,43.89c-2.75,0-5.47-.81-7.78-2.38-3.19-2.16-5.3-5.78-6.09-10.46-.59-3.5-.25-6.33-.24-6.45.05-.37.38-.63.75-.58.37.05.63.38.58.75-.02.13-1.24,10.91,5.75,15.64,2.96,2.01,6.67,2.65,10.15,1.76,3.37-.86,6.19-3.07,7.75-6.08,1.37-2.64,2.16-6.9,2.12-11.39,0-.37.29-.67.66-.67,0,0,0,0,0,0,.37,0,.67.3.67.66.04,4.7-.81,9.19-2.27,12.02-1.73,3.35-4.87,5.81-8.61,6.76-1.14.29-2.3.43-3.45.43Z"></path>
  <path class="kokbhluwte-cls-1" d="m7.05,34.03c-.08,0-.15-.01-.23-.04-4.15-1.46-6.83-4.4-6.83-7.47,0-2.75,2.18-5.29,6.14-7.16,3.79-1.79,8.81-2.78,14.12-2.78s10.35.99,14.18,2.78c4,1.87,6.21,4.42,6.21,7.17s-2.61,5.49-7.36,7.45c-.35.14-.75-.02-.89-.37-.14-.35.02-.75.37-.89,4.2-1.74,6.52-3.94,6.52-6.19,0-4.65-8.71-8.58-19.03-8.58S1.36,21.86,1.36,26.52c0,2.45,2.38,4.94,5.92,6.19.35.12.54.51.42.87-.1.28-.36.45-.64.45Z"></path>
  <path class="kokbhluwte-cls-1" d="m39.91,26.45c-.34,0-.63-.25-.67-.6-.93-7.49-1.28-8.93-1.86-11.32-.04-.17-.08-.34-.13-.52-.01-.03-.02-.05-.03-.08-.24-.88-.47-1.58-.74-2.2C33.88,5.53,27.4,1.36,20.34,1.36c-3.98,0-7.73,1.24-10.83,3.59-3,2.27-5.15,5.46-6.04,8.98,0,.02-.01.04-.02.06-.89,3.32-1.5,6.88-2.03,11.86-.04.37-.37.65-.75.6-.37-.04-.64-.37-.61-.75.54-5.14,1.18-8.8,2.12-12.25,0,0,0,0,0,0,.99-3.76,3.29-7.15,6.5-9.58,3.34-2.53,7.37-3.86,11.65-3.86,7.6,0,14.58,4.5,17.39,11.2.26.62.49,1.3.72,2.12.02.05.04.1.05.15.06.26.12.5.18.74.57,2.35.95,3.91,1.89,11.47.05.37-.22.71-.59.76-.03,0-.06,0-.08,0Z"></path>
  <path class="kokbhluwte-cls-1" d="m6.67,31.29c-.07,0-.14-.01-.2-.03-2.49-.79-2.81-2.28-2.81-3.49,0-4.11,7.26-7.32,16.54-7.32s16.54,3.22,16.54,7.32c0,1.32-1.21,2.72-3.01,3.47-.35.15-.75-.02-.89-.36-.15-.35.02-.75.36-.89,1.43-.6,2.17-1.57,2.17-2.22,0-2.88-6.1-5.96-15.18-5.96s-15.18,3.08-15.18,5.96c0,.85.14,1.65,1.86,2.2.36.11.56.5.44.85-.09.29-.36.48-.65.48Z"></path>
  <path class="kokbhluwte-cls-1" d="m19.99,37.13c-3.42,0-6.2-2.78-6.2-6.2s2.78-6.2,6.2-6.2,6.2,2.78,6.2,6.2-2.78,6.2-6.2,6.2Zm0-11.04c-2.67,0-4.84,2.17-4.84,4.84s2.17,4.84,4.84,4.84,4.84-2.17,4.84-4.84-2.17-4.84-4.84-4.84Zm0,8.68c-2.12,0-3.84-1.72-3.84-3.84s1.72-3.84,3.84-3.84,3.84,1.72,3.84,3.84-1.72,3.84-3.84,3.84Zm0-6.32c-1.37,0-2.48,1.11-2.48,2.48s1.11,2.48,2.48,2.48,2.48-1.11,2.48-2.48-1.11-2.48-2.48-2.48Z"></path>
  <path class="kokbhluwte-cls-1" d="m12.19,41.16c-.38,0-.68-.3-.68-.68v-17.99c0-.38.3-.68.68-.68s.68.3.68.68v17.99c0,.38-.3.68-.68.68Z"></path>
  <path class="kokbhluwte-cls-1" d="m27.82,41.16c-.38,0-.68-.3-.68-.68v-18.54c0-.38.3-.68.68-.68s.68.3.68.68v18.54c0,.38-.3.68-.68.68Z"></path>
</svg>
