<svg id="a" xmlns="http://www.w3.org/2000/svg" viewBox="0 0 40 40">
  <g>
    <g id="b">
      <g id="c">
        <g id="d">
          <g id="e">
            <g id="f">
              <path id="g" d="m24.6,17.01l-4.33,1.4-4.33-1.4-.23-6.6c0-1.09.83-1.97,1.85-1.97h5.42c1.02,0,1.84.88,1.84,1.97l-.22,6.6Z" style="fill:none; fill-rule:evenodd; stroke:#022e3f; stroke-miterlimit:10; stroke-width:1.4px;"></path>
            </g>
          </g>
        </g>
      </g>
    </g>
    <path d="m27.82,30.33c-.73-3.49-3.83-6.11-7.54-6.11s-6.88,2.7-7.56,6.26" style="fill:none; fill-rule:evenodd; stroke:#022e3f; stroke-miterlimit:10; stroke-width:1.4px;"></path>
  </g>
  <path d="m9.05,30.92c3.15-.62,7.03-.98,11.22-.98s8.07.36,11.22.98l1.02-1.08c.45-.48.59-1.17.37-1.79l-1.6-4.03c-.6-1.55-1.97-2.6-4.26-2.67l-6.75-.27-6.75.27c-2.29.07-3.66,1.13-4.26,2.67l-1.6,4.03c-.22.62-.08,1.31.37,1.79l1.02,1.08Z" style="fill:none; fill-rule:evenodd; stroke:#022e3f; stroke-miterlimit:10; stroke-width:1.4px;"></path>
</svg>
