<svg id="a" xmlns="http://www.w3.org/2000/svg" viewBox="0 0 40 40">
  <rect x="5.59" y="16.54" width="28.82" height="7.06" rx=".35" ry=".35" style="fill:none; stroke:#022e3f; stroke-miterlimit:10; stroke-width:1.4px;"></rect>
  <polyline points="2.66 16.46 2.66 13.83 5.3 13.83" style="fill:none; stroke:#022e3f; stroke-miterlimit:10; stroke-width:1.4px;"></polyline>
  <polyline points="5.3 26.3 2.66 26.3 2.66 23.67" style="fill:none; stroke:#022e3f; stroke-miterlimit:10; stroke-width:1.4px;"></polyline>
  <polyline points="37.34 23.67 37.34 26.3 34.7 26.3" style="fill:none; stroke:#022e3f; stroke-miterlimit:10; stroke-width:1.4px;"></polyline>
  <polyline points="34.7 13.83 37.34 13.83 37.34 16.46" style="fill:none; stroke:#022e3f; stroke-miterlimit:10; stroke-width:1.4px;"></polyline>
  <g>
    <path d="m11.9,21.43h-.5l.99-2.76h.68l.98,2.76h-.49l-.18-.51h-1.29l-.18.51Zm.28-.86h1.09l-.55-1.49-.54,1.49Z" style="fill:#022e3f; stroke:#022e3f; stroke-miterlimit:10; stroke-width:.17px;"></path>
    <path d="m16.13,20.04v.37h-1.6v-.37h1.6Z" style="fill:#022e3f; stroke:#022e3f; stroke-miterlimit:10; stroke-width:.17px;"></path>
    <path d="m17.34,19.24l-.68.51v-.51l.76-.56h.39v2.76h-.46v-2.19Z" style="fill:#022e3f; stroke:#022e3f; stroke-miterlimit:10; stroke-width:.17px;"></path>
    <path d="m18.63,19.49c.08-.53.5-.92,1-.92.55,0,.96.38.96.9,0,.4-.17.61-.53.94l-.69.63h1.17v.39h-1.88v-.28l1.1-1c.21-.19.38-.38.38-.66,0-.3-.21-.52-.51-.52-.28,0-.52.26-.56.61l-.44-.09Z" style="fill:#022e3f; stroke:#022e3f; stroke-miterlimit:10; stroke-width:.17px;"></path>
    <path d="m21.36,19.06v-.39h1.82v.29l-.69.77c.46.06.78.41.78.88,0,.53-.42.91-1.02.91-.56,0-1-.41-1.04-.98l.41-.07c.05.38.3.65.62.65.34,0,.58-.22.58-.53s-.24-.54-.57-.54c-.08,0-.18.02-.24.05l-.12-.31.67-.74h-1.2Z" style="fill:#022e3f; stroke:#022e3f; stroke-miterlimit:10; stroke-width:.17px;"></path>
    <path d="m25.51,20.04v.37h-1.6v-.37h1.6Z" style="fill:#022e3f; stroke:#022e3f; stroke-miterlimit:10; stroke-width:.17px;"></path>
    <path d="m26.25,21.43v-2.76h1.25c.53,0,.91.31.91.74,0,.27-.17.5-.41.57.28.07.49.34.49.66,0,.46-.41.79-.97.79h-1.26Zm.47-2.37v.74h.71c.3,0,.51-.15.51-.37s-.21-.37-.51-.37h-.71Zm.72,1.11h-.72v.88h.72c.34,0,.58-.19.58-.44s-.24-.44-.58-.44Z" style="fill:#022e3f; stroke:#022e3f; stroke-miterlimit:10; stroke-width:.17px;"></path>
    <path d="m29.29,21.43v-2.76h1.25c.53,0,.91.31.91.74,0,.27-.17.5-.41.57.28.07.49.34.49.66,0,.46-.41.79-.97.79h-1.26Zm.47-2.37v.74h.71c.3,0,.51-.15.51-.37s-.21-.37-.51-.37h-.71Zm.72,1.11h-.72v.88h.72c.34,0,.58-.19.58-.44s-.24-.44-.58-.44Z" style="fill:#022e3f; stroke:#022e3f; stroke-miterlimit:10; stroke-width:.17px;"></path>
  </g>
  <line x1="8.88" y1="23.59" x2="8.88" y2="16.54" style="fill:none; stroke:#022e3f; stroke-miterlimit:10; stroke-width:1.4px;"></line>
</svg>
