<svg id="a" xmlns="http://www.w3.org/2000/svg" viewBox="0 0 40 40">
  <g>
    <path d="m22.32,11.94c4.01,0,7.25,3.25,7.25,7.25" style="fill:none; stroke:#022e3f; stroke-miterlimit:10; stroke-width:1.4px;"></path>
    <path d="m22.32,8.38c5.97,0,10.82,4.84,10.82,10.82" style="fill:none; stroke:#022e3f; stroke-miterlimit:10; stroke-width:1.4px;"></path>
  </g>
  <g>
    <path d="m14.68,27.72h-1.11v-3.65h1.87c.89,0,1.5.51,1.5,1.27,0,.49-.3.88-.75,1.06l.86,1.32h-1.22l-.63-1.18h-.51v1.18Zm0-2.86v.97h.55c.34,0,.61-.19.61-.48s-.27-.48-.61-.48h-.55Z" style="fill:#022e3f;"></path>
    <path d="m18.7,26.51v1.2h-1.11v-3.65h2.6v.94h-1.49v.69h1.19v.82h-1.19Z" style="fill:#022e3f;"></path>
    <path d="m21.79,24.07v3.65h-1.11v-3.65h1.11Z" style="fill:#022e3f;"></path>
    <path d="m22.5,24.07h1.51c1.25,0,2.09.73,2.09,1.83s-.84,1.83-2.09,1.83h-1.51v-3.65Zm1.51.83h-.44v2h.44c.59,0,.98-.39.98-1s-.4-1-.98-1Z" style="fill:#022e3f;"></path>
  </g>
  <polyline points="20.03 11.94 9.89 11.94 9.89 31.62 29.57 31.62 29.57 21.49" style="fill:none; stroke:#022e3f; stroke-miterlimit:10; stroke-width:1.4px;"></polyline>
  <circle cx="24.01" cy="17.5" r="1.69" style="fill:#022e3f;"></circle>
</svg>
