<svg id="a" xmlns="http://www.w3.org/2000/svg" viewBox="0 0 40 40">
  <path d="m20.19,32.1c-6.23,0-11.28-5.05-11.28-11.28,0-3.12,1.26-5.94,3.31-7.98" style="fill:none; stroke:#022e3f; stroke-miterlimit:10; stroke-width:1.4px;"></path>
  <path d="m20.19,9.53c6.23,0,11.28,5.05,11.28,11.28,0,3.12-1.26,5.94-3.31,7.98" style="fill:none; stroke:#022e3f; stroke-miterlimit:10; stroke-width:1.4px;"></path>
  <path d="m15.2,25.81c-2.76-2.76-2.76-7.23,0-9.99,1.38-1.38,3.19-2.07,5-2.07" style="fill:none; stroke:#022e3f; stroke-miterlimit:10; stroke-width:1.4px;"></path>
  <path d="m25.19,15.82c2.76,2.76,2.76,7.23,0,9.99-1.38,1.38-3.19,2.07-5,2.07" style="fill:none; stroke:#022e3f; stroke-miterlimit:10; stroke-width:1.4px;"></path>
  <path d="m17.24,20.89c0-1.67,1.35-3.02,3.02-3.02s3.02,1.35,3.02,3.02-1.35,3.02-3.02,3.02" style="fill:none; stroke:#022e3f; stroke-miterlimit:10; stroke-width:1.4px;"></path>
</svg>
