<?xml version="1.0" encoding="UTF-8" standalone="no"?>
<svg
   version="1.2"
   viewBox="0 0 3500 2000"
   width="3940"
   height="2251"
   id="svg56"
   sodipodi:docname="AdobeStock_809961733.svg"
   inkscape:version="1.3.2 (091e20e, 2023-11-25, custom)"
   xml:space="preserve"
   xmlns:inkscape="http://www.inkscape.org/namespaces/inkscape"
   xmlns:sodipodi="http://sodipodi.sourceforge.net/DTD/sodipodi-0.dtd"
   xmlns:xlink="http://www.w3.org/1999/xlink"
   xmlns="http://www.w3.org/2000/svg"
   xmlns:svg="http://www.w3.org/2000/svg"><defs
     id="defs56"><rect
       x="129.18033"
       y="480.21383"
       width="468.98076"
       height="286.44334"
       id="rect61" /><rect
       x="67.398432"
       y="292.05987"
       width="634.66857"
       height="64.590162"
       id="rect60" /><rect
       x="154.45474"
       y="351.0335"
       width="412.8154"
       height="272.402"
       id="rect59" /><rect
       x="64.590164"
       y="356.65004"
       width="511.10478"
       height="131.9886"
       id="rect58" /><rect
       x="67.398432"
       y="370.69138"
       width="485.83036"
       height="561.6536"
       id="rect56" /><rect
       x="67.39843"
       y="292.05988"
       width="592.54456"
       height="64.590164"
       id="rect60-1" /><rect
       x="129.18033"
       y="480.21384"
       width="463.36423"
       height="379.11617"
       id="rect61-2" /><rect
       x="67.39843"
       y="292.05988"
       width="592.54456"
       height="64.590164"
       id="rect60-19" /><rect
       x="129.18033"
       y="480.21384"
       width="440.89809"
       height="334.1839"
       id="rect61-2-4" /><rect
       x="67.39843"
       y="292.05988"
       width="460.55596"
       height="168.49608"
       id="rect60-1-3" /><rect
       x="129.18033"
       y="480.21384"
       width="443.70635"
       height="418.43193"
       id="rect61-2-4-2" /><rect
       x="67.39843"
       y="292.05988"
       width="578.50322"
       height="126.37206"
       id="rect60-19-7" /><rect
       x="129.18033"
       y="480.21384"
       width="483.02211"
       height="488.63863"
       id="rect61-7" /><rect
       x="67.39843"
       y="292.05988"
       width="595.35283"
       height="140.4134"
       id="rect60-1-3-2" /><rect
       x="129.18033"
       y="480.21384"
       width="483.02213"
       height="488.63864"
       id="rect61-7-0" /><rect
       x="67.39843"
       y="292.05988"
       width="483.02212"
       height="160.07128"
       id="rect60-19-7-3" /><rect
       x="129.18033"
       y="480.21384"
       width="483.02213"
       height="488.63864"
       id="rect61-7-0-0" /><style
       id="style1-5">.cls-1{fill:none;}.cls-1,.cls-2,.cls-3,.cls-4,.cls-5,.cls-6{stroke:#333;stroke-linecap:round;}.cls-1,.cls-2,.cls-3,.cls-5,.cls-6{stroke-miterlimit:10;}.cls-2{fill:url(#New_Gradient_Swatch-3);}.cls-7,.cls-4{fill:#333;}.cls-3{fill:url(#New_Gradient_Swatch-2);}.cls-4{stroke-linejoin:round;stroke-width:1.25px;}.cls-5{fill:url(#New_Gradient_Swatch);}.cls-6{fill:#fff;}</style><linearGradient
       id="New_Gradient_Swatch"
       x1="16.86"
       y1="6.76"
       x2="44.78"
       y2="6.76"
       gradientTransform="matrix(1, 0, 0, 1, 0, 0)"
       gradientUnits="userSpaceOnUse"><stop
         offset="0"
         stop-color="#1ef5b9"
         id="stop1" /><stop
         offset=".25"
         stop-color="#20f3bc"
         id="stop2" /><stop
         offset=".79"
         stop-color="#55c3ff"
         id="stop3" /><stop
         offset="1"
         stop-color="#55c3ff"
         id="stop4" /></linearGradient><linearGradient
       id="New_Gradient_Swatch-2"
       y1="37.46"
       y2="37.46"
       xlink:href="#New_Gradient_Swatch" /><linearGradient
       id="New_Gradient_Swatch-3"
       x1="-2.44"
       y1="39.6"
       x2="37.73"
       y2="21.36"
       xlink:href="#New_Gradient_Swatch" /><style
       id="style1-4">.cls-1{fill:#333;}.cls-2{fill:url(#New_Gradient_Swatch);}.cls-2,.cls-3{stroke:#333;stroke-linecap:round;stroke-miterlimit:10;}.cls-3{fill:#fff;}</style><linearGradient
       id="New_Gradient_Swatch-5"
       x1="-2.44"
       y1="28.03"
       x2="37.73"
       y2="9.8"
       gradientUnits="userSpaceOnUse"><stop
         offset="0"
         stop-color="#1ef5b9"
         id="stop1-2" /><stop
         offset=".25"
         stop-color="#20f3bc"
         id="stop2-3" /><stop
         offset=".79"
         stop-color="#55c3ff"
         id="stop3-0" /><stop
         offset="1"
         stop-color="#55c3ff"
         id="stop4-6" /></linearGradient><style
       id="style1-57">.cls-1{fill:none;}.cls-1,.cls-2,.cls-3,.cls-4{stroke:#333;stroke-linecap:round;stroke-width:1.25px;}.cls-1,.cls-2,.cls-4{stroke-miterlimit:10;}.cls-2{fill:#fff;}.cls-3{fill:#333;stroke-linejoin:round;}.cls-4{fill:url(#New_Gradient_Swatch);}</style><linearGradient
       id="New_Gradient_Swatch-58"
       x1="18.66"
       y1="8.12"
       x2="44.52"
       y2="8.12"
       gradientUnits="userSpaceOnUse"><stop
         offset="0"
         stop-color="#1ef5b9"
         id="stop1-3" /><stop
         offset=".25"
         stop-color="#20f3bc"
         id="stop2-2" /><stop
         offset=".79"
         stop-color="#55c3ff"
         id="stop3-8" /><stop
         offset="1"
         stop-color="#55c3ff"
         id="stop4-4" /></linearGradient></defs><sodipodi:namedview
     id="namedview56"
     pagecolor="#ffffff"
     bordercolor="#000000"
     borderopacity="0.25"
     inkscape:showpageshadow="2"
     inkscape:pageopacity="0.0"
     inkscape:pagecheckerboard="0"
     inkscape:deskcolor="#d1d1d1"
     inkscape:zoom="0.35609137"
     inkscape:cx="1970"
     inkscape:cy="1124.7113"
     inkscape:window-width="1920"
     inkscape:window-height="1009"
     inkscape:window-x="1912"
     inkscape:window-y="-8"
     inkscape:window-maximized="1"
     inkscape:current-layer="g56" /><title
     id="title1">AdobeStock_809961733</title><style
     id="style1">
		.s0 { fill: #272e38 } 
		.s1 { fill: #ffffff } 
		.s2 { fill: #2fb1e5 } 
		.s3 { fill: #ffcb5e } 
	</style><g
     id="Layer 2"><g
       id="g56"><g
         id="g5"><g
           id="&lt;Group&gt;"><path
             id="&lt;Path&gt;"
             class="s0"
             d="m1775.7 409.9h175.9c109.7 0 199 89.2 199 199v511.8c0 54.6 44.4 99 99 99h283.8c54.6 0 99-44.4 99-99v-169.9c0-109.7 89.3-199 199-199h62c54.6 0 99-44.4 99-99v-43.9c0-109.8 89.2-199 199-199h308.6v100h-308.6c-54.6 0-99 44.4-99 99v43.9c0 109.7-89.3 199-199 199h-62c-54.5 0-99 44.4-99 99v169.9c0 109.7-89.2 199-199 199h-283.8c-109.8 0-199-89.3-199-199v-511.8c0-54.6-44.4-99-99-99h-175.9c-54.6 0-99 44.4-99 99v209.2c0 109.8-89.3 199-199 199h-56c-54.6 0-99 44.4-99 99v4.6c0 109.7-89.2 199-199 199h-103.9c-109.7 0-199-89.3-199-199v-223.9c0-54.6-44.4-99-99-99h-13.9c-54.6 0-99 44.4-99 99v223.9c0 109.7-89.3 199-199 199h-409.9v-100h409.9c54.6 0 99-44.4 99-99v-223.9c0-109.7 89.2-199 199-199h13.9c109.7 0 199 89.3 199 199v223.9c0 54.6 44.4 99 99 99h103.9c54.6 0 99-44.4 99-99v-4.6c0-109.7 89.3-199 199-199h56c54.5 0 99-44.4 99-99v-209.2c0-109.8 89.2-199 199-199z" /></g><g
           id="g4"><g
             id="g1"><path
               id="path1"
               class="s1"
               d="m3478 454.9h22v10h-22z" /></g><g
             id="g2"><path
               id="&lt;Compound Path&gt;"
               class="s1"
               d="m1807.7 454.9h44v10h-44zm88 0h44.1v10h-44.1zm1318.1 0h44.1v10h-44.1zm88.1 0h44v10h-44zm88 0h44.1v10h-44.1zm-1626.6 0.5l0.8 9.9c-14.2 1.2-28.1 4.4-41.3 9.7l-3.7-9.3c14.1-5.6 29-9.1 44.2-10.3zm1405.9 1.1l1.4 9.9c-14 2-27.7 6.2-40.5 12.3l-4.3-9.1c13.7-6.5 28.3-10.9 43.4-13.1zm-1184.6 2c14.8 3.2 29.1 8.7 42.3 16.2l-4.9 8.7c-12.4-7-25.7-12.1-39.5-15.2zm-304.7 30l6.2 7.8c-11.1 8.9-20.9 19.3-29 31l-8.2-5.7c8.7-12.5 19.1-23.6 31-33.1zm1408.2 6.4l6.7 7.4c-10.6 9.6-19.6 20.6-27 32.8l-8.5-5.2c7.8-13 17.5-24.7 28.8-35zm-1025.4 7.7c10.5 11 19.3 23.4 26.2 36.9l-8.9 4.6c-6.5-12.7-14.7-24.3-24.6-34.6zm-433.8 59.7l9.6 3.1c-4.4 13.5-6.6 27.5-6.8 41.8l-10-0.1c0.2-15.3 2.6-30.3 7.2-44.8zm1413.1 9.5l9.7 2.4c-2.9 11.3-4.3 23-4.3 34.7v7.8h-10v-7.8c0-12.5 1.5-25 4.6-37.1zm-938.7 10.8c1.5 8.6 2.3 17.5 2.3 26.3v18.4h-10v-18.4c0-8.2-0.7-16.5-2.1-24.6zm-481.7 68.6h10v44h-10zm1415.5 9.3l10 0.5c-0.8 15.2-3.8 30.2-9 44.4l-9.4-3.4c4.9-13.3 7.7-27.3 8.4-41.5zm-941.6 10.9h10v44h-10zm912.9 67.9l8 6c-9.1 12.1-20 22.8-32.2 31.8l-6-8c11.5-8.4 21.7-18.5 30.2-29.8zm-1386.8 0h10v44h-10zm-891.4 3.9c15.2 0.9 30.2 3.9 44.4 9.2l-3.4 9.4c-13.3-4.9-27.3-7.8-41.5-8.6zm-45 1.4l1.5 9.9c-14 2.1-27.7 6.3-40.5 12.4l-4.3-9c13.7-6.6 28.3-11 43.3-13.3zm1410.3 14.9h10v44h-10zm-1281.1 14.7c12.1 9.1 22.8 20 31.7 32.3l-8 5.9c-8.4-11.5-18.4-21.7-29.8-30.3zm-210.1 9.1l6.8 7.4c-10.5 9.6-19.6 20.6-26.9 32.8l-8.6-5.1c7.8-13.1 17.5-24.9 28.7-35.1zm2336.5 5.7l3.3 9.4c-14.3 5.1-29.3 7.9-44.5 8.5l-0.4-9.9c14.2-0.6 28.2-3.3 41.6-8zm-109.4 8.1h23.9v10h-23.9c-6.4 0-13 0.4-19.3 1.3l-1.4-9.9c6.8-1 13.8-1.4 20.7-1.4zm-64.2 14.1l4.2 9.1c-12.9 5.9-24.8 13.8-35.5 23.2l-6.6-7.4c11.4-10.2 24.1-18.5 37.9-24.9zm-1145.8 15.9l10 0.6c-1 15.2-4.1 30.2-9.5 44.4l-9.3-3.5c5-13.3 7.9-27.3 8.8-41.5zm-754.1 19.6c5 14.3 7.8 29.3 8.4 44.5l-10 0.4c-0.5-14.2-3.2-28.2-7.9-41.6zm1228.3 1h10v44h-10zm-1537.2 12.6l9.7 2.4c-2.8 11.2-4.2 22.8-4.2 34.4v8.1h-10v-8.1c0-12.4 1.5-24.8 4.5-36.8zm2141.8 10.5l8.5 5.2c-7.4 12.2-13 25.3-16.6 39l-9.7-2.5c3.8-14.7 9.8-28.7 17.8-41.7zm-1108.1 34.9l7.9 6.1c-9.3 12-20.2 22.7-32.5 31.5l-5.9-8.1c11.6-8.3 21.8-18.2 30.5-29.5zm-726.2 29.8h10v44h-10zm1229.7 0.3h10v44h-10zm-1541.7 13.5h10v44h-10zm970.1 5.5l3.2 9.5c-14.3 4.9-29.3 7.6-44.6 8.1l-0.3-10c14.3-0.4 28.3-3 41.7-7.6zm1153.5 2.7h10v44h-10zm-1255.7 5h16.7v10h-16.7c-8.8 0-17.7 0.9-26.3 2.5l-1.8-9.9c9.2-1.7 18.6-2.6 28.1-2.6zm-71 17.5l4.7 8.8c-12.6 6.6-24.1 15-34.3 25l-7-7.2c10.9-10.6 23.2-19.6 36.6-26.6zm-484.9 43.7h10v44h-10zm1229.7 0.3h10v44h-10zm-1541.7 13.4h10v44.1h-10zm732.9 5.3l8.7 4.8c-6.9 12.5-11.8 25.9-14.7 39.7l-9.8-2c3.1-14.9 8.4-29.2 15.8-42.5zm1390.7 2.8h10v44.1h-10zm-1811.6 66.1h10v9.4c0 11.2 1.3 22.4 3.8 33.2l-9.7 2.3c-2.8-11.6-4.1-23.5-4.1-35.5zm1229.7 0.3h10v9.1c0 11.3 1.3 22.5 3.9 33.4l-9.7 2.4c-2.8-11.7-4.2-23.7-4.2-35.8zm-1541.7 13.3l10 0.3c-0.5 15.3-3.2 30.3-8 44.6l-9.5-3.2c4.5-13.4 7-27.4 7.5-41.7zm713.6 4.5l10 0.6c-0.9 15.2-4.1 30.1-9.4 44.3l-9.4-3.5c5-13.3 8-27.2 8.8-41.4zm1409.5 3.4l10 0.9c-1.3 15.1-4.8 30-10.5 44.1l-9.3-3.8c5.3-13.1 8.6-27 9.8-41.2zm-1781.5 60.4c7.2 12.3 16.2 23.4 26.6 33.1l-6.8 7.3c-11.1-10.3-20.7-22.2-28.4-35.3zm1229.9 0.2c7.2 12.2 16.2 23.3 26.6 33l-6.7 7.4c-11.2-10.4-20.8-22.2-28.5-35.3zm-1598.4 10.9l8.1 5.8c-8.9 12.3-19.5 23.3-31.5 32.6l-6.1-7.9c11.3-8.7 21.2-19 29.5-30.5zm711.2 3.6l7.9 6c-9.2 12.1-20.1 22.7-32.5 31.6l-5.8-8.1c11.5-8.3 21.7-18.2 30.4-29.5zm1407.6 2.7l7.8 6.2c-9.6 11.9-20.7 22.3-33.3 30.9l-5.6-8.3c11.7-8 22.1-17.7 31.1-28.8zm-1688.8 39.6c12.8 6.3 26.4 10.5 40.5 12.8l-1.6 9.8c-15-2.3-29.6-6.9-43.2-13.6zm1229.9 0.1c12.8 6.2 26.5 10.5 40.5 12.7l-1.6 9.9c-15-2.4-29.5-6.9-43.2-13.6zm-1726.6 5.1l3.6 9.4c-14.2 5.4-29.1 8.6-44.3 9.6l-0.7-10c14.2-0.9 28.2-3.9 41.4-9zm709.7 1.6l3.3 9.4c-14.4 4.9-29.4 7.7-44.6 8.2l-0.4-10c14.3-0.5 28.3-3 41.7-7.6zm1406.4 1l3.1 9.6c-14.5 4.5-29.6 6.9-44.8 7.1l-0.1-10c14.2-0.2 28.3-2.4 41.8-6.7zm-2509.4 6.7h44v10h-44zm88.1 0h44v10h-44zm88 0h44.1v10h-44.1zm88.1 0h44v10h-44zm709.2 0h44.1v10h-44.1zm1230.1 0h44v10h-44zm88 0h44.1v10h-44.1zm88.1 0h44v10h-44z" /></g><g
             id="g3"><path
               id="path2"
               class="s1"
               d="m0 1264.7h22v10h-22z" /></g></g></g><g
         id="g12"
         style="fill:#75a40b;fill-opacity:1"
         transform="translate(-9.9805162,-12.475647)"><g
           id="g11"
           style="fill:#75a40b;fill-opacity:1"><g
             id="g10"
             style="fill:#75a40b;fill-opacity:1"><g
               id="g6"
               style="fill:#75a40b;fill-opacity:1"><path
                 id="path5"
                 class="s2"
                 d="m 1593.7,1247 c 0,66.2 -53.7,119.9 -119.9,119.9 -66.3,0 -120,-53.7 -120,-119.9 0,-66.3 53.7,-120 120,-120 66.2,0 119.9,53.7 119.9,120 z"
                 style="fill:#75a40b;fill-opacity:1" /></g><g
               id="g9"
               style="fill:#75a40b;fill-opacity:1"><g
                 id="g7"
                 style="fill:#75a40b;fill-opacity:1"><path
                   id="path6"
                   class="s2"
                   d="m 1473.8,1131 c -2.3,0 -4,-1.8 -4,-4 V 996.7 c 0,-2.2 1.7,-4 4,-4 2.2,0 4,1.8 4,4 V 1127 c 0,2.2 -1.8,4 -4,4 z"
                   style="fill:#75a40b;fill-opacity:1" /></g><g
                 id="g8"
                 style="fill:#75a40b;fill-opacity:1"><path
                   id="path7"
                   class="s2"
                   d="m 1488.7,996.7 c 0,8.2 -6.7,14.9 -14.9,14.9 -8.3,0 -15,-6.7 -15,-14.9 0,-8.3 6.7,-14.9 15,-14.9 8.2,0 14.9,6.6 14.9,14.9 z"
                   style="fill:#75a40b;fill-opacity:1" /></g></g></g></g></g><g
         id="g19"
         style="fill:#0c4a84;fill-opacity:1"><g
           id="g18"
           style="fill:#0c4a84;fill-opacity:1"><g
             id="g17"
             style="fill:#0c4a84;fill-opacity:1"><g
               id="g13"
               style="fill:#0c4a84;fill-opacity:1"><path
                 id="path12"
                 class="s3"
                 d="m1983.9 738.8c0 66.2-53.7 120-120 120-66.2 0-119.9-53.8-119.9-120 0-66.3 53.7-120 119.9-120 66.3 0 120 53.7 120 120z"
                 style="fill:#0c4a84;fill-opacity:1" /></g><g
               id="g16"
               style="fill:#0c4a84;fill-opacity:1"><g
                 id="g14"
                 style="fill:#0c4a84;fill-opacity:1"><path
                   id="path13"
                   class="s3"
                   d="m1863.9 622.8c-2.2 0-4-1.8-4-4v-130.3c0-2.2 1.8-4 4-4 2.2 0 4 1.8 4 4v130.3c0 2.2-1.8 4-4 4z"
                   style="fill:#0c4a84;fill-opacity:1" /></g><g
                 id="g15"
                 style="fill:#0c4a84;fill-opacity:1"><path
                   id="path14"
                   class="s3"
                   d="m1878.9 488.5c0 8.3-6.7 14.9-15 14.9-8.2 0-14.9-6.6-14.9-14.9 0-8.2 6.7-14.9 14.9-14.9 8.3 0 15 6.7 15 14.9z"
                   style="fill:#0c4a84;fill-opacity:1" /></g></g></g></g></g><g
         id="g26"
         style="fill:#0c4a84;fill-opacity:1"
         transform="translate(-64.873361,-9.9805167)"><g
           id="g25"
           style="fill:#0c4a84;fill-opacity:1"><g
             id="g24"
             style="fill:#0c4a84;fill-opacity:1"><g
               id="g20"
               style="fill:#0c4a84;fill-opacity:1"><path
                 id="path19"
                 class="s3"
                 d="m 3073.7,1088 c 0,66.3 -53.7,120 -119.9,120 -66.3,0 -120,-53.7 -120,-120 0,-66.3 53.7,-120 120,-120 66.2,0 119.9,53.7 119.9,120 z"
                 style="fill:#0c4a84;fill-opacity:1" /></g><g
               id="g23"
               style="fill:#0c4a84;fill-opacity:1"><g
                 id="g21"
                 style="fill:#0c4a84;fill-opacity:1"><path
                   id="path20"
                   class="s3"
                   d="m 2953.8,972 c -2.3,0 -4,-1.8 -4,-4 V 837.7 c 0,-2.2 1.7,-4 4,-4 2.2,0 4,1.8 4,4 V 968 c 0,2.2 -1.8,4 -4,4 z"
                   style="fill:#0c4a84;fill-opacity:1" /></g><g
                 id="g22"
                 style="fill:#0c4a84;fill-opacity:1"><path
                   id="path21"
                   class="s3"
                   d="m 2968.7,837.7 c 0,8.3 -6.7,14.9 -14.9,14.9 -8.3,0 -15,-6.6 -15,-14.9 0,-8.2 6.7,-14.9 15,-14.9 8.2,0 14.9,6.7 14.9,14.9 z"
                   style="fill:#0c4a84;fill-opacity:1" /></g></g></g></g></g><g
         id="g33"
         style="fill:#75a40b;fill-opacity:1"
         transform="translate(-27.446422,-2.4951293)"><g
           id="g32"
           style="fill:#75a40b;fill-opacity:1"><g
             id="g31"
             style="fill:#75a40b;fill-opacity:1"><g
               id="g27"
               style="fill:#75a40b;fill-opacity:1"><path
                 id="path26"
                 class="s2"
                 d="m 3421.7,744.8 c 0,66.3 -53.7,120 -119.9,120 -66.3,0 -120,-53.7 -120,-120 0,-66.2 53.7,-120 120,-120 66.2,0 119.9,53.8 119.9,120 z"
                 style="fill:#75a40b;fill-opacity:1" /></g><g
               id="g30"
               style="fill:#75a40b;fill-opacity:1"><g
                 id="g28"
                 style="fill:#75a40b;fill-opacity:1"><path
                   id="path27"
                   class="s2"
                   d="m 3301.8,628.8 c -2.3,0 -4,-1.8 -4,-4 V 494.5 c 0,-2.2 1.7,-4 4,-4 2.2,0 4,1.8 4,4 v 130.3 c 0,2.2 -1.8,4 -4,4 z"
                   style="fill:#75a40b;fill-opacity:1" /></g><g
                 id="g29"
                 style="fill:#75a40b;fill-opacity:1"><path
                   id="path28"
                   class="s2"
                   d="m 3316.7,494.5 c 0,8.3 -6.7,15 -14.9,15 -8.3,0 -15,-6.7 -15,-15 0,-8.2 6.7,-14.9 15,-14.9 8.2,0 14.9,6.7 14.9,14.9 z"
                   style="fill:#75a40b;fill-opacity:1" /></g></g></g></g></g><g
         id="g41"><g
           id="g40"><g
             id="g39"
             style="fill:#75a40b;fill-opacity:1"><g
               id="g35"
               style="fill:#75a40b;fill-opacity:1"><g
                 id="g34"
                 style="fill:#75a40b;fill-opacity:1"><path
                   id="path33"
                   class="s2"
                   d="m195.7 993.5c0-66.3 53.7-120 119.9-120 66.3 0 120 53.7 120 120 0 66.3-53.7 120-120 120-66.2 0-119.9-53.7-119.9-120z"
                   style="fill:#75a40b;fill-opacity:1" /></g></g><g
               id="g38"
               style="fill:#75a40b;fill-opacity:1"><g
                 id="g36"
                 style="fill:#75a40b;fill-opacity:1"><path
                   id="path35"
                   class="s2"
                   d="m315.6 1109.5c2.3 0 4 1.8 4 4v130.3c0 2.2-1.7 4-4 4-2.2 0-4-1.8-4-4v-130.3c0-2.2 1.8-4 4-4z"
                   style="fill:#75a40b;fill-opacity:1" /></g><g
                 id="g37"
                 style="fill:#75a40b;fill-opacity:1"><path
                   id="path36"
                   class="s2"
                   d="m300.7 1243.8c0-8.3 6.7-15 14.9-15 8.3 0 15 6.7 15 15 0 8.2-6.7 14.9-15 14.9-8.2 0-14.9-6.7-14.9-14.9z"
                   style="fill:#75a40b;fill-opacity:1" /></g></g></g></g></g><g
         id="g48"
         style="fill:#0c4a84;fill-opacity:1"
         transform="translate(7.4853882,-2.4951293)"><g
           id="g47"
           style="fill:#0c4a84;fill-opacity:1"
           transform="translate(14.970776)"><g
             id="g46"
             style="fill:#0c4a84;fill-opacity:1"><g
               id="g42"
               style="fill:#0c4a84;fill-opacity:1"><path
                 id="path41"
                 class="s3"
                 d="m 948.5,993.5 c 0,-66.3 53.7,-120 119.9,-120 66.3,0 120,53.7 120,120 0,66.3 -53.7,120 -120,120 -66.2,0 -119.9,-53.7 -119.9,-120 z"
                 style="fill:#0c4a84;fill-opacity:1" /></g><g
               id="g45"
               style="fill:#0c4a84;fill-opacity:1"><g
                 id="g43"
                 style="fill:#0c4a84;fill-opacity:1"><path
                   id="path42"
                   class="s3"
                   d="m 1068.4,1109.5 c 2.2,0 4,1.8 4,4 v 130.3 c 0,2.2 -1.8,4 -4,4 -2.2,0 -4,-1.8 -4,-4 v -130.3 c 0,-2.2 1.8,-4 4,-4 z"
                   style="fill:#0c4a84;fill-opacity:1" /></g><g
                 id="g44"
                 style="fill:#0c4a84;fill-opacity:1"><path
                   id="path43"
                   class="s3"
                   d="m 1053.5,1243.8 c 0,-8.3 6.7,-15 14.9,-15 8.3,0 15,6.7 15,15 0,8.2 -6.7,14.9 -15,14.9 -8.2,0 -14.9,-6.7 -14.9,-14.9 z"
                   style="fill:#0c4a84;fill-opacity:1" /></g></g></g></g></g><g
         id="g55"
         style="fill:#75a40b;fill-opacity:1"
         transform="translate(19.961034)"><g
           id="g54"
           style="fill:#75a40b;fill-opacity:1"><g
             id="g53"
             style="fill:#75a40b;fill-opacity:1"><g
               id="g49"
               style="fill:#75a40b;fill-opacity:1"><path
                 id="path48"
                 class="s2"
                 d="m 2280.5,988.9 c 0,-66.3 53.7,-120 119.9,-120 66.3,0 120,53.7 120,120 0,66.2 -53.7,120 -120,120 -66.2,0 -119.9,-53.8 -119.9,-120 z"
                 style="fill:#75a40b;fill-opacity:1" /></g><g
               id="g52"
               style="fill:#75a40b;fill-opacity:1"><g
                 id="g50"
                 style="fill:#75a40b;fill-opacity:1"><path
                   id="path49"
                   class="s2"
                   d="m 2400.4,1104.9 c 2.2,0 4,1.7 4,4 v 130.3 c 0,2.2 -1.8,4 -4,4 -2.2,0 -4,-1.8 -4,-4 v -130.3 c 0,-2.3 1.8,-4 4,-4 z"
                   style="fill:#75a40b;fill-opacity:1" /></g><g
                 id="g51"
                 style="fill:#75a40b;fill-opacity:1"><path
                   id="path50"
                   class="s2"
                   d="m 2385.5,1239.2 c 0,-8.3 6.7,-15 14.9,-15 8.3,0 15,6.7 15,15 0,8.2 -6.7,14.9 -15,14.9 -8.2,0 -14.9,-6.7 -14.9,-14.9 z"
                   style="fill:#75a40b;fill-opacity:1" /></g></g></g></g></g><text
         xml:space="preserve"
         transform="matrix(0.888494,0,0,0.888494,-35.264995,234.54216)"
         id="text60"
         style="font-style:normal;font-variant:normal;font-weight:normal;font-stretch:normal;font-size:48px;font-family:sans-serif;-inkscape-font-specification:sans-serif;white-space:pre;shape-inside:url(#rect60);display:inline;fill:#75a40b;fill-opacity:1"><tspan
           x="67.398438"
           y="335.8524"
           id="tspan4"><tspan
             style="font-weight:bold;font-family:Arial;-inkscape-font-specification:'Arial Bold'"
             id="tspan1">Understanding Your Needs</tspan></tspan></text><text
         xml:space="preserve"
         transform="matrix(0.888494,0,0,0.888494,1171.2836,1129.9184)"
         id="text60-9"
         style="font-style:normal;font-variant:normal;font-weight:normal;font-stretch:normal;font-size:48px;font-family:sans-serif;-inkscape-font-specification:sans-serif;white-space:pre;shape-inside:url(#rect60-19);display:inline;fill:#75a40b;fill-opacity:1"><tspan
           x="67.398438"
           y="335.8524"
           id="tspan6"><tspan
             style="font-weight:bold;font-family:Arial;-inkscape-font-specification:'Arial Bold'"
             id="tspan5">Seamless Integration</tspan></tspan></text><text
         xml:space="preserve"
         transform="matrix(0.888494,0,0,0.888494,-17.79909,154.69801)"
         id="text61"
         style="font-style:normal;font-variant:normal;font-weight:bold;font-stretch:normal;font-size:26.6667px;font-family:Arial;-inkscape-font-specification:'Arial Bold';white-space:pre;shape-inside:url(#rect61);display:inline;fill:#272e38;fill-opacity:1"
         x="1161.6552"
         y="0"><tspan
           x="131.29333"
           y="504.23304"
           id="tspan8"><tspan
             style="text-align:center;text-anchor:middle"
             id="tspan7">We begin by listening. Our priority is </tspan></tspan><tspan
           x="194.78299"
           y="537.56641"
           id="tspan10"><tspan
             style="text-align:center;text-anchor:middle"
             id="tspan9">to understand your unique </tspan></tspan><tspan
           x="175.46656"
           y="570.89979"
           id="tspan12"><tspan
             style="text-align:center;text-anchor:middle"
             id="tspan11">challenges, goals, and vision. </tspan></tspan><tspan
           x="196.79471"
           y="604.23316"
           id="tspan14"><tspan
             style="text-align:center;text-anchor:middle"
             id="tspan13">Whether you're optimizing </tspan></tspan><tspan
           x="131.76859"
           y="637.56654"
           id="tspan16"><tspan
             style="text-align:center;text-anchor:middle"
             id="tspan15">operations or creating more efficient </tspan></tspan><tspan
           x="149.54205"
           y="670.89991"
           id="tspan18"><tspan
             style="text-align:center;text-anchor:middle"
             id="tspan17">environments, we take the time to </tspan></tspan><tspan
           x="147.34152"
           y="704.23328"
           id="tspan20"><tspan
             style="text-align:center;text-anchor:middle"
             id="tspan19">ask the right questions and define </tspan></tspan><tspan
           x="142.88188"
           y="737.56666"
           id="tspan22"><tspan
             style="text-align:center;text-anchor:middle"
             id="tspan21">the outcomes you want to achieve.</tspan></tspan></text><text
         xml:space="preserve"
         transform="matrix(0.888494,0,0,0.888494,779.60976,68.137299)"
         id="text61-3"
         style="font-style:normal;font-variant:normal;font-weight:bold;font-stretch:normal;font-size:26.6667px;font-family:Arial;-inkscape-font-specification:'Arial Bold';white-space:pre;shape-inside:url(#rect61-2);display:inline;fill:#272e38;fill-opacity:1"
         x="463.19067"
         y="0"><tspan
           x="129.69014"
           y="504.23304"
           id="tspan24"><tspan
             style="text-align:center;text-anchor:middle"
             id="tspan23">Once we understand your needs, we </tspan></tspan><tspan
           x="150.45188"
           y="537.56641"
           id="tspan26"><tspan
             style="text-align:center;text-anchor:middle"
             id="tspan25">design customized infrastructure </tspan></tspan><tspan
           x="135.4128"
           y="570.89979"
           id="tspan28"><tspan
             style="text-align:center;text-anchor:middle"
             id="tspan27">solutions. Using AI-driven tools, we </tspan></tspan><tspan
           x="143.03"
           y="604.23316"
           id="tspan30"><tspan
             style="text-align:center;text-anchor:middle"
             id="tspan29">optimize traffic systems, transport </tspan></tspan><tspan
           x="156.38939"
           y="637.56654"
           id="tspan32"><tspan
             style="text-align:center;text-anchor:middle"
             id="tspan31">networks, and urban mobility by </tspan></tspan><tspan
           x="129.70967"
           y="670.89991"
           id="tspan34"><tspan
             style="text-align:center;text-anchor:middle"
             id="tspan33">simulating scenarios and identifying </tspan></tspan><tspan
           x="131.90368"
           y="704.23328"
           id="tspan36"><tspan
             style="text-align:center;text-anchor:middle"
             id="tspan35">areas for improvement. Our designs </tspan></tspan><tspan
           x="169.70972"
           y="737.56666"
           id="tspan38"><tspan
             style="text-align:center;text-anchor:middle"
             id="tspan37">are scalable, future-proof, and </tspan></tspan><tspan
           x="175.64723"
           y="770.90003"
           id="tspan40"><tspan
             style="text-align:center;text-anchor:middle"
             id="tspan39">focused on creating efficient, </tspan></tspan><tspan
           x="140.80343"
           y="804.23341"
           id="tspan42"><tspan
             style="text-align:center;text-anchor:middle"
             id="tspan41">interconnected systems that adapt </tspan></tspan><tspan
           x="226.78661"
           y="837.56678"
           id="tspan44"><tspan
             style="text-align:center;text-anchor:middle"
             id="tspan43">to growing demands.</tspan></tspan></text><text
         xml:space="preserve"
         transform="matrix(0.888494,0,0,0.888494,1138.235,1034.1273)"
         id="text61-3-8"
         style="font-style:normal;font-variant:normal;font-weight:bold;font-stretch:normal;font-size:26.6667px;font-family:Arial;-inkscape-font-specification:'Arial Bold';text-align:center;white-space:pre;shape-inside:url(#rect61-2-4);display:inline;fill:#272e38;fill-opacity:1"
         x="692.7027"
         y="0"><tspan
           x="133.50233"
           y="504.23304"
           id="tspan45">Successful implementation is key. </tspan><tspan
           x="184.40083"
           y="537.56641"
           id="tspan46">Our team ensures smooth </tspan><tspan
           x="197.78627"
           y="570.89979"
           id="tspan47">integration of intelligent </tspan><tspan
           x="148.11823"
           y="604.23316"
           id="tspan48">infrastructure into your existing </tspan><tspan
           x="184.28365"
           y="637.56654"
           id="tspan49">systems. With AI-powered </tspan><tspan
           x="194.78496"
           y="670.89991"
           id="tspan50">automation, we enhance </tspan><tspan
           x="144.64818"
           y="704.23328"
           id="tspan51">efficiency, minimize disruptions, </tspan><tspan
           x="157.72762"
           y="737.56666"
           id="tspan52">and enable faster deployment, </tspan><tspan
           x="157.74064"
           y="770.90003"
           id="tspan53">ensuring optimal performance </tspan><tspan
           x="162.17424"
           y="804.23341"
           id="tspan54">across the transport network.</tspan></text><text
         xml:space="preserve"
         transform="matrix(0.888494,0,0,0.888494,776.84658,169.35386)"
         id="text60-6"
         style="font-style:normal;font-variant:normal;font-weight:bold;font-stretch:normal;font-size:48px;font-family:Arial;-inkscape-font-specification:'Arial Bold';white-space:pre;shape-inside:url(#rect60-1);display:inline;fill:#0c4a84;fill-opacity:1"><tspan
           x="67.398438"
           y="335.29676"
           id="tspan55">Tailored Solutions Design</tspan></text><text
         xml:space="preserve"
         transform="matrix(0.888494,0,0,0.888494,1589.3669,627.31882)"
         id="text60-6-5"
         style="font-style:normal;font-variant:normal;font-weight:bold;font-stretch:normal;font-size:48px;font-family:Arial;-inkscape-font-specification:'Arial Bold';text-align:center;white-space:pre;shape-inside:url(#rect60-1-3);display:inline;fill:#0c4a84;fill-opacity:1"
         x="142.16016"
         y="0"><tspan
           x="155.00098"
           y="335.29676"
           id="tspan56">Training and </tspan><tspan
           x="205.69629"
           y="395.29676"
           id="tspan57">Support</tspan></text><text
         xml:space="preserve"
         transform="matrix(0.888494,0,0,0.888494,1539.8287,584.74307)"
         id="text61-3-8-8"
         style="font-style:normal;font-variant:normal;font-weight:bold;font-stretch:normal;font-size:26.6667px;font-family:Arial;-inkscape-font-specification:'Arial Bold';text-align:center;white-space:pre;shape-inside:url(#rect61-2-4-2);display:inline;fill:#272e38;fill-opacity:1"
         x="692.7027"
         y="0"><tspan
           x="143.82591"
           y="504.23304"
           id="tspan58">We offer comprehensive training </tspan><tspan
           x="185.06294"
           y="537.56641"
           id="tspan59">to ensure your teams fully </tspan><tspan
           x="149.48347"
           y="570.89979"
           id="tspan60">leverage the new infrastructure. </tspan><tspan
           x="158.40275"
           y="604.23316"
           id="tspan61">Our dedicated support team is </tspan><tspan
           x="196.88587"
           y="637.56654"
           id="tspan62">available to address any </tspan><tspan
           x="150.26472"
           y="670.89991"
           id="tspan64">questions, troubleshoot issues, </tspan><tspan
           x="149.51602"
           y="704.23328"
           id="tspan65">and provide guidance to ensure </tspan><tspan
           x="229.50961"
           y="737.56666"
           id="tspan66">long-term success.</tspan></text><text
         xml:space="preserve"
         transform="matrix(0.888494,0,0,0.888494,2100.4739,227.09756)"
         id="text60-9-0"
         style="font-style:normal;font-variant:normal;font-weight:normal;font-stretch:normal;font-size:48px;font-family:sans-serif;-inkscape-font-specification:sans-serif;text-align:center;white-space:pre;shape-inside:url(#rect60-19-7);display:inline;fill:#75a40b;fill-opacity:1"
         x="260.61478"
         y="0"><tspan
           x="111.75195"
           y="335.8524"
           id="tspan68"><tspan
             style="font-weight:bold;font-family:Arial;-inkscape-font-specification:'Arial Bold'"
             id="tspan67">Real-Time Monitoring </tspan></tspan><tspan
           x="161.99023"
           y="396.40804"
           id="tspan70"><tspan
             style="font-weight:bold;font-family:Arial;-inkscape-font-specification:'Arial Bold'"
             id="tspan69">and Optimization</tspan></tspan></text><text
         xml:space="preserve"
         transform="matrix(0.888494,0,0,0.888494,2086.471,190.41193)"
         id="text61-6"
         style="font-style:normal;font-variant:normal;font-weight:bold;font-stretch:normal;font-size:26.6667px;font-family:Arial;-inkscape-font-specification:'Arial Bold';text-align:center;white-space:pre;shape-inside:url(#rect61-7);display:inline;fill:#272e38;fill-opacity:1"
         x="464.90292"
         y="0"><tspan
           x="192.10394"
           y="504.23304"
           id="tspan71">Our services extend beyond </tspan><tspan
           x="175.61303"
           y="537.56641"
           id="tspan72">deployment. Using AI-powered </tspan><tspan
           x="148.43201"
           y="570.89979"
           id="tspan73">analytics, we continuously monitor </tspan><tspan
           x="138.04788"
           y="604.23316"
           id="tspan74">performance, optimize infrastructure </tspan><tspan
           x="139.4932"
           y="637.56654"
           id="tspan75">in real-time, and proactively address </tspan><tspan
           x="155.80832"
           y="670.89991"
           id="tspan76">any inefficiencies, maximizing the </tspan><tspan
           x="164.70156"
           y="704.23328"
           id="tspan77">value of your transport systems.</tspan></text><text
         xml:space="preserve"
         transform="matrix(0.888494,0,0,0.888494,2565.7216,1010.7842)"
         id="text60-6-5-1"
         style="font-style:normal;font-variant:normal;font-weight:bold;font-stretch:normal;font-size:48px;font-family:Arial;-inkscape-font-specification:'Arial Bold';white-space:pre;shape-inside:url(#rect60-1-3-2);display:inline;fill:#0c4a84;fill-opacity:1"
         x="218.29184"
         y="0"><tspan
           x="118.4541"
           y="335.29676"
           id="tspan79"><tspan
             style="text-align:center;text-anchor:middle"
             id="tspan78">Ongoing Support and </tspan></tspan><tspan
           x="243.75098"
           y="395.29676"
           id="tspan81"><tspan
             style="text-align:center;text-anchor:middle"
             id="tspan80">Innovation</tspan></tspan></text><text
         xml:space="preserve"
         transform="matrix(0.888494,0,0,0.888494,2565.9341,968.46227)"
         id="text61-6-3"
         style="font-style:normal;font-variant:normal;font-weight:bold;font-stretch:normal;font-size:26.6667px;font-family:Arial;-inkscape-font-specification:'Arial Bold';text-align:center;white-space:pre;shape-inside:url(#rect61-7-0);display:inline;fill:#272e38;fill-opacity:1"
         x="464.90292"
         y="0"><tspan
           x="142.01924"
           y="504.23304"
           id="tspan82">We are committed to your long-term </tspan><tspan
           x="136.557"
           y="537.56641"
           id="tspan83">success. Our team provides ongoing </tspan><tspan
           x="165.23542"
           y="570.89979"
           id="tspan84">support and integrates AI-driven </tspan><tspan
           x="199.55838"
           y="604.23316"
           id="tspan85">innovations to ensure your </tspan><tspan
           x="145.46326"
           y="637.56654"
           id="tspan86">infrastructure remains cutting-edge </tspan><tspan
           x="169.16771"
           y="670.89991"
           id="tspan87">and responsive to future needs.</tspan></text><text
         xml:space="preserve"
         transform="matrix(0.888494,0,0,0.888494,3005.2479,642.26635)"
         id="text60-9-0-8"
         style="font-style:normal;font-variant:normal;font-weight:normal;font-stretch:normal;font-size:48px;font-family:sans-serif;-inkscape-font-specification:sans-serif;text-align:center;white-space:pre;shape-inside:url(#rect60-19-7-3);display:inline;fill:#75a40b;fill-opacity:1"
         x="260.61478"
         y="0"><tspan
           x="82.198242"
           y="335.8524"
           id="tspan89"><tspan
             style="font-weight:bold;font-family:Arial;-inkscape-font-specification:'Arial Bold'"
             id="tspan88">Sustainability at the </tspan></tspan><tspan
           x="254.22949"
           y="396.40804"
           id="tspan91"><tspan
             style="font-weight:bold;font-family:Arial;-inkscape-font-specification:'Arial Bold'"
             id="tspan90">Core</tspan></tspan></text><text
         xml:space="preserve"
         transform="matrix(0.888494,0,0,0.888494,2946.0919,599.13077)"
         id="text61-6-3-9"
         style="font-style:normal;font-variant:normal;font-weight:bold;font-stretch:normal;font-size:26.6667px;font-family:Arial;-inkscape-font-specification:'Arial Bold';text-align:center;white-space:pre;shape-inside:url(#rect61-7-0-0);display:inline;fill:#272e38;fill-opacity:1"
         x="464.90292"
         y="0"><tspan
           x="163.99193"
           y="504.23304"
           id="tspan92">Our solutions support a greener, </tspan><tspan
           x="149.16118"
           y="537.56641"
           id="tspan93">more resilient future. From energy-</tspan><tspan
           x="183.97893"
           y="570.89979"
           id="tspan94">efficient transport systems to </tspan><tspan
           x="134.34996"
           y="604.23316"
           id="tspan95">minimizing environmental impact, we </tspan><tspan
           x="141.76534"
           y="637.56654"
           id="tspan96">ensure that intelligent infrastructure </tspan><tspan
           x="139.51273"
           y="670.89991"
           id="tspan97">drives both operational success and </tspan><tspan
           x="282.76812"
           y="704.23328"
           id="tspan98">sustainability.</tspan></text></g><g
       inkscape:groupmode="layer"
       id="layer1"
       inkscape:label="Layer 1" /></g></svg>
