<?xml version="1.0" encoding="UTF-8"?>
<svg xmlns="http://www.w3.org/2000/svg" width="73" height="72" viewBox="0 0 73 72" fill="none">
  <path d="M37.0898 6.72852L37.0899 11.3587L38.5366 11.3572L38.538 6.72854" fill="white"></path>
  <path d="M37.0947 66.6641V71.2942H38.5429L38.5429 66.6641" fill="white"></path>
  <path d="M70.0982 38.2363H65.4688V39.7799H70.0982V38.2363Z" fill="white"></path>
  <path d="M52.5455 6.34766L65.8164 19.6186L20.1703 65.2646L6.89941 51.9937L52.5455 6.34766Z"
        fill="url(#paint0_linear_72_8785)"></path>
  <path d="M65.6855 52.1246L52.4146 65.3955L6.76855 19.7494L20.0395 6.47852L65.6855 52.1246Z"
        fill="url(#paint1_linear_72_8785)"></path>
  <path d="M6.51758 20.0005L52.1676 65.6525L53.1916 64.6285L7.54158 18.9766" fill="#red"></path>
  <path d="M58.5069 12.5585L55.2334 15.832L56.3249 16.9235L59.5984 13.65L58.5069 12.5585Z" fill="white"></path>
  <path
    d="M22.8078 50.4479L21.7178 49.3579L27.3038 43.7698L28.3938 44.8599L22.8078 50.4479ZM45.1538 28.0999L44.0638 27.0079L49.6478 21.4219L50.7398 22.5118L45.1538 28.0999Z"
    fill="white"></path>
  <path d="M16.129 54.9433L12.8574 58.2207L13.9499 59.3112L17.2215 56.0338L16.129 54.9433Z" fill="white"></path>
  <path
    d="M16.8138 32.6862C17.6938 32.6862 18.5158 33.0283 19.1338 33.6542L21.4258 35.9462L18.6978 38.6643C18.1438 39.0603 17.4898 39.2703 16.8018 39.2703C15.9258 39.2703 15.1038 38.9282 14.4798 38.2982C13.8598 37.6823 13.5158 36.8582 13.5158 35.9782C13.5158 35.0982 13.8598 34.2743 14.4838 33.6543C15.1059 33.0302 15.9338 32.6862 16.8138 32.6862ZM16.8138 31.2402C15.5938 31.2402 14.3878 31.7042 13.4598 32.6303C11.6058 34.4722 11.6058 37.4843 13.4598 39.3262C14.3818 40.2542 15.5898 40.7163 16.8019 40.7163C17.8019 40.7163 18.8039 40.4002 19.6439 39.7642L23.4739 35.9483L20.1559 32.6303C19.2418 31.7042 18.0218 31.2402 16.8138 31.2402Z"
    fill="#08e28d"></path>
  <path
    d="M56.171 32.612C57.045 32.612 57.867 32.956 58.491 33.584C59.113 34.2 59.455 35.026 59.455 35.904C59.455 36.784 59.113 37.61 58.489 38.23C57.865 38.852 57.037 39.196 56.159 39.196C55.277 39.196 54.457 38.856 53.839 38.23L51.547 35.936L54.273 33.218C54.829 32.822 55.483 32.612 56.171 32.612ZM56.171 31.166C55.169 31.166 54.167 31.484 53.329 32.118L49.499 35.936L52.817 39.252C53.731 40.18 54.951 40.642 56.159 40.642C57.377 40.642 58.585 40.18 59.513 39.252C61.365 37.41 61.365 34.398 59.513 32.556C58.591 31.63 57.381 31.166 56.171 31.166Z"
    fill="#08e28d"></path>
  <path
    d="M36.2566 12.7077C37.1366 12.7077 37.9606 13.0497 38.5846 13.6797C39.7186 14.8037 39.8646 16.5997 38.9426 17.8897L36.2246 20.6177L33.9246 18.3177C33.3066 17.7077 32.9646 16.8857 32.9646 16.0057C32.9646 15.1257 33.3086 14.2977 33.9366 13.6717C34.5526 13.0497 35.3765 12.7077 36.2566 12.7077ZM36.2566 11.2617C35.0426 11.2617 33.8306 11.7257 32.9086 12.6517C31.9826 13.5797 31.5186 14.7857 31.5186 16.0057C31.5186 17.2137 31.9826 18.4337 32.9086 19.3477L36.2266 22.6657L40.0426 18.8357C41.4466 16.9817 41.2986 14.3357 39.6046 12.6517C38.6825 11.7257 37.4706 11.2617 36.2566 11.2617Z"
    fill="#08e28d"></path>
  <path d="M12.8857 13.6236L16.1597 16.8976L17.1818 15.8736L13.9097 12.5996" fill="white"></path>
  <path d="M55.2695 56.0006L58.5435 59.2745L59.5675 58.2506L56.2935 54.9766" fill="white"></path>
  <path
    d="M36.4821 51.0031L38.7821 53.3011C39.4001 53.9131 39.7421 54.7331 39.7421 55.6131C39.7421 56.4931 39.3981 57.3211 38.7701 57.9471C38.1541 58.5691 37.3301 58.9111 36.4501 58.9111C35.5701 58.9111 34.7461 58.5691 34.1221 57.9411C32.9881 56.8171 32.8421 55.0211 33.7641 53.7291L36.4821 51.0031ZM36.4801 48.9551L32.6641 52.7851C31.2601 54.6391 31.4081 57.2831 33.1021 58.9671C34.0241 59.8951 35.2361 60.3571 36.4501 60.3571C37.6641 60.3571 38.8761 59.8951 39.7981 58.9671C40.7241 58.0411 41.1881 56.8331 41.1881 55.6131C41.1881 54.4051 40.7241 53.1871 39.7981 52.2731L36.4801 48.9551Z"
    fill="#08e28d"></path>
  <path
    d="M44.0951 44.827L49.6831 50.411L50.705 49.389L45.119 43.803L44.0951 44.827ZM32.9211 33.653L38.5091 39.239L39.5311 38.2171L33.9451 32.6311L32.9211 33.653ZM21.7471 22.481L27.3351 28.067L28.3571 27.0451L22.7711 21.457L21.7471 22.481Z"
    fill="white"></path>
  <defs>
    <linearGradient id="paint0_linear_72_8785" x1="-0.078407" y1="72.241" x2="78.5566" y2="-6.39401"
                    gradientUnits="userSpaceOnUse">
      <stop stop-color="#08e28d"></stop>
      <stop offset="0.09033" stop-color="#08e28d"></stop>
      <stop offset="1" stop-color="#9DBBFF"></stop>
    </linearGradient>
    <linearGradient id="paint1_linear_72_8785" x1="12.9635" y1="12.6731" x2="60.1144" y2="59.8241"
                    gradientUnits="userSpaceOnUse">
      <stop stop-color="#AFFAD7"></stop>
      <stop offset="0.99998" stop-color="#08e28d"></stop>
      <stop offset="1" stop-color="#08e28d"></stop>
    </linearGradient>
  </defs>
</svg>
