<?xml version="1.0" encoding="UTF-8"?> <svg xmlns="http://www.w3.org/2000/svg" width="73" height="72" viewBox="0 0 73 72" fill="none"><path d="M2.6695 18.5538H41.8575V17.1078H2.6695V18.5538ZM9.21948 10.2578L1.64746 17.8298L9.21948 25.4018L10.2435 24.3798L3.69348 17.8298L10.2435 11.2798L9.21948 10.2578Z" fill="#1E2ED9"></path><path d="M38.124 54.8976H70.33V53.4515H38.124V54.8976ZM63.78 61.7476L71.352 54.1736L63.78 46.6016L62.758 47.6255L69.306 54.1736L62.756 60.7236L63.78 61.7476Z" fill="#1E2ED9"></path><path d="M38.2362 41.8887H13.7822V66.3447H38.2362V41.8887Z" fill="url(#paint0_linear_72_9640)"></path><path d="M41.7918 30.0039H29.8838V41.9119H41.7918V30.0039Z" fill="url(#paint1_linear_72_9640)"></path><path d="M66.1981 30.0039H54.2881V41.912H66.1981V30.0039Z" fill="url(#paint2_linear_72_9640)"></path><path d="M66.2025 5.65625H41.8584V30.0002H66.2025V5.65625Z" fill="url(#paint3_linear_72_9640)"></path><defs><linearGradient id="paint0_linear_72_9640" x1="13.8276" y1="54.117" x2="74.0755" y2="54.117" gradientUnits="userSpaceOnUse"><stop stop-color="#AFFAD7"></stop><stop offset="0.43506" stop-color="#9DBBFF"></stop><stop offset="0.99998" stop-color="#1E2ED9"></stop><stop offset="1" stop-color="#1E2ED9"></stop></linearGradient><linearGradient id="paint1_linear_72_9640" x1="58.6189" y1="35.9587" x2="29.0769" y2="35.9587" gradientUnits="userSpaceOnUse"><stop stop-color="#AFFAD7"></stop><stop offset="0.43506" stop-color="#9DBBFF"></stop><stop offset="0.99998" stop-color="#1E2ED9"></stop><stop offset="1" stop-color="#1E2ED9"></stop></linearGradient><linearGradient id="paint2_linear_72_9640" x1="60.2408" y1="58.7666" x2="60.2408" y2="24.2992" gradientUnits="userSpaceOnUse"><stop stop-color="#AFFAD7"></stop><stop offset="0.43506" stop-color="#9DBBFF"></stop><stop offset="0.99998" stop-color="#1E2ED9"></stop><stop offset="1" stop-color="#1E2ED9"></stop></linearGradient><linearGradient id="paint3_linear_72_9640" x1="67.2358" y1="17.8295" x2="12.9267" y2="17.8295" gradientUnits="userSpaceOnUse"><stop stop-color="#AFFAD7"></stop><stop offset="0.43506" stop-color="#9DBBFF"></stop><stop offset="0.99998" stop-color="#1E2ED9"></stop><stop offset="1" stop-color="#1E2ED9"></stop></linearGradient></defs></svg> 