<svg version="1.2" xmlns="http://www.w3.org/2000/svg" viewBox="-1600 -193 544 293" width="544" height="293">
	<title>Dự án mới</title>
	<style>
		.s0 { fill: #373c58 }
		.s1 { fill: #76a31d
    }
		.s2 { fill: #addfbd
    }
		.s3 { fill: #fdfdfd }
	</style>
	<g id="Layer 1">
		<path id="&lt;Path&gt; copy" class="s0" d="m-1152.8 24.1l-3.1-1.3 78.7-89.8c1.4-1.6 1.4-4.3 0-5.8l-78.7-89.9 3.1-1.3 78.7 89.9c2.1 2.3 2.1 6 0 8.4z"/>
		<path id="&lt;Path&gt; copy 2" class="s1" d="m-1501.4-73.9c1.7 1.9 1.7 5.1 0 7.1l-66.8 76.3c-1.8 2-0.5 3.7 2.8 3.7h385.6c3.3 0 7.3-1.7 9.1-3.7l66.8-76.3c1.7-1.9 1.7-5.1 0-7.1l-66.8-76.2c-1.8-2-5.8-3.5-9.1-3.5h-385.6c-3.3 0-4.6 1.5-2.8 3.5z"/>
		<path id="&lt;Compound Path&gt; copy 16" class="s2" d="m-1336.8 86c-3.5 0-6.3-2-6.3-4.4 0-2.4 2.8-4.4 6.3-4.4 3.4 0 6.2 2 6.2 4.4 0 2.4-2.8 4.4-6.2 4.4zm0-2.1c-1.9 0-3.3-1-3.3-2.3 0-1.2 1.4-2.3 3.3-2.3 1.8 0 3.2 1.1 3.2 2.3 0 1.3-1.4 2.3-3.2 2.3z"/>
		<path id="&lt;Compound Path&gt; copy 17" class="s2" d="m-1336.8 63.5c-3.5 0-6.3-2-6.3-4.4 0-2.4 2.8-4.4 6.3-4.4 3.4 0 6.2 2 6.2 4.4 0 2.4-2.8 4.4-6.2 4.4zm0-2.1c-1.9 0-3.3-1-3.3-2.3 0-1.3 1.4-2.3 3.3-2.3 1.8 0 3.2 1 3.2 2.3 0 1.3-1.4 2.3-3.2 2.3z"/>
		<path id="&lt;Compound Path&gt; copy 18" class="s2" d="m-1336.8 41c-3.5 0-6.3-2-6.3-4.4 0-2.4 2.8-4.4 6.3-4.4 3.4 0 6.2 2 6.2 4.4 0 2.4-2.8 4.4-6.2 4.4zm0-2.1c-1.9 0-3.3-1-3.3-2.3 0-1.3 1.4-2.3 3.3-2.3 1.8 0 3.2 1 3.2 2.3 0 1.3-1.4 2.3-3.2 2.3z"/>
		<path id="&lt;Compound Path&gt; copy 19" class="s2" d="m-1336.8 41c-3.5 0-6.3-2-6.3-4.4 0-2.4 2.8-4.4 6.3-4.4 3.4 0 6.2 2 6.2 4.4 0 2.4-2.8 4.4-6.2 4.4zm0-2.1c-1.9 0-3.3-1-3.3-2.3 0-1.3 1.4-2.3 3.3-2.3 1.8 0 3.2 1 3.2 2.3 0 1.3-1.4 2.3-3.2 2.3z"/>
		<path id="&lt;Compound Path&gt; copy 20" class="s3" d="m-1336.8 23c-8 0-14.4-4.4-14.4-10 0-5.5 6.4-10 14.4-10 7.9 0 14.3 4.5 14.3 10 0 5.6-6.4 10-14.3 10z"/>
		<path id="&lt;Path&gt; copy 3" class="s1" d="m-1336.8 17.2c-3.3 0-6-1.9-6-4.2 0-2.3 2.7-4.1 6-4.1 3.2 0 5.9 1.8 5.9 4.1 0 2.3-2.7 4.2-5.9 4.2z"/>
	</g>
</svg>
