<svg xmlns="http://www.w3.org/2000/svg" xmlns:xlink="http://www.w3.org/1999/xlink" version="1.1" id="fpekeqeqoz-Layer_1" x="0px" y="0px" viewBox="0 0 46 46" style="enable-background:new 0 0 46 46;" xml:space="preserve">
<style type="text/css">
	.fpekeqeqoz-st0{fill:none;stroke:#242A35;stroke-linecap:round;stroke-linejoin:round;stroke-miterlimit:10;}
</style>
  <g>
	<polyline class="fpekeqeqoz-st0" points="1.7,8.6 3.1,17.1 6.2,20.1 39.7,20.4 42.7,17.4 44.3,8.7  "></polyline>
    <line class="fpekeqeqoz-st0" x1="27.5" y1="13.1" x2="35.6" y2="13.1"></line>
    <line class="fpekeqeqoz-st0" x1="8" y1="16.7" x2="42.4" y2="16.7"></line>
    <ellipse transform="matrix(0.7634 -0.6459 0.6459 0.7634 -12.055 25.7929)" class="fpekeqeqoz-st0" cx="29.2" cy="29.4" rx="4.3" ry="3.2"></ellipse>
    <path class="fpekeqeqoz-st0" d="M40.4,20.1c-0.4,9.4-7.9,17.7-17.2,17.3C10.6,37,6.5,28.2,5.5,19.5"></path>
    <path class="fpekeqeqoz-st0" d="M22.9,20.3c0,0,1.2,16-6.1,15.8"></path>
    <path class="fpekeqeqoz-st0" d="M35.8,22.1c0,0,0.7,7.5-1.8,11"></path>
</g>
</svg>
